<?xml version="1.0" encoding="utf-8"?><svg xmlns="http://www.w3.org/2000/svg" xmlns:xlink="http://www.w3.org/1999/xlink"><symbol viewBox="0 0 66 66" id="calc" xmlns="http://www.w3.org/2000/svg"><path d="M12.902.5h40.196C59.95.5 65.5 6.013 65.5 12.806v40.388c0 6.793-5.55 12.306-12.402 12.306H12.902C6.05 65.5.5 59.987.5 53.194V12.806C.5 6.013 6.05.5 12.902.5z"/><path d="M33 33h32v20c0 6.627-5.373 12-12 12H33V33z"/><path fill-rule="evenodd" clip-rule="evenodd" d="M65.999 33.01H33V66h-1V33.01H0v-.97h32V0h1v32.04h33v.97h-.001z"/><path fill-rule="evenodd" clip-rule="evenodd" d="M22.52 18.209h-4.311v4.31a.48.48 0 01-.48.481h-1.442a.48.48 0 01-.481-.48v-4.311h-4.325a.48.48 0 01-.481-.48v-1.442a.48.48 0 01.48-.481h4.326v-4.325a.48.48 0 01.48-.481h1.442a.48.48 0 01.48.48v4.326h4.311a.48.48 0 01.481.48v1.442a.48.48 0 01-.48.48z"/><path d="M53.52 16H42.48a.49.49 0 00-.48.5V18c0 .276.215.5.48.5h11.04A.49.49 0 0054 18v-1.5a.49.49 0 00-.48-.5z"/><path fill-rule="evenodd" clip-rule="evenodd" d="M21.856 45.886l-3.122 3.124 3.111 3.115a.49.49 0 010 .694l-1.04 1.042a.49.49 0 01-.694 0L17 50.746l-3.111 3.115a.49.49 0 01-.694 0l-1.04-1.042a.492.492 0 010-.694l3.11-3.114-3.121-3.126a.492.492 0 010-.694l1.04-1.041a.49.49 0 01.694 0l3.121 3.123 3.122-3.125a.49.49 0 01.694 0l1.04 1.042a.491.491 0 010 .696zM54.52 53H43.48a.471.471 0 01-.34-.146.51.51 0 01-.14-.354V51c0-.133.05-.26.14-.354a.471.471 0 01.34-.146h11.04c.127 0 .25.053.34.146A.51.51 0 0155 51v1.5a.51.51 0 01-.14.354.471.471 0 01-.34.146zm0-6.5H43.48a.471.471 0 01-.34-.146A.51.51 0 0143 46v-1.5c0-.133.05-.26.14-.354a.471.471 0 01.34-.146h11.04c.127 0 .25.053.34.146a.51.51 0 01.14.354V46a.51.51 0 01-.14.354.471.471 0 01-.34.146z"/></symbol><symbol viewBox="0 0 14 14" id="email" xmlns="http://www.w3.org/2000/svg"><path d="M7 0C3.14 0 0 3.14 0 7s3.14 7 7 7c1.23 0 2.441-.324 3.5-.937l-.875-1.515A5.256 5.256 0 011.75 7 5.256 5.256 0 017 1.75 5.256 5.256 0 0112.25 7v.762c0 .573-.368.988-.875.988a.876.876 0 01-.875-.875v-3.5H9.29A3.47 3.47 0 007 3.5C5.07 3.5 3.5 5.07 3.5 7s1.57 3.5 3.5 3.5c.919 0 1.75-.363 2.375-.945a2.609 2.609 0 002 .945C12.847 10.5 14 9.297 14 7.762V7c0-3.86-3.14-7-7-7zm0 8.75c-.965 0-1.75-.785-1.75-1.75S6.035 5.25 7 5.25 8.75 6.035 8.75 7 7.965 8.75 7 8.75z"/></symbol><symbol viewBox="0 0 50 51" id="master" xmlns="http://www.w3.org/2000/svg"><path d="M13.401 30.288v1.285a2.685 2.685 0 002.678 2.703 2.685 2.685 0 002.678-2.703v-1.285a9.62 9.62 0 01-5.356 0zm7.141-14.939l-1.049-1.42-2.276 1.837a6.235 6.235 0 01-3.905 1.374H8.045v3.606c.011 4.472 3.604 8.1 8.034 8.111a7.9 7.9 0 005.032-1.802H16.08v-1.803h6.673a8.185 8.185 0 001.36-4.506V17.14c-1.405.012-2.722-.664-3.57-1.791zm-8.034 5.408h-1.785v-1.803h1.785v1.803zm8.927 0H19.65v-1.803h1.785v1.803zm19.772.383l1.652-1.25V9.715c0-.293.145-.575.38-.744 2.432-1.7 3.023-5.08 1.338-7.526A5.11 5.11 0 0043.751.5v4.033a.906.906 0 01-.613.857l-2.678.9a.979.979 0 01-.57 0l-2.677-.9a.895.895 0 01-.614-.857V.5a5.44 5.44 0 00-.424 7.639c.279.315.591.597.937.833.235.17.38.44.38.733v6.545h.892c.447 0 .826.327.882.778l.011.067V9.941h1.785v11.143c.056.022.1.033.145.056z"/><path d="M45.994 35.516a.89.89 0 01.737-.642L50 34.389v-3.83l-3.28-.474a.888.888 0 01-.737-.642 10.62 10.62 0 00-.881-2.152.964.964 0 01.067-.98l1.986-2.67-2.69-2.715-2.644 2.005a.893.893 0 01-.97.068 10.678 10.678 0 00-2.132-.89.894.894 0 01-.636-.744l-.469-3.312h-3.793l-.47 3.312-.88-.124c-.804.237-1.585.552-2.321.97l-.57-.429a2.723 2.723 0 01-.993.631v1.95c0 1.486-1.205 2.703-2.678 2.703h-.468a11.185 11.185 0 00-.848 2.118l-3.147.462v1.679l1.785.72v-.472h1.786v1.194l2.756 1.115c.022.011.044.023.067.023a7.68 7.68 0 01-.145-1.431c0-4.484 3.593-8.112 8.034-8.112 4.44 0 8.034 3.628 8.034 8.112s-3.593 8.112-8.034 8.112a7.61 7.61 0 01-2.187-.316c.267.913.401 1.86.401 2.817v3.808h3.683l.468-3.313a.891.891 0 01.636-.743 10.417 10.417 0 002.131-.89.94.94 0 01.971.067l2.645 2.006 2.689-2.715-1.986-2.67a.941.941 0 01-.067-.98 11.21 11.21 0 00.881-2.141zm.435-3.943h1.786v1.802h-1.786v-1.802zm-9.819-9.915h-1.785v-1.802h1.785v1.802zm0 23.434h-1.785V43.29h1.785v1.803zm8.58-4.337l-1.271 1.284-1.261-1.284 1.26-1.274 1.273 1.274zm-1.27-15.289l-1.261-1.273 1.26-1.284 1.273 1.284-1.272 1.273z"/><path d="M32.147 50.5v-7.413a8.085 8.085 0 00-5.055-7.537l-6.75-2.727c-.67 2.377-3.125 3.763-5.48 3.087a4.46 4.46 0 01-3.057-3.087l-6.75 2.727A8.085 8.085 0 000 43.087V50.5h5.356v-9.914h1.785V50.5h17.853v-9.914h1.786V50.5h5.367zm-3.571-30.644v-2.704a.9.9 0 00-.892-.902h-1.786v4.507h1.786a.9.9 0 00.892-.901zM16.079 6.336c-4.43 0-8.034 3.639-8.034 8.112v.901h5.267c1.015 0 1.997-.35 2.79-.991l2.99-2.423a.906.906 0 01.67-.191.926.926 0 01.602.35l1.607 2.162a2.67 2.67 0 002.142 1.082v-.901c0-4.462-3.604-8.101-8.034-8.101zm19.639 32.447c3.447 0 6.248-2.828 6.248-6.31 0-3.48-2.8-6.308-6.248-6.308-3.448 0-6.25 2.828-6.25 6.309 0 .958.224 1.904.648 2.76a9.884 9.884 0 012.332 2.591 6.12 6.12 0 003.27.958zM3.582 17.152v2.704a.9.9 0 00.892.9H6.26V16.25H4.474a.9.9 0 00-.892.902zm23.208 7.21V22.56h-.892c-.055 0-.111-.012-.167-.012a9.737 9.737 0 01-.915 2.715h1.082a.9.9 0 00.893-.9z"/><path d="M28.576 14.448h-1.785v-.902c0-5.97-4.798-10.815-10.712-10.815S5.367 7.575 5.367 13.546v.902H3.582v-.902C3.582 6.573 9.172.928 16.079.928s12.497 5.645 12.497 12.618v.902z"/></symbol><symbol viewBox="0 0 18 18" id="menu-service1" xmlns="http://www.w3.org/2000/svg"><path fill-rule="evenodd" clip-rule="evenodd" d="M13.03 15.009c.254-.004.49-.008.73.008.508.034.687.236.684.77l-.001.808v.289l.006.001.006.002.48.002c.594.002 1.189.004 1.782-.002.158-.002.239-.09.24-.264l.01-.569.001-.071c.007-.403.014-.818.009-1.225 0-.1-.052-.228-.121-.299a1420.796 1420.796 0 00-6.65-6.874c-.273-.28-.368-.571-.32-.974.084-.675.152-1.394 0-2.096-.5-2.333-2.884-3.882-5.21-3.392C2.189 1.653.653 3.99 1.1 6.563c.36 2.073 2.246 4.012 4.772 3.666.21-.03.425-.046.632-.061l.12-.01.119-.01a.7.7 0 01.606.246c.129.14.262.276.395.411l.04.041.026.026c.167.17.338.344.499.524a.515.515 0 00.455.183 33.656 33.656 0 011.628-.06h.014c.345 0 .522.15.574.485.032.206.038.418.044.624v.005l.004.129c.004.143.003.285.002.431v.003l-.001.118c.13 0 .257 0 .381-.002l.288-.001c.158 0 .314 0 .47.006.375.012.526.158.557.539.015.184.014.37.013.552v.03c-.001.082-.002.165-.001.247v.327c.064 0 .128 0 .19-.002l.09-.001h.011zm1.88-4.054c.928.954 1.855 1.909 2.784 2.861a.994.994 0 01.307.765 78.95 78.95 0 00-.017 1.532v.003l-.004.695c-.005.518-.57 1.1-1.08 1.112-.54.013-1.08.032-1.621.05h-.01l-.725.024a5.692 5.692 0 01-.184.003c-.329 0-.556-.04-.702-.183-.171-.169-.208-.453-.214-.89a39.676 39.676 0 01-.001-.6l.001-.226h-.883a4.71 4.71 0 01-.291-.007c-.392-.024-.55-.188-.563-.586a16.77 16.77 0 01-.003-.672l.002-.3v-.185h-.869c-.717-.001-.834-.121-.838-.855v-.901h-.237l-.339.001-.198.001c-.264.002-.527.004-.791.013a.817.817 0 01-.625-.261l-.293-.304-.074-.076a20.741 20.741 0 01-.595-.622c-.1-.11-.188-.137-.343-.106-2.572.489-5.008-.85-6.055-3.333a5.747 5.747 0 01.253-4.977C1.539 1.376 2.98.332 4.658.068c3.011-.472 5.772 1.555 6.288 4.617.109.65.106 1.309-.01 1.958-.026.142 0 .224.105.332l2.207 2.27.736.757.926.953zM4.07 4.845c.179 0 .345-.07.467-.199a.674.674 0 00.185-.478.655.655 0 00-.65-.649h-.006a.663.663 0 00-.64.666c0 .358.296.66.643.66h.002zm-.007-2.36h.014a1.62 1.62 0 011.171.51c.31.324.475.756.467 1.216-.015.915-.749 1.653-1.639 1.653h-.018a1.64 1.64 0 01-1.168-.502 1.681 1.681 0 01-.471-1.197c.01-.945.731-1.68 1.644-1.68z"/></symbol><symbol viewBox="0 0 18 18" id="menu-service10" xmlns="http://www.w3.org/2000/svg"><path fill-rule="evenodd" clip-rule="evenodd" d="M5.153 15.251c.327.003.524.2.526.527.002.217.001.434.001.652V17h2.524V7.452H.996v9.546h2.523v-.227l.001-.976c.001-.339.2-.542.53-.544.368-.002.736-.003 1.103 0zm1.292-8.808H2.762V3.346h3.683v3.097zm.995.009h1.189c.379.002.571.191.571.561v10.428c0 .363-.194.555-.559.555H.557c-.364 0-.557-.192-.557-.555V7.013c0-.371.192-.56.571-.561H1.76l-.001-3.513c0-.41.184-.593.595-.593h1.752l.001-.485c.002-.412.003-.822-.004-1.232-.003-.174.023-.423.275-.594L4.429 0h.343l.051.035c.252.172.277.421.274.594-.006.419-.005.837-.004 1.256l.001.461 1.771.001c.386.001.575.188.575.574v3.531zm8.334 7.623h.002c.326 0 .462.18.52.33a.464.464 0 01-.05.433.555.555 0 01-.46.226h-.433a208.803 208.803 0 01-.757 0H12.19a.553.553 0 01-.462-.223.465.465 0 01-.052-.432c.056-.152.19-.334.519-.334h.002l.33.003h.387l.572-.002.508.001h.893l.888-.002zm1.225-9.564v12.487h-1.932v-.605c-.002-.361-.194-.554-.556-.556-.356-.002-.71-.002-1.066 0-.338.003-.534.197-.538.534V17h-1.934V4.51h6.026zm.966-.721c-.126-.184-.311-.274-.566-.274h-.006c-.743.006-1.485.005-2.226.004l-.78-.001h-3.85c-.374 0-.56.186-.564.565v13.29c0 .448.173.623.62.623l1.427-.001c1.786-.001 3.57 0 5.355.004.173 0 .422-.028.59-.273l.035-.051V3.84l-.035-.051zM2.31 9.786h-.005c-.36 0-.484-.225-.526-.359a.462.462 0 01.066-.415.556.556 0 01.456-.213h4.541c.205 0 .362.053.468.161a.46.46 0 01.129.34c-.005.235-.161.486-.588.486h-4.54zm4.58 1.357h-.003c-.567.002-1.136.002-1.702.002l-2.893-.002H2.29c-.26 0-.445.127-.494.34-.032.14-.015.348.098.474.11.123.3.17.44.17.39.004.776.005 1.164.005h2.323c.359 0 .718 0 1.077-.002a.55.55 0 00.462-.224.464.464 0 00.05-.43c-.056-.152-.192-.333-.519-.333zm.527 2.705a.463.463 0 01-.066.415.556.556 0 01-.455.214h-.678l-.676.001-3.243.001h-.003c-.374 0-.472-.23-.497-.33-.036-.137-.025-.346.085-.476.108-.129.305-.176.44-.178a114.7 114.7 0 011.76-.004H6.89c.344 0 .477.193.528.357zM4.929 4.401h-.937a.576.576 0 00-.426.16.468.468 0 00-.128.347c.008.29.225.478.552.48h-.215 1.43c.337-.002.564-.199.564-.493 0-.15-.06-.282-.17-.37a.615.615 0 00-.392-.124h-.278zm7.246 1.866h-.003c-.374 0-.473-.23-.498-.33-.035-.138-.022-.347.089-.476.107-.128.303-.175.438-.177l.344-.005h.948v.2-.2h2.272c.298 0 .507.164.545.425a.471.471 0 01-.108.38.56.56 0 01-.43.183h-3.597zm.022 1.759h3.571c.098 0 .352-.007.49-.253a.466.466 0 00.008-.474c-.095-.162-.283-.26-.504-.26h-3.56a.574.574 0 00-.427.159.463.463 0 00-.13.346c.009.288.23.482.552.482zm2.852.772h.001l.743.001c.153 0 .291.054.386.151.09.091.138.215.137.349-.003.273-.211.473-.504.485a1.202 1.202 0 01-.08.001h-3.19l-.337-.002h-.001c-.112-.001-.28-.003-.376-.123-.072-.09-.191-.269-.174-.453.025-.253.224-.409.521-.409h.4l.397.001 1.329-.001h.748zm-2.834 2.741c.222.004.122.006.066.007-.043 0-.06.001.109.001h3.296l.054-.001c.027 0 .055 0 .083-.002.292-.012.5-.21.507-.482a.479.479 0 00-.134-.349.53.53 0 00-.386-.153c-.583-.002-1.164-.002-1.745-.002H12.49l-.297.001a.55.55 0 00-.503.286.436.436 0 00.046.463.657.657 0 00.478.231zm.278 1.765c-.017 0-.044-.002-.298-.005-.146 0-.34-.06-.441-.19-.1-.126-.138-.377-.043-.527a.604.604 0 01.454-.257c.282-.006.23-.008.23-.009h.235l1.47.002h.333c.444 0 .888 0 1.332-.002h.003c.363 0 .487.224.529.358a.463.463 0 01-.066.415.556.556 0 01-.455.214l-2.415.001h-.282a88.36 88.36 0 01-.586 0z"/></symbol><symbol viewBox="0 0 18 18" id="menu-service11" xmlns="http://www.w3.org/2000/svg"><path fill-rule="evenodd" clip-rule="evenodd" d="M5.55 17.007h6.914V10.69H5.55v6.317zM9.505 3.348V.982h2.24c.077.003.075 0 .087.04.182.577.368 1.151.554 1.726l.19.6H9.505zM.98 4.353h3.3c-.005.12-.008.24-.01.36-.009.339-.015.659-.078.97-.154.77-.922 1.318-1.695 1.243C1.631 6.832.994 6.152.982 5.309a33.041 33.041 0 010-.704v-.252zM2.81.988C3.475.981 4.14.982 4.815.982h.346a.296.296 0 01-.012.045l-.724 2.238c-.031.095-.04.101-.1.101a243.11 243.11 0 00-1.707-.005H1.352l.01-.017.11-.188c.41-.696.82-1.393 1.235-2.087.024-.04.082-.08.103-.08zm5.615 4.828c-.246.717-1 1.202-1.7 1.104-.845-.118-1.441-.742-1.481-1.553a11.64 11.64 0 01-.006-.75c.002-.088.003-.177.003-.266h3.274c-.002.138.002.277.006.411.01.367.02.714-.096 1.054zm4.36-1.102c-.007.343-.015.667-.08.983-.153.76-.91 1.307-1.687 1.23-.86-.09-1.484-.739-1.52-1.578-.01-.243-.006-.484-.004-.739l.002-.259h3.3l-.01.363zm3.84-1.351h-.793c-.693-.001-1.39-.001-2.086.004h-.005c-.101 0-.127-.02-.157-.12-.166-.528-.338-1.055-.51-1.582l-.194-.601a1.55 1.55 0 01-.025-.081h.348c.68 0 1.343-.001 2.005.003.021 0 .063.022.072.035.463.778.92 1.559 1.38 2.34-.012.002-.023.002-.035.002zM5.43 3.348l.095-.293c.222-.686.44-1.358.663-2.028.005-.012.03-.037.033-.04.674-.005 1.347 0 2.02.002l.268.002v2.357h-3.08zm-.87 6.364v7.298H1.796V7.778c1.18.33 2.174.006 2.956-.96.562.72 1.277 1.086 2.125 1.086h.002c.86 0 1.558-.358 2.128-1.09.563.723 1.278 1.09 2.127 1.09.855 0 1.57-.366 2.127-1.088.78.964 1.773 1.286 2.959.963v9.23h-2.754V9.711H4.56zm9.198-4.35a8.838 8.838 0 01-.007-.748c0-.086.003-.172.003-.259h3.255l.008.317c.01.295.02.574-.017.847a1.613 1.613 0 01-1.592 1.412h-.066c-.863-.036-1.529-.696-1.585-1.569zm4.135-1.846c-.214-.365-.43-.73-.646-1.095A365.03 365.03 0 0116.024.339a.623.623 0 00-.6-.339c-.406.007-.811.005-1.217.004h-2.884C8.41.003 5.499.003 2.587 0h-.002c-.276 0-.46.105-.596.34-.297.513-.6 1.025-.9 1.536C.772 2.414.456 2.95.144 3.49a1.117 1.117 0 00-.134.496C-.004 4.34 0 4.701.003 5.05l.002.234A2.66 2.66 0 00.699 7.07a.379.379 0 01.088.222c.005 2.92.005 5.838.005 8.758v1.347c0 .428.177.603.609.603h15.254c.33 0 .529-.158.563-.44.007-.062.006-.124.005-.186l-.001-1.397c0-2.903 0-5.806.005-8.708 0-.058.033-.138.077-.187.409-.46.626-.909.66-1.373.038-.502.037-1.014.035-1.508v-.408c0-.096-.053-.187-.106-.277z"/></symbol><symbol viewBox="0 0 19 18" id="menu-service12" xmlns="http://www.w3.org/2000/svg"><path fill-rule="evenodd" clip-rule="evenodd" d="M2.914 5.199h12.17a2.493 2.493 0 00-.034-.18c-.26-1.162-.928-2.105-1.982-2.804C10.868.756 8.472.56 5.947 1.634c-1.43.606-2.4 1.602-2.88 2.962a4.375 4.375 0 00-.146.569 2.133 2.133 0 01-.007.034zm10.29 6.605c-.387.002-.775.003-1.162.002H9.54v4.647h.741c.158 0 .315 0 .472.002.235 0 .37.084.444.154.093.09.142.211.137.35-.006.23-.162.474-.582.475l-3.49.001c-.434 0-.593-.25-.598-.482a.448.448 0 01.14-.343c.11-.103.266-.156.467-.156l1.188-.001v-4.648h-.006l-3.515.002c-.095 0-.19 0-.28-.014-.246-.041-.41-.219-.418-.453-.01-.245.143-.433.398-.488.074-.016.146-.016.208-.017H8.46l-.022-4.648-1.977.001H2.508c-.19 0-.404-.012-.545-.149-.14-.134-.144-.327-.137-.497.05-1.225.582-2.355 1.579-3.36C4.532 1.05 5.975.349 7.697.103c1.969-.284 3.774.028 5.362.925 1.664.936 2.686 2.239 3.04 3.871.049.221.06.446.073.664v.007c.013.223-.032.365-.135.466-.139.137-.339.152-.476.152l-1.675.001H9.544v4.647h3.665c.324.011.552.21.553.483a.453.453 0 01-.164.357.621.621 0 01-.394.129zM8.386 1.544a.576.576 0 01.534 0c.164.09.26.26.265.465l.002.08-.055.061v.001a.695.695 0 01-.244.243c-.978.503-1.96.999-2.944 1.494a.63.63 0 01-.284.07.514.514 0 01-.454-.263c-.144-.252-.045-.522.245-.67.508-.26 1.017-.517 1.526-.774l.27-.136.414-.21c.24-.122.481-.244.725-.361zm4.779 13.777h3.77v-1.245h-3.77v1.245zm4.834-5.664a.508.508 0 00-.16-.378.551.551 0 00-.372-.133.507.507 0 00-.521.49 2.123 2.123 0 00-.001.154l-.001 3.29h-4.227c-.532 0-.613.333-.613.531a921.398 921.398 0 000 3.863c0 .296.224.522.52.525h.009a.52.52 0 00.355-.132.536.536 0 00.167-.402l.002-1.15h3.787v1.012a1.27 1.27 0 00.016.263c.048.246.246.402.516.408h.008a.508.508 0 00.513-.45c.004-.044.004-.087.003-.164v-6.726l.001-.2c0-.266 0-.534-.002-.801zM4.836 15.319h-3.77v-1.246h3.77v1.246zm-3.781-2.238H5.28c.408 0 .617.19.617.563.002 1.265.002 2.53 0 3.795 0 .324-.214.555-.521.56a.478.478 0 01-.36-.128c-.077-.07-.17-.205-.17-.443l-.002-.195c-.001-.31-.002-.619.002-.928a825.18 825.18 0 01-3.791-.001c.003.33.002.633 0 .936l-.001.195c-.001.33-.207.556-.513.565H.524a.509.509 0 01-.35-.129.57.57 0 01-.174-.438V9.704c0-.334.202-.553.515-.56a.51.51 0 01.37.13.575.575 0 01.17.437v3.37z"/></symbol><symbol viewBox="0 0 18 15" id="menu-service13" xmlns="http://www.w3.org/2000/svg"><path fill-rule="evenodd" clip-rule="evenodd" d="M16.135 13.975H1.75V11.49h4.085c.411-.002.58-.178.581-.61v-.296c.001-.266.002-.532-.001-.816.998-.2 1.995-.404 2.991-.608l1.63-.33c.312-.065.448-.23.452-.556.003-.302.004-.605.001-.919l3.453-.7v4.097l-6.203.001c-.56 0-.623.348-.625.5 0 .17.069.277.127.338.107.112.269.166.493.166h7.401v2.218zM3.101 3.195h.252l.244 7.283h-.74L3.1 3.195zm5.42-2.2h.246l.112 1.778c.023.382.045 1.437.068 2.527.026 1.212.053 2.467.081 2.891v.02l.001.012h-.012a9.533 9.533 0 00-.707.136l-.028.006.238-7.37zm8.96 12.999l-.368-.001v-2.654c0-.389-.182-.58-.555-.586h-.067a13.964 13.964 0 00-.579 0c.004-.27.003-.54.003-.809v-.162l-.002-1.273v-.291c0-.68 0-1.361.005-2.041.001-.156-.016-.378-.178-.518-.12-.102-.284-.13-.498-.087l-4.23.867c-.358.074-.485.236-.486.622v.85l-.547.111-.004-.06-.006-.09c-.015-.213-.03-.423-.042-.633L9.708.499C9.696.287 9.596.134 9.444.054a.152.152 0 00.043-.031A.236.236 0 019.514 0H7.757c.045.014.09.023.135.024-.186.07-.297.238-.31.485l-.063 1.112c-.038.679-.076 2.171-.113 3.63a177.828 177.828 0 01-.1 3.285c-.002.042-.005.056-.032.043a34.99 34.99 0 00-.912.181l-.479.098c-.278.055-.435.255-.429.547.003.105.003.21.002.314v.757h-.893a6.498 6.498 0 01-.017-.235L4.29 2.693a.619.619 0 00-.083-.276c.005-.002.007-.005.01-.008a.074.074 0 01.006-.006H2.261a.575.575 0 00-.099.289l-.253 7.475a7.185 7.185 0 01-.024.322h-.52c-.41.001-.586.183-.586.609v2.895H.714l-.183.001c-.382.007-.525.255-.532.484a.49.49 0 00.123.356.54.54 0 00.41.162c.134.003.27.004.404.004h.181l15.776-.001h.163c.15.001.3.002.45-.004a.52.52 0 00.395-.191.497.497 0 00.09-.394c-.044-.262-.23-.413-.51-.416zm-4.808-3.838c.182 0 .337-.202.369-.346a1.25 1.25 0 00.015-.313v-.004l-.003-.099.003-.099V9.29a1.216 1.216 0 00-.015-.312c-.031-.143-.177-.351-.361-.353h-.004c-.16 0-.376.167-.392.361a5.287 5.287 0 00-.002.806c.015.192.23.364.39.364zm1.275 0c-.18-.006-.326-.211-.356-.35a1.283 1.283 0 01-.015-.317l.003-.1-.002-.101a1.171 1.171 0 01.015-.314.474.474 0 01.165-.248l.147-.17.202.116a.409.409 0 00.042.032l.004.003h.001c.073.055.183.138.194.285.02.263.02.534 0 .804-.013.176-.214.36-.389.36h-.011z"/></symbol><symbol viewBox="0 0 18 18" id="menu-service14" xmlns="http://www.w3.org/2000/svg"><path fill-rule="evenodd" clip-rule="evenodd" d="M17.594 3.21c-.449-.165-.896-.335-1.342-.505L9.374.093c-.178-.068-.381-.144-.64-.046C6.956.726 5.176 1.4 3.396 2.077l-.927.352-2.051.778C.09 3.33 0 3.462 0 3.814v14.16h.983V15.8c0-3.9 0-7.798-.003-11.697 0-.051.004-.065.041-.08 1.019-.383 2.036-.769 3.054-1.154l.885-.335 3.937-1.49a.353.353 0 01.206 0c1.353.51 2.705 1.023 4.058 1.536l1.096.415 2.686 1.015c.057.022.068.035.068.035s.009.015.009.077c-.005 3.878-.005 7.756-.005 11.634v2.225h.983v-2.103c-.001-4.028-.001-8.055.002-12.083.001-.293-.132-.484-.406-.585zm-3.52 3.219h-.007v1.006h.006v.168h-.006v1.174H3.921v-.168h.006V6.262h10.146v.167zm.988 2.363V5.85c0-.398-.187-.583-.585-.583H3.514c-.397 0-.582.187-.582.586v2.934l-.573.007v.984h.578v8.209h.983V9.784h10.164v8.19h.982V9.769h.574v-.977h-.578zm-5.868 2.166v.564h-.983v-.567H7.45v2.516h2.514v-2.513h-.769zm2.639 3.519v.564h-.983v-.56h-.76v2.514h2.517v-2.518h-.774zm-4.695.003v.558h-.984v-.565h-.756v2.518H7.91V14.48h-.77zm3.824-.997h2.053c.397 0 .582.187.583.585v3.32c0 .413-.18.598-.589.599l-3.336-.001c-.388 0-.577-.187-.577-.573v-2.94h-.192v2.928c0 .399-.186.585-.582.586H4.985c-.398-.001-.583-.187-.583-.587v-3.337c0-.395.188-.58.588-.58l1.465-.013v-2.916c0-.41.184-.592.595-.592l3.32-.001c.406 0 .587.186.588.599l.004 2.923z"/></symbol><symbol viewBox="0 0 14 18" id="menu-service2" xmlns="http://www.w3.org/2000/svg"><path fill-rule="evenodd" clip-rule="evenodd" d="M.965 5.9V2.237c0-.636.353-1.108.92-1.23.09-.02.184-.023.275-.023h9.7c.693 0 1.178.501 1.179 1.217V9l-.001 1.27-.002.634c-.002 1.581-.005 3.216.011 4.824.003.363-.127.695-.366.936a1.23 1.23 0 01-.881.36h-.009a762.11 762.11 0 00-9.579 0h-.008c-.337 0-.648-.126-.879-.356a1.285 1.285 0 01-.368-.922c.01-3.282.01-6.618.008-9.845zM11.85.002C9.156-.001 6.462 0 3.767 0H2.151a2.18 2.18 0 00-.37.025C.718.219.003 1.093 0 2.202v13.576C.004 17.065.914 18 2.169 18H9.415l2.417-.001c1.256 0 2.167-.933 2.167-2.219V2.204C14 .949 13.076.002 11.85.002zm-.634 8.715H8.954c-.301.001-.512.195-.513.472a.46.46 0 00.145.344.538.538 0 00.367.133l1.128.001h1.133a.522.522 0 00.377-.15.458.458 0 00.128-.336c-.006-.272-.213-.463-.503-.464zm-2.252 5.735c.756-.002 1.51-.003 2.261 0 .25 0 .43.142.48.377a.456.456 0 01-.257.527.63.63 0 01-.244.044c-.177.002-.352.002-.528.002H9.407L8.96 15.4c-.31-.001-.514-.183-.519-.464a.452.452 0 01.127-.334.548.548 0 01.396-.151zm-4.25-.305l-.15-.149.142-.14c.146-.145.284-.282.417-.425a.655.655 0 00.158-.282.457.457 0 00-.232-.505.435.435 0 00-.54.08c-.13.129-.257.262-.39.402l-.06.063-.143.151-.062-.07a8.863 8.863 0 00-.196-.217l-.018-.019a6.155 6.155 0 00-.3-.306.48.48 0 00-.464-.12.467.467 0 00-.317.34c-.044.173.006.334.148.478l.449.461.108.111-.114.115c-.152.154-.297.301-.44.45-.21.22-.221.51-.026.704a.44.44 0 00.313.133H3a.537.537 0 00.376-.175c.127-.13.252-.261.382-.399l.03-.032.13-.137.13.137c.145.153.28.296.422.434.08.078.182.136.279.16.2.05.396-.049.494-.242a.482.482 0 00-.094-.564 25.476 25.476 0 00-.435-.437zm4.23-1.559c.76-.003 1.52-.003 2.279 0 .283.001.497.206.497.476.001.272-.208.471-.496.473-.205.002-.41.001-.614.001H9.555l-.174.001c-.145 0-.29 0-.435-.002-.295-.002-.498-.187-.504-.46a.465.465 0 01.128-.34.518.518 0 01.375-.149zm-3.896-3.87l-.249-.001h-.412v-.185c.002-.177.003-.348-.001-.519-.006-.289-.187-.489-.451-.497h-.017a.45.45 0 00-.315.121.488.488 0 00-.145.35c-.005.18-.004.36-.003.545v.184h-.15c-.174 0-.34-.002-.505.002a.648.648 0 00-.258.05.463.463 0 00-.252.512c.047.232.221.38.455.385.114.003.227.003.342.002h.368v.445c-.001.093-.002.187.002.28a.502.502 0 00.18.38c.08.063.177.095.28.095a.584.584 0 00.093-.008c.228-.044.372-.238.376-.506.002-.14.002-.28.002-.422v-.264h.657c.3-.003.512-.198.513-.474 0-.278-.21-.474-.51-.476zm5.697-3.575c.014-.014.02-.052.019-.113a24.611 24.611 0 01-.005-.858V3.59H3.243v.225c0 .442 0 .873.006 1.304a.168.168 0 00.07.038c.158.004.316.004.475.004h2.68c1.387 0 2.773 0 4.16.004h.003c.057 0 .093-.007.107-.021zm-3.748 1H3.093c-.524 0-.813-.294-.814-.828-.001-.632-.002-1.265 0-1.897.001-.529.285-.82.798-.82h7.83c.532 0 .813.29.813.84.002.62.002 1.24 0 1.861 0 .552-.282.843-.815.843l-3.904.001h-.004z"/></symbol><symbol viewBox="0 0 18 18" id="menu-service3" xmlns="http://www.w3.org/2000/svg"><path fill-rule="evenodd" clip-rule="evenodd" d="M11.098 16.61c-.06.142-.175.33-.479.33-.006 0-.012 0-.019-.002-.375-.007-.748-.005-1.131-.005l-.69.002v-3.07H7.7v3.055H1.08V9.558h6.606v1.506H8.76V6.937H7.703v1.51H1.081V1.083h6.606v3.06h1.074V1.078h8.157v7.38H11.55V9.53h5.37v7.39h-1.98v-3.065l-.12.015c-.256.03-.497.059-.725.119-1.417.375-2.426 1.256-2.998 2.62zm2.473-1.19l.288-.074V18H18V0H0v18h11.865c.258-1.358.932-2.384 1.706-2.58z"/></symbol><symbol viewBox="0 0 18 18" id="menu-service4" xmlns="http://www.w3.org/2000/svg"><g clip-path="url(#lclip0)"><path fill-rule="evenodd" clip-rule="evenodd" d="M5.631 11.113h1.082c.506 0 .694.17.695.628v1.152c-.002.897-.003 1.79.003 2.687.005.627.311 1.074.886 1.294.253.096.508.143.754.143.308 0 .6-.075.851-.227.445-.271.701-.749.701-1.312l.001-3.773v-.003c0-.402.205-.589.648-.589h.7c.47.003.936.003 1.403-.003.876-.011 1.463-.499 1.532-1.274.017-.178.014-.352.01-.536v-.029a7.213 7.213 0 01-.005-.258v-.15H3.113v.755c.003.944.6 1.489 1.631 1.494.296.002.592.001.887.001zM8.943 18C7.6 17.976 6.32 16.793 6.31 15.566c-.006-.67-.005-1.338-.003-2.007l.001-1.441h-.165a58.542 58.542 0 01-.832-.005c-.157 0-.314.002-.47.008-1.333.048-2.659-.98-2.803-2.207-.055-.486-.037-.993-.019-1.483v-.007l.006-.164c.007-.218.2-.364.571-.433l.132-.024V.6c0-.415.204-.6.661-.6l11.188.001c.522 0 .707.166.707.637l.002 1.426v.001c0 1.424 0 2.847-.003 4.272a.545.545 0 01-.284.492.567.567 0 01-.532-.007c-.195-.1-.286-.258-.285-.498.003-.875.003-1.751.002-2.627v-2.68H12.42l.001.919v1.116c0 .335-.219.563-.54.567a.569.569 0 01-.383-.132.571.571 0 01-.178-.436V1.016H9.555l.001.854c.002.203.003.407-.003.61-.008.27-.247.484-.543.486h-.004c-.303 0-.543-.216-.548-.492-.006-.298-.005-.598-.004-.902V1.57l.001-.548H6.693v3.323c-.002.352-.216.581-.548.582h-.004a.536.536 0 01-.37-.131c-.116-.105-.18-.269-.18-.463V1.021H3.842v6.823l11.443-.001c.271 0 .455.048.561.146.105.097.155.263.152.506l.001.414v.018c.002.364.004.74-.049 1.098-.167 1.13-1.39 2.089-2.67 2.092h-1.576v3.406c0 .625-.31 1.26-.848 1.74a2.844 2.844 0 01-1.87.737l-.043-.001zm.068-2.965h.005c.3.003.541.228.54.502a.48.48 0 01-.164.357.571.571 0 01-.387.145h-.007c-.299-.004-.542-.23-.541-.502 0-.135.059-.262.163-.356a.58.58 0 01.391-.146z"/></g><defs><clipPath id="lclip0"><path transform="translate(2)" d="M0 0h14v18H0z"/></clipPath></defs></symbol><symbol viewBox="0 0 18 18" id="menu-service5" xmlns="http://www.w3.org/2000/svg"><g clip-path="url(#mclip0)"><path fill-rule="evenodd" clip-rule="evenodd" d="M16.154 15.158h.84v-1.953h-.84v1.953zM4.812 5.842c0 2.18 0 4.364-.002 6.544 0 .07-.02.12-.03.13-.613.622-1.232 1.24-1.87 1.878l-.062.063V5.806H4.81v.036zm5.552 8.224v1.084H9.12v-1.08H7.773v1.087h-1.23v-1.089H5.188v1.084H3.55l.323-.323c.52-.524 1.042-1.045 1.568-1.565a.258.258 0 01.149-.069c1.923-.006 3.844-.007 5.769-.005h.824l.012 1.962h-.483v-1.086h-1.35zm1.062-8.263l-5.621 5.625V5.803h5.62zm.772.764v5.629H6.574l5.624-5.629zm2.954-3.024v13.463H13.19a1.048 1.048 0 01-.002-.056c0-3.779 0-7.558.003-11.336 0-.062.02-.125.04-.144.562-.571 1.128-1.137 1.695-1.704l.226-.223zM11.25 4.809h-.272V3.711H9.624v1.083H8.386V3.708h-1.35v1.089h-1.23V3.711H4.452v1.083H3.214V3.709h-1.35v1.088H.998V2.846H14.45l-.18.18c-.568.571-1.14 1.142-1.711 1.707a.282.282 0 01-.171.071c-.378.007-.753.007-1.138.005zM2.855 1.846H4.8v-.85H2.855v.85zm14.01 10.361h-.72v-1.352c0-2.747 0-5.495.004-8.243 0-.03.026-.091.067-.132.313-.319.628-.635.945-.951l.504-.505c.076-.076.153-.152.22-.235.139-.171.154-.378.036-.529-.086-.111-.242-.241-.396-.245h-.01c-.162 0-.33.106-.424.197a83.538 83.538 0 00-1.546 1.544.287.287 0 01-.235.096c-2.798-.003-5.595-.003-8.393-.003h-1.05l-.07-.002V.642C5.796.162 5.637 0 5.165 0H2.467c-.432 0-.61.176-.61.607V1.85l-.343-.001c-.33 0-.651-.001-.97.001-.338.003-.533.197-.534.533-.002.956-.002 1.912 0 2.868 0 .345.195.538.545.541l.603.001.699-.001v1.351c0 2.747 0 5.495-.004 8.243a.23.23 0 01-.068.132c-.34.348-.682.691-1.026 1.033l-.396.397a3.883 3.883 0 00-.235.245c-.148.173-.17.375-.055.527.085.115.24.251.398.263.163.001.339-.1.44-.197A99.917 99.917 0 002.47 16.23a.242.242 0 01.199-.082c3.157.002 6.31.002 9.463.002l.07.002.003 1.28c.003.374.19.566.558.567l1.414.001 1.412-.001c.363-.001.554-.193.555-.551V16.15h.305c.342 0 .675.001 1.009-.001.338-.003.533-.197.534-.534.002-.955.002-1.911 0-2.867-.001-.345-.195-.538-.546-.541a18.69 18.69 0 00-.58 0z"/></g><defs><clipPath id="mclip0"><path d="M0 0h18v18H0z"/></clipPath></defs></symbol><symbol viewBox="0 0 18 18" id="menu-service6" xmlns="http://www.w3.org/2000/svg"><path fill-rule="evenodd" clip-rule="evenodd" d="M13.85 11.988c0 .3.001.601-.006.9-.003.124-.149.2-.194.22a1.455 1.455 0 01-.182.067 1.428 1.428 0 00-.11.038c-1.139.445-1.648 1.442-1.327 2.6.061.218.006.363-.18.468-.264.15-.523.305-.782.461a.393.393 0 01-.195.06c-.09 0-.178-.043-.263-.13-.388-.4-.837-.637-1.333-.705-.68-.098-1.29.124-1.86.674-.13.126-.296.234-.538.082a20.411 20.411 0 00-.748-.43c-.182-.102-.236-.242-.175-.453.191-.672.114-1.287-.232-1.827-.29-.45-.717-.744-1.307-.896-.086-.023-.286-.075-.282-.332.004-.248.004-.496.002-.749v-.45h2.484l-.03.15c-.229 1.131.151 2.026 1.13 2.663.83.541 1.708.543 2.54.01.988-.636 1.373-1.535 1.145-2.674l-.03-.15h2.472v.403zm-3.583 1.104a1.398 1.398 0 01-1.132.66l-.104.002a2.49 2.49 0 01-.45-.043c-.489-.096-.816-.394-.947-.86a1.65 1.65 0 01.017-1.022c.064-.176.177-.258.357-.258h.021c.231.01.462.007.692.005l.544-.002c.245-.004.491-.004.736.007a.41.41 0 01.32.204c.205.423.184.912-.054 1.307zM1.84 10.525l.23-.255c.03-.033.056-.063.085-.09.135-.12.196-.267.199-.477V9.2c-.002-.484-.003-.984.046-1.475.174-1.73.98-3.187 2.399-4.33l.16-.128.1.419c.036.15.07.293.102.436l.7 3.113c.08.35.332.54.635.476a.498.498 0 00.323-.211c.083-.128.104-.298.06-.49l-.11-.498c-.336-1.498-.671-2.996-1.015-4.493-.051-.224.02-.355.239-.44 1.995-.765 4.017-.766 6.01.002.22.085.29.212.239.438-.314 1.369-.622 2.74-.93 4.11l-.206.919c-.072.324.09.597.393.663.286.06.557-.126.627-.437l.82-3.64a.776.776 0 01.03-.102l.074-.248.15.118c1.055.835 1.756 1.843 2.146 3.08.194.614.295 1.265.299 1.935l.002.255c.003.273.006.556-.006.836-.016.337.037.587.339.785l.356.232H1.84zM14.2 14.07c.41 0 .573-.155.615-.573.04-.405.072-.809.105-1.225l.056-.697h1.013c.48-.002.96-.002 1.438 0h.003c.261 0 .433-.105.523-.32.092-.218.044-.41-.145-.594a19.048 19.048 0 01-.405-.399 3.522 3.522 0 00-.21-.19c-.183-.156-.37-.317-.46-.534-.089-.213-.072-.456-.055-.69.007-.098.014-.195.013-.29-.03-2.445-1.014-4.463-2.924-5.998-.343-.275-.522-.542-.356-1.023.083-.24-.029-.467-.292-.589C10.497-.267 7.832-.315 5.192.808c-.677.288-.708.347-.539 1.053.055.228.003.372-.189.511-1.51 1.105-2.508 2.606-2.967 4.46-.194.785-.196 1.604-.197 2.395v.11a.588.588 0 01-.159.378c-.276.287-.562.565-.848.843l-.102.1c-.188.184-.236.373-.15.598.102.262.352.318.545.318l2.547.001-.023.146c-.094.601-.025 1.164.068 1.786.066.434.244.585.67.561.033-.002.067-.003.101-.003.412 0 .708.166.902.505.27.473.268.874-.007 1.263-.23.326-.209.538.086.811a6.081 6.081 0 002.251 1.303c.376.123.588.037.76-.314.214-.437.568-.66 1.052-.662h.003c.492 0 .85.225 1.065.67.165.344.376.427.764.303.776-.254 1.498-.67 2.206-1.274.331-.282.36-.495.116-.849-.259-.375-.272-.77-.039-1.17.223-.387.556-.583.988-.583l.105.002z"/></symbol><symbol viewBox="0 0 18 18" id="menu-service7" xmlns="http://www.w3.org/2000/svg"><path fill-rule="evenodd" clip-rule="evenodd" d="M7.385 16.241H4.703V2.455h2.682v13.786zm6.667-6.64c0-2.406 0-4.813.002-7.22a.159.159 0 00-.003-.039l-.009-.001-.045-.012c-1.166-.254-2.332-.51-3.498-.768l-1.187-.26a94.39 94.39 0 00-.743-.162l-.163-.035v15.842l5.645-.644v-3.091l.001-3.61zm2.624 6.65c.264-.001.53 0 .796.002.3.002.523.205.528.484a.475.475 0 01-.133.344.551.551 0 01-.401.157c-.174 0-.348.002-.522.004-.438.004-.892.006-1.338-.007-.79-.028-1.578.064-2.346.154l-.029.004-1.469.168c-.77.088-1.539.176-2.308.266-.311.036-.621.076-.931.116l-.44.056H7.79l-.049-.01c-.343-.147-.345-.44-.346-.674l-.001-.076H4.689c-1.35 0-2.698-.001-4.047.004H.635c-.197 0-.472-.038-.623-.356L0 16.833l.011-.226c.146-.317.418-.36.615-.36h.016c.732.008 1.466.007 2.198.006l.868-.001-.001-14.8h3.691V.607c.001-.244.06-.411.184-.51.125-.1.308-.121.556-.067.946.21 1.893.418 2.84.625l.781.172 3.283.718v14.708h1.634zM9.408 8.87c.26-.01.512-.01.752 0 .272.01.482.218.49.483.006.27-.204.487-.489.505a1.765 1.765 0 01-.26.003l-.11-.001h-.116a3.52 3.52 0 01-.272-.001c-.284-.02-.493-.237-.485-.508a.489.489 0 01.49-.481z"/></symbol><symbol viewBox="0 0 18 18" id="menu-service8" xmlns="http://www.w3.org/2000/svg"><path fill-rule="evenodd" clip-rule="evenodd" d="M15.852 16.278v-1.644c0-2.557 0-5.113.004-7.67 0-.19-.06-.315-.208-.434a1717.002 1717.002 0 01-4-3.24l-1.078-.875c-.224-.183-.45-.364-.674-.546l-.445-.36L9 1.144l-.08.058a1.53 1.53 0 00-.083.062l-1.001.812a5772.807 5772.807 0 01-5.563 4.508.35.35 0 00-.14.306c.002 2.61.002 5.223.002 7.834v1.567c0 .46.246.705.712.705 1.286 0 2.573.002 3.858 0H7.93V9.079h5.527v7.919h1.679c.468-.001.716-.25.716-.72zm-3.415.708h-3.5v-6.91h3.5v6.91zM17.788 6.87c.12.096.193.226.208.368a.493.493 0 01-.115.369c-.184.223-.49.248-.732.057l-.294-.23v.338l-.001 9.062c0 .731-.437 1.166-1.171 1.166H2.301c-.731 0-1.167-.436-1.168-1.168V7.43l-.187.15a3.798 3.798 0 01-.137.109.523.523 0 01-.401.096.517.517 0 01-.341-.232l-.043-.062-.011-.016L0 7.457v-.344l.076-.09c.062-.076.121-.147.191-.203C2.618 4.934 4.97 3.051 7.325 1.17A88.564 88.564 0 018.548.213c.092-.07.183-.141.274-.213h.348l.055.035.018.012c.043.026.085.053.123.084l1.273 1.019 1.273 1.018 3.626 2.902 2.251 1.8zM5.652 11.32H4.41v-1.243h1.242v1.243zm1 1.002H3.407V9.075h3.247v3.247z"/></symbol><symbol viewBox="0 0 18 18" id="menu-service9" xmlns="http://www.w3.org/2000/svg"><path fill-rule="evenodd" clip-rule="evenodd" d="M10.952 11.451l-3.917.002c-.45 0-.595.147-.595.602v4.96H.976v-3.75c0-2.77 0-5.538-.003-8.308 0-.108.024-.152.113-.208C3.013 3.518 4.937 2.283 6.86 1.044c.082-.055.125-.056.212-.012 3.279 1.68 6.56 3.355 9.843 5.027.09.046.112.083.112.192-.003 2.744-.003 5.487-.003 8.23v2.47l-.002.063h-5.461v-4.955c0-.46-.148-.607-.609-.607zM7.414 17.01h3.173v-4.575H7.414v4.575zM17.601 5.353a20.69 20.69 0 01-.73-.365 27.21 27.21 0 00-.565-.286c-.076-.038-.093-.065-.092-.148.006-.414.005-.828.004-1.241v-.726h-.968V4.16a1.358 1.358 0 01-.054-.027l-1.419-.721-.388-.198c-2.045-1.04-4.09-2.079-6.132-3.123-.254-.131-.466-.12-.708.034A938.334 938.334 0 01.373 4.057C.108 4.225 0 4.422 0 4.734.005 8.21.005 11.685.005 15.16v2.196c0 .492.148.643.634.643h16.75c.454 0 .607-.155.607-.613v-6.15c0-1.743 0-3.486.003-5.228.001-.324-.121-.526-.398-.656zM15.25 8.568a.756.756 0 00-.01.086h-4.838V5.906l.012.006 1.187.604.16.082c1.097.558 2.195 1.118 3.296 1.67.178.09.22.156.193.3zm.377 1.056c.386 0 .584-.194.589-.576a14.01 14.01 0 000-.41c0-.171 0-.342.004-.512.006-.267-.111-.455-.354-.575-.326-.16-.647-.323-.97-.487l-.152-.078-4.576-2.326c-.177-.09-.36-.092-.503-.007-.144.086-.231.249-.238.448a.888.888 0 000 .075L9.426 9.05c0 .413.159.574.568.574h5.633zm-8.014-.971V7.637l-.001-2.613c0-.06.004-.122.009-.184.01-.141.02-.285-.03-.37-.04-.066-.157-.114-.27-.16a1.66 1.66 0 01-.204-.093c-.058-.033-.088-.033-.148.006-1.381.889-2.765 1.774-4.151 2.657-.053.033-.066.058-.065.125.002.346.002.694.002 1.04v.56c0 .016 0 .032.003.048h4.855zm-.294-5.406c.295.17.608.326.91.476.238.119.348.296.348.548-.002 1.039-.002 2.077-.002 3.116l-.001 1.699c0 .352-.186.538-.541.538H2.347c-.4 0-.562-.164-.563-.565l-.001-.97c0-.452 0-.905-.002-1.358 0-.232.09-.392.294-.522 1.477-.94 3.012-1.926 4.56-2.93.243-.155.455-.164.684-.032z"/></symbol><symbol viewBox="0 0 6 4" id="nav-arrow" xmlns="http://www.w3.org/2000/svg"><path d="M5.889.424a.36.36 0 00-.264-.111H.375a.36.36 0 00-.264.11A.36.36 0 000 .689c0 .1.037.188.111.261l2.625 2.625A.36.36 0 003 3.688a.36.36 0 00.264-.112L5.889.951A.36.36 0 006 .688a.361.361 0 00-.111-.264z"/></symbol><symbol viewBox="0 0 14 14" id="phone" xmlns="http://www.w3.org/2000/svg"><path d="M5.798 8.203C4.462 6.867 4.16 5.53 4.092 4.995a.48.48 0 01.138-.402l1.081-1.08a.483.483 0 00.068-.598L3.657.241a.483.483 0 00-.625-.176L.268 1.367a.48.48 0 00-.265.48C.147 3.223.747 6.605 4.07 9.929c3.324 3.324 6.706 3.924 8.082 4.068.2.02.391-.085.48-.265l1.301-2.764a.483.483 0 00-.175-.625l-2.673-1.72a.483.483 0 00-.598.067L9.409 9.77a.48.48 0 01-.402.138c-.535-.068-1.872-.37-3.208-1.706z"/><path d="M11.106 7.483A.483.483 0 0110.623 7a3.625 3.625 0 00-3.62-3.62.483.483 0 010-.966A4.591 4.591 0 0111.587 7a.483.483 0 01-.482.483z"/><path d="M13.52 7.483A.483.483 0 0113.037 7 6.041 6.041 0 007.002.966a.483.483 0 110-.966 7.008 7.008 0 017 7 .482.482 0 01-.482.483z"/></symbol><symbol viewBox="0 0 18 18" id="search" xmlns="http://www.w3.org/2000/svg"><path d="M7.927 0C3.557 0 0 3.556 0 7.927c0 4.37 3.556 7.927 7.927 7.927 4.37 0 7.927-3.556 7.927-7.927C15.854 3.557 12.298 0 7.927 0zm0 14.39a6.47 6.47 0 01-6.464-6.463 6.47 6.47 0 016.464-6.464 6.47 6.47 0 016.463 6.464 6.47 6.47 0 01-6.463 6.463z"/><path d="M17.784 16.75l-4.195-4.194a.731.731 0 10-1.035 1.034l4.195 4.195a.73.73 0 001.035 0 .731.731 0 000-1.034z"/></symbol><symbol viewBox="0 0 20 21" id="sidebar-arrow" xmlns="http://www.w3.org/2000/svg"><path fill-rule="evenodd" clip-rule="evenodd" d="M19.474 11.716l-8.775 8.871a1.32 1.32 0 01-1.865.052l-1.757-1.662a1.32 1.32 0 01-.052-1.865l4.363-4.192-9.156.005a1.266 1.266 0 01-1.271-1.26l.023-2.313A1.266 1.266 0 012.242 8.08l9.143-.005-4.36-4.187a1.32 1.32 0 01.052-1.865L8.834.361A1.319 1.319 0 0110.7.413l8.775 8.871c.342.323.384.46.384 1.216s-.045.893-.384 1.216z"/></symbol><symbol viewBox="0 0 23 15" id="sidebar-btn-arrow" xmlns="http://www.w3.org/2000/svg"><path fill-rule="evenodd" clip-rule="evenodd" d="M22.423 3.442L11.746 14.176a.6.6 0 01-.769 0L.301 3.442a.504.504 0 01.002-.696L2.815.143A.462.462 0 013.15 0a.46.46 0 01.333.146l7.88 7.92 7.88-7.92a.462.462 0 01.33-.146c.125 0 .245.051.334.143l2.512 2.603a.504.504 0 01.003.696z"/></symbol><symbol viewBox="0 0 23 23" id="sidebar-menu-btn" xmlns="http://www.w3.org/2000/svg"><path fill-rule="evenodd" clip-rule="evenodd" d="M11.014 22v-3h11.125v3H11.014zm0-9h8.125v3h-8.125v-3zm0-7h6.125v3h-6.125V6zm0-6h4.125v3h-4.125V0zM0 17.014h3v-17h3.125v17h3L4.5 22.264 0 17.014z"/></symbol><symbol viewBox="0 0 14 14" id="timetable" xmlns="http://www.w3.org/2000/svg"><path d="M7 0C3.14 0 0 3.14 0 7s3.14 7 7 7 7-3.14 7-7-3.14-7-7-7zm3.33 10.62a.58.58 0 01-.825 0L6.587 7.705a.581.581 0 01-.17-.412V3.5a.583.583 0 011.165 0v3.55l2.746 2.745c.23.23.23.598.003.825z"/></symbol></svg>