<?xml version="1.0" encoding="utf-8"?><svg xmlns="http://www.w3.org/2000/svg" xmlns:xlink="http://www.w3.org/1999/xlink"><symbol viewBox="0 0 66 66" id="calc" xmlns="http://www.w3.org/2000/svg"><path d="M12.902.5h40.196C59.95.5 65.5 6.013 65.5 12.806v40.388c0 6.793-5.55 12.306-12.402 12.306H12.902C6.05 65.5.5 59.987.5 53.194V12.806C.5 6.013 6.05.5 12.902.5z"/><path d="M33 33h32v20c0 6.627-5.373 12-12 12H33V33z"/><path fill-rule="evenodd" clip-rule="evenodd" d="M65.999 33.01H33V66h-1V33.01H0v-.97h32V0h1v32.04h33v.97h-.001z"/><path fill-rule="evenodd" clip-rule="evenodd" d="M22.52 18.209h-4.311v4.31a.48.48 0 01-.48.481h-1.442a.48.48 0 01-.481-.48v-4.311h-4.325a.48.48 0 01-.481-.48v-1.442a.48.48 0 01.48-.481h4.326v-4.325a.48.48 0 01.48-.481h1.442a.48.48 0 01.48.48v4.326h4.311a.48.48 0 01.481.48v1.442a.48.48 0 01-.48.48z"/><path d="M53.52 16H42.48a.49.49 0 00-.48.5V18c0 .276.215.5.48.5h11.04A.49.49 0 0054 18v-1.5a.49.49 0 00-.48-.5z"/><path fill-rule="evenodd" clip-rule="evenodd" d="M21.856 45.886l-3.122 3.124 3.111 3.115a.49.49 0 010 .694l-1.04 1.042a.49.49 0 01-.694 0L17 50.746l-3.111 3.115a.49.49 0 01-.694 0l-1.04-1.042a.492.492 0 010-.694l3.11-3.114-3.121-3.126a.492.492 0 010-.694l1.04-1.041a.49.49 0 01.694 0l3.121 3.123 3.122-3.125a.49.49 0 01.694 0l1.04 1.042a.491.491 0 010 .696zM54.52 53H43.48a.471.471 0 01-.34-.146.51.51 0 01-.14-.354V51c0-.133.05-.26.14-.354a.471.471 0 01.34-.146h11.04c.127 0 .25.053.34.146A.51.51 0 0155 51v1.5a.51.51 0 01-.14.354.471.471 0 01-.34.146zm0-6.5H43.48a.471.471 0 01-.34-.146A.51.51 0 0143 46v-1.5c0-.133.05-.26.14-.354a.471.471 0 01.34-.146h11.04c.127 0 .25.053.34.146a.51.51 0 01.14.354V46a.51.51 0 01-.14.354.471.471 0 01-.34.146z"/></symbol><symbol viewBox="0 0 14 14" id="email" xmlns="http://www.w3.org/2000/svg"><path d="M7 0C3.14 0 0 3.14 0 7s3.14 7 7 7c1.23 0 2.441-.324 3.5-.937l-.875-1.515A5.256 5.256 0 011.75 7 5.256 5.256 0 017 1.75 5.256 5.256 0 0112.25 7v.762c0 .573-.368.988-.875.988a.876.876 0 01-.875-.875v-3.5H9.29A3.47 3.47 0 007 3.5C5.07 3.5 3.5 5.07 3.5 7s1.57 3.5 3.5 3.5c.919 0 1.75-.363 2.375-.945a2.609 2.609 0 002 .945C12.847 10.5 14 9.297 14 7.762V7c0-3.86-3.14-7-7-7zm0 8.75c-.965 0-1.75-.785-1.75-1.75S6.035 5.25 7 5.25 8.75 6.035 8.75 7 7.965 8.75 7 8.75z"/></symbol><symbol viewBox="0 0 50 51" id="master" xmlns="http://www.w3.org/2000/svg"><path d="M13.401 30.288v1.285a2.685 2.685 0 002.678 2.703 2.685 2.685 0 002.678-2.703v-1.285a9.62 9.62 0 01-5.356 0zm7.141-14.939l-1.049-1.42-2.276 1.837a6.235 6.235 0 01-3.905 1.374H8.045v3.606c.011 4.472 3.604 8.1 8.034 8.111a7.9 7.9 0 005.032-1.802H16.08v-1.803h6.673a8.185 8.185 0 001.36-4.506V17.14c-1.405.012-2.722-.664-3.57-1.791zm-8.034 5.408h-1.785v-1.803h1.785v1.803zm8.927 0H19.65v-1.803h1.785v1.803zm19.772.383l1.652-1.25V9.715c0-.293.145-.575.38-.744 2.432-1.7 3.023-5.08 1.338-7.526A5.11 5.11 0 0043.751.5v4.033a.906.906 0 01-.613.857l-2.678.9a.979.979 0 01-.57 0l-2.677-.9a.895.895 0 01-.614-.857V.5a5.44 5.44 0 00-.424 7.639c.279.315.591.597.937.833.235.17.38.44.38.733v6.545h.892c.447 0 .826.327.882.778l.011.067V9.941h1.785v11.143c.056.022.1.033.145.056z"/><path d="M45.994 35.516a.89.89 0 01.737-.642L50 34.389v-3.83l-3.28-.474a.888.888 0 01-.737-.642 10.62 10.62 0 00-.881-2.152.964.964 0 01.067-.98l1.986-2.67-2.69-2.715-2.644 2.005a.893.893 0 01-.97.068 10.678 10.678 0 00-2.132-.89.894.894 0 01-.636-.744l-.469-3.312h-3.793l-.47 3.312-.88-.124c-.804.237-1.585.552-2.321.97l-.57-.429a2.723 2.723 0 01-.993.631v1.95c0 1.486-1.205 2.703-2.678 2.703h-.468a11.185 11.185 0 00-.848 2.118l-3.147.462v1.679l1.785.72v-.472h1.786v1.194l2.756 1.115c.022.011.044.023.067.023a7.68 7.68 0 01-.145-1.431c0-4.484 3.593-8.112 8.034-8.112 4.44 0 8.034 3.628 8.034 8.112s-3.593 8.112-8.034 8.112a7.61 7.61 0 01-2.187-.316c.267.913.401 1.86.401 2.817v3.808h3.683l.468-3.313a.891.891 0 01.636-.743 10.417 10.417 0 002.131-.89.94.94 0 01.971.067l2.645 2.006 2.689-2.715-1.986-2.67a.941.941 0 01-.067-.98 11.21 11.21 0 00.881-2.141zm.435-3.943h1.786v1.802h-1.786v-1.802zm-9.819-9.915h-1.785v-1.802h1.785v1.802zm0 23.434h-1.785V43.29h1.785v1.803zm8.58-4.337l-1.271 1.284-1.261-1.284 1.26-1.274 1.273 1.274zm-1.27-15.289l-1.261-1.273 1.26-1.284 1.273 1.284-1.272 1.273z"/><path d="M32.147 50.5v-7.413a8.085 8.085 0 00-5.055-7.537l-6.75-2.727c-.67 2.377-3.125 3.763-5.48 3.087a4.46 4.46 0 01-3.057-3.087l-6.75 2.727A8.085 8.085 0 000 43.087V50.5h5.356v-9.914h1.785V50.5h17.853v-9.914h1.786V50.5h5.367zm-3.571-30.644v-2.704a.9.9 0 00-.892-.902h-1.786v4.507h1.786a.9.9 0 00.892-.901zM16.079 6.336c-4.43 0-8.034 3.639-8.034 8.112v.901h5.267c1.015 0 1.997-.35 2.79-.991l2.99-2.423a.906.906 0 01.67-.191.926.926 0 01.602.35l1.607 2.162a2.67 2.67 0 002.142 1.082v-.901c0-4.462-3.604-8.101-8.034-8.101zm19.639 32.447c3.447 0 6.248-2.828 6.248-6.31 0-3.48-2.8-6.308-6.248-6.308-3.448 0-6.25 2.828-6.25 6.309 0 .958.224 1.904.648 2.76a9.884 9.884 0 012.332 2.591 6.12 6.12 0 003.27.958zM3.582 17.152v2.704a.9.9 0 00.892.9H6.26V16.25H4.474a.9.9 0 00-.892.902zm23.208 7.21V22.56h-.892c-.055 0-.111-.012-.167-.012a9.737 9.737 0 01-.915 2.715h1.082a.9.9 0 00.893-.9z"/><path d="M28.576 14.448h-1.785v-.902c0-5.97-4.798-10.815-10.712-10.815S5.367 7.575 5.367 13.546v.902H3.582v-.902C3.582 6.573 9.172.928 16.079.928s12.497 5.645 12.497 12.618v.902z"/></symbol><symbol viewBox="0 0 18 18" id="menu-service1" xmlns="http://www.w3.org/2000/svg"><path fill-rule="evenodd" clip-rule="evenodd" d="M13.03 15.009c.254-.004.49-.008.73.008.508.034.687.236.684.77l-.001.808v.289l.006.001.006.002.48.002c.594.002 1.189.004 1.782-.002.158-.002.239-.09.24-.264l.01-.569.001-.071c.007-.403.014-.818.009-1.225 0-.1-.052-.228-.121-.299a1420.796 1420.796 0 00-6.65-6.874c-.273-.28-.368-.571-.32-.974.084-.675.152-1.394 0-2.096-.5-2.333-2.884-3.882-5.21-3.392C2.189 1.653.653 3.99 1.1 6.563c.36 2.073 2.246 4.012 4.772 3.666.21-.03.425-.046.632-.061l.12-.01.119-.01a.7.7 0 01.606.246c.129.14.262.276.395.411l.04.041.026.026c.167.17.338.344.499.524a.515.515 0 00.455.183 33.656 33.656 0 011.628-.06h.014c.345 0 .522.15.574.485.032.206.038.418.044.624v.005l.004.129c.004.143.003.285.002.431v.003l-.001.118c.13 0 .257 0 .381-.002l.288-.001c.158 0 .314 0 .47.006.375.012.526.158.557.539.015.184.014.37.013.552v.03c-.001.082-.002.165-.001.247v.327c.064 0 .128 0 .19-.002l.09-.001h.011zm1.88-4.054c.928.954 1.855 1.909 2.784 2.861a.994.994 0 01.307.765 78.95 78.95 0 00-.017 1.532v.003l-.004.695c-.005.518-.57 1.1-1.08 1.112-.54.013-1.08.032-1.621.05h-.01l-.725.024a5.692 5.692 0 01-.184.003c-.329 0-.556-.04-.702-.183-.171-.169-.208-.453-.214-.89a39.676 39.676 0 01-.001-.6l.001-.226h-.883a4.71 4.71 0 01-.291-.007c-.392-.024-.55-.188-.563-.586a16.77 16.77 0 01-.003-.672l.002-.3v-.185h-.869c-.717-.001-.834-.121-.838-.855v-.901h-.237l-.339.001-.198.001c-.264.002-.527.004-.791.013a.817.817 0 01-.625-.261l-.293-.304-.074-.076a20.741 20.741 0 01-.595-.622c-.1-.11-.188-.137-.343-.106-2.572.489-5.008-.85-6.055-3.333a5.747 5.747 0 01.253-4.977C1.539 1.376 2.98.332 4.658.068c3.011-.472 5.772 1.555 6.288 4.617.109.65.106 1.309-.01 1.958-.026.142 0 .224.105.332l2.207 2.27.736.757.926.953zM4.07 4.845c.179 0 .345-.07.467-.199a.674.674 0 00.185-.478.655.655 0 00-.65-.649h-.006a.663.663 0 00-.64.666c0 .358.296.66.643.66h.002zm-.007-2.36h.014a1.62 1.62 0 011.171.51c.31.324.475.756.467 1.216-.015.915-.749 1.653-1.639 1.653h-.018a1.64 1.64 0 01-1.168-.502 1.681 1.681 0 01-.471-1.197c.01-.945.731-1.68 1.644-1.68z"/></symbol><symbol viewBox="0 0 14 18" id="menu-service2" xmlns="http://www.w3.org/2000/svg"><path fill-rule="evenodd" clip-rule="evenodd" d="M.965 5.9V2.237c0-.636.353-1.108.92-1.23.09-.02.184-.023.275-.023h9.7c.693 0 1.178.501 1.179 1.217V9l-.001 1.27-.002.634c-.002 1.581-.005 3.216.011 4.824.003.363-.127.695-.366.936a1.23 1.23 0 01-.881.36h-.009a762.11 762.11 0 00-9.579 0h-.008c-.337 0-.648-.126-.879-.356a1.285 1.285 0 01-.368-.922c.01-3.282.01-6.618.008-9.845zM11.85.002C9.156-.001 6.462 0 3.767 0H2.151a2.18 2.18 0 00-.37.025C.718.219.003 1.093 0 2.202v13.576C.004 17.065.914 18 2.169 18H9.415l2.417-.001c1.256 0 2.167-.933 2.167-2.219V2.204C14 .949 13.076.002 11.85.002zm-.634 8.715H8.954c-.301.001-.512.195-.513.472a.46.46 0 00.145.344.538.538 0 00.367.133l1.128.001h1.133a.522.522 0 00.377-.15.458.458 0 00.128-.336c-.006-.272-.213-.463-.503-.464zm-2.252 5.735c.756-.002 1.51-.003 2.261 0 .25 0 .43.142.48.377a.456.456 0 01-.257.527.63.63 0 01-.244.044c-.177.002-.352.002-.528.002H9.407L8.96 15.4c-.31-.001-.514-.183-.519-.464a.452.452 0 01.127-.334.548.548 0 01.396-.151zm-4.25-.305l-.15-.149.142-.14c.146-.145.284-.282.417-.425a.655.655 0 00.158-.282.457.457 0 00-.232-.505.435.435 0 00-.54.08c-.13.129-.257.262-.39.402l-.06.063-.143.151-.062-.07a8.863 8.863 0 00-.196-.217l-.018-.019a6.155 6.155 0 00-.3-.306.48.48 0 00-.464-.12.467.467 0 00-.317.34c-.044.173.006.334.148.478l.449.461.108.111-.114.115c-.152.154-.297.301-.44.45-.21.22-.221.51-.026.704a.44.44 0 00.313.133H3a.537.537 0 00.376-.175c.127-.13.252-.261.382-.399l.03-.032.13-.137.13.137c.145.153.28.296.422.434.08.078.182.136.279.16.2.05.396-.049.494-.242a.482.482 0 00-.094-.564 25.476 25.476 0 00-.435-.437zm4.23-1.559c.76-.003 1.52-.003 2.279 0 .283.001.497.206.497.476.001.272-.208.471-.496.473-.205.002-.41.001-.614.001H9.555l-.174.001c-.145 0-.29 0-.435-.002-.295-.002-.498-.187-.504-.46a.465.465 0 01.128-.34.518.518 0 01.375-.149zm-3.896-3.87l-.249-.001h-.412v-.185c.002-.177.003-.348-.001-.519-.006-.289-.187-.489-.451-.497h-.017a.45.45 0 00-.315.121.488.488 0 00-.145.35c-.005.18-.004.36-.003.545v.184h-.15c-.174 0-.34-.002-.505.002a.648.648 0 00-.258.05.463.463 0 00-.252.512c.047.232.221.38.455.385.114.003.227.003.342.002h.368v.445c-.001.093-.002.187.002.28a.502.502 0 00.18.38c.08.063.177.095.28.095a.584.584 0 00.093-.008c.228-.044.372-.238.376-.506.002-.14.002-.28.002-.422v-.264h.657c.3-.003.512-.198.513-.474 0-.278-.21-.474-.51-.476zm5.697-3.575c.014-.014.02-.052.019-.113a24.611 24.611 0 01-.005-.858V3.59H3.243v.225c0 .442 0 .873.006 1.304a.168.168 0 00.07.038c.158.004.316.004.475.004h2.68c1.387 0 2.773 0 4.16.004h.003c.057 0 .093-.007.107-.021zm-3.748 1H3.093c-.524 0-.813-.294-.814-.828-.001-.632-.002-1.265 0-1.897.001-.529.285-.82.798-.82h7.83c.532 0 .813.29.813.84.002.62.002 1.24 0 1.861 0 .552-.282.843-.815.843l-3.904.001h-.004z"/></symbol><symbol viewBox="0 0 18 18" id="menu-service3" xmlns="http://www.w3.org/2000/svg"><path fill-rule="evenodd" clip-rule="evenodd" d="M11.098 16.61c-.06.142-.175.33-.479.33-.006 0-.012 0-.019-.002-.375-.007-.748-.005-1.131-.005l-.69.002v-3.07H7.7v3.055H1.08V9.558h6.606v1.506H8.76V6.937H7.703v1.51H1.081V1.083h6.606v3.06h1.074V1.078h8.157v7.38H11.55V9.53h5.37v7.39h-1.98v-3.065l-.12.015c-.256.03-.497.059-.725.119-1.417.375-2.426 1.256-2.998 2.62zm2.473-1.19l.288-.074V18H18V0H0v18h11.865c.258-1.358.932-2.384 1.706-2.58z"/></symbol><symbol viewBox="0 0 18 18" id="menu-service4" xmlns="http://www.w3.org/2000/svg"><g clip-path="url(#gclip0)"><path fill-rule="evenodd" clip-rule="evenodd" d="M5.631 11.113h1.082c.506 0 .694.17.695.628v1.152c-.002.897-.003 1.79.003 2.687.005.627.311 1.074.886 1.294.253.096.508.143.754.143.308 0 .6-.075.851-.227.445-.271.701-.749.701-1.312l.001-3.773v-.003c0-.402.205-.589.648-.589h.7c.47.003.936.003 1.403-.003.876-.011 1.463-.499 1.532-1.274.017-.178.014-.352.01-.536v-.029a7.213 7.213 0 01-.005-.258v-.15H3.113v.755c.003.944.6 1.489 1.631 1.494.296.002.592.001.887.001zM8.943 18C7.6 17.976 6.32 16.793 6.31 15.566c-.006-.67-.005-1.338-.003-2.007l.001-1.441h-.165a58.542 58.542 0 01-.832-.005c-.157 0-.314.002-.47.008-1.333.048-2.659-.98-2.803-2.207-.055-.486-.037-.993-.019-1.483v-.007l.006-.164c.007-.218.2-.364.571-.433l.132-.024V.6c0-.415.204-.6.661-.6l11.188.001c.522 0 .707.166.707.637l.002 1.426v.001c0 1.424 0 2.847-.003 4.272a.545.545 0 01-.284.492.567.567 0 01-.532-.007c-.195-.1-.286-.258-.285-.498.003-.875.003-1.751.002-2.627v-2.68H12.42l.001.919v1.116c0 .335-.219.563-.54.567a.569.569 0 01-.383-.132.571.571 0 01-.178-.436V1.016H9.555l.001.854c.002.203.003.407-.003.61-.008.27-.247.484-.543.486h-.004c-.303 0-.543-.216-.548-.492-.006-.298-.005-.598-.004-.902V1.57l.001-.548H6.693v3.323c-.002.352-.216.581-.548.582h-.004a.536.536 0 01-.37-.131c-.116-.105-.18-.269-.18-.463V1.021H3.842v6.823l11.443-.001c.271 0 .455.048.561.146.105.097.155.263.152.506l.001.414v.018c.002.364.004.74-.049 1.098-.167 1.13-1.39 2.089-2.67 2.092h-1.576v3.406c0 .625-.31 1.26-.848 1.74a2.844 2.844 0 01-1.87.737l-.043-.001zm.068-2.965h.005c.3.003.541.228.54.502a.48.48 0 01-.164.357.571.571 0 01-.387.145h-.007c-.299-.004-.542-.23-.541-.502 0-.135.059-.262.163-.356a.58.58 0 01.391-.146z"/></g><defs><clipPath id="gclip0"><path transform="translate(2)" d="M0 0h14v18H0z"/></clipPath></defs></symbol><symbol viewBox="0 0 18 18" id="menu-service5" xmlns="http://www.w3.org/2000/svg"><g clip-path="url(#hclip0)"><path fill-rule="evenodd" clip-rule="evenodd" d="M16.154 15.158h.84v-1.953h-.84v1.953zM4.812 5.842c0 2.18 0 4.364-.002 6.544 0 .07-.02.12-.03.13-.613.622-1.232 1.24-1.87 1.878l-.062.063V5.806H4.81v.036zm5.552 8.224v1.084H9.12v-1.08H7.773v1.087h-1.23v-1.089H5.188v1.084H3.55l.323-.323c.52-.524 1.042-1.045 1.568-1.565a.258.258 0 01.149-.069c1.923-.006 3.844-.007 5.769-.005h.824l.012 1.962h-.483v-1.086h-1.35zm1.062-8.263l-5.621 5.625V5.803h5.62zm.772.764v5.629H6.574l5.624-5.629zm2.954-3.024v13.463H13.19a1.048 1.048 0 01-.002-.056c0-3.779 0-7.558.003-11.336 0-.062.02-.125.04-.144.562-.571 1.128-1.137 1.695-1.704l.226-.223zM11.25 4.809h-.272V3.711H9.624v1.083H8.386V3.708h-1.35v1.089h-1.23V3.711H4.452v1.083H3.214V3.709h-1.35v1.088H.998V2.846H14.45l-.18.18c-.568.571-1.14 1.142-1.711 1.707a.282.282 0 01-.171.071c-.378.007-.753.007-1.138.005zM2.855 1.846H4.8v-.85H2.855v.85zm14.01 10.361h-.72v-1.352c0-2.747 0-5.495.004-8.243 0-.03.026-.091.067-.132.313-.319.628-.635.945-.951l.504-.505c.076-.076.153-.152.22-.235.139-.171.154-.378.036-.529-.086-.111-.242-.241-.396-.245h-.01c-.162 0-.33.106-.424.197a83.538 83.538 0 00-1.546 1.544.287.287 0 01-.235.096c-2.798-.003-5.595-.003-8.393-.003h-1.05l-.07-.002V.642C5.796.162 5.637 0 5.165 0H2.467c-.432 0-.61.176-.61.607V1.85l-.343-.001c-.33 0-.651-.001-.97.001-.338.003-.533.197-.534.533-.002.956-.002 1.912 0 2.868 0 .345.195.538.545.541l.603.001.699-.001v1.351c0 2.747 0 5.495-.004 8.243a.23.23 0 01-.068.132c-.34.348-.682.691-1.026 1.033l-.396.397a3.883 3.883 0 00-.235.245c-.148.173-.17.375-.055.527.085.115.24.251.398.263.163.001.339-.1.44-.197A99.917 99.917 0 002.47 16.23a.242.242 0 01.199-.082c3.157.002 6.31.002 9.463.002l.07.002.003 1.28c.003.374.19.566.558.567l1.414.001 1.412-.001c.363-.001.554-.193.555-.551V16.15h.305c.342 0 .675.001 1.009-.001.338-.003.533-.197.534-.534.002-.955.002-1.911 0-2.867-.001-.345-.195-.538-.546-.541a18.69 18.69 0 00-.58 0z"/></g><defs><clipPath id="hclip0"><path d="M0 0h18v18H0z"/></clipPath></defs></symbol><symbol viewBox="0 0 6 4" id="nav-arrow" xmlns="http://www.w3.org/2000/svg"><path d="M5.889.424a.36.36 0 00-.264-.111H.375a.36.36 0 00-.264.11A.36.36 0 000 .689c0 .1.037.188.111.261l2.625 2.625A.36.36 0 003 3.688a.36.36 0 00.264-.112L5.889.951A.36.36 0 006 .688a.361.361 0 00-.111-.264z"/></symbol><symbol viewBox="0 0 14 14" id="phone" xmlns="http://www.w3.org/2000/svg"><path d="M5.798 8.203C4.462 6.867 4.16 5.53 4.092 4.995a.48.48 0 01.138-.402l1.081-1.08a.483.483 0 00.068-.598L3.657.241a.483.483 0 00-.625-.176L.268 1.367a.48.48 0 00-.265.48C.147 3.223.747 6.605 4.07 9.929c3.324 3.324 6.706 3.924 8.082 4.068.2.02.391-.085.48-.265l1.301-2.764a.483.483 0 00-.175-.625l-2.673-1.72a.483.483 0 00-.598.067L9.409 9.77a.48.48 0 01-.402.138c-.535-.068-1.872-.37-3.208-1.706z"/><path d="M11.106 7.483A.483.483 0 0110.623 7a3.625 3.625 0 00-3.62-3.62.483.483 0 010-.966A4.591 4.591 0 0111.587 7a.483.483 0 01-.482.483z"/><path d="M13.52 7.483A.483.483 0 0113.037 7 6.041 6.041 0 007.002.966a.483.483 0 110-.966 7.008 7.008 0 017 7 .482.482 0 01-.482.483z"/></symbol><symbol viewBox="0 0 18 18" id="search" xmlns="http://www.w3.org/2000/svg"><path d="M7.927 0C3.557 0 0 3.556 0 7.927c0 4.37 3.556 7.927 7.927 7.927 4.37 0 7.927-3.556 7.927-7.927C15.854 3.557 12.298 0 7.927 0zm0 14.39a6.47 6.47 0 01-6.464-6.463 6.47 6.47 0 016.464-6.464 6.47 6.47 0 016.463 6.464 6.47 6.47 0 01-6.463 6.463z"/><path d="M17.784 16.75l-4.195-4.194a.731.731 0 10-1.035 1.034l4.195 4.195a.73.73 0 001.035 0 .731.731 0 000-1.034z"/></symbol><symbol viewBox="0 0 20 21" id="sidebar-arrow" xmlns="http://www.w3.org/2000/svg"><path fill-rule="evenodd" clip-rule="evenodd" d="M19.474 11.716l-8.775 8.871a1.32 1.32 0 01-1.865.052l-1.757-1.662a1.32 1.32 0 01-.052-1.865l4.363-4.192-9.156.005a1.266 1.266 0 01-1.271-1.26l.023-2.313A1.266 1.266 0 012.242 8.08l9.143-.005-4.36-4.187a1.32 1.32 0 01.052-1.865L8.834.361A1.319 1.319 0 0110.7.413l8.775 8.871c.342.323.384.46.384 1.216s-.045.893-.384 1.216z"/></symbol><symbol viewBox="0 0 14 14" id="timetable" xmlns="http://www.w3.org/2000/svg"><path d="M7 0C3.14 0 0 3.14 0 7s3.14 7 7 7 7-3.14 7-7-3.14-7-7-7zm3.33 10.62a.58.58 0 01-.825 0L6.587 7.705a.581.581 0 01-.17-.412V3.5a.583.583 0 011.165 0v3.55l2.746 2.745c.23.23.23.598.003.825z"/></symbol></svg>