<svg width="50" height="51" viewBox="0 0 50 51" fill="none" xmlns="http://www.w3.org/2000/svg">
<path d="M13.4011 30.2882V31.5726C13.4011 33.071 14.595 34.2765 16.079 34.2765C17.5631 34.2765 18.757 33.071 18.757 31.5726V30.2882C17.0052 30.7952 15.1529 30.7952 13.4011 30.2882Z" fill="#FA7D08"/>
<path d="M20.5423 15.349L19.4934 13.9295L17.2172 15.7659C16.1125 16.6559 14.7289 17.1404 13.3118 17.1404H8.04512V20.7456C8.05628 25.2183 11.6492 28.8461 16.079 28.8574C17.909 28.8574 19.6943 28.2265 21.1114 27.0548H16.079V25.2521H22.7516C23.6331 23.9227 24.1129 22.3454 24.1129 20.7456V17.1404C22.707 17.1516 21.3903 16.4757 20.5423 15.349ZM12.5084 20.7569H10.7231V18.9543H12.5084V20.7569ZM21.435 20.7569H19.6497V18.9543H21.435V20.7569Z" fill="#FA7D08"/>
<path d="M41.2073 21.1399L42.8587 19.8894V9.71586C42.8587 9.42294 43.0038 9.14128 43.2381 8.97228C45.6706 7.27107 46.262 3.89117 44.5771 1.44637C44.3428 1.09712 44.0638 0.781658 43.7514 0.5V4.53335C43.7514 4.9164 43.5059 5.26566 43.1377 5.38959L40.4597 6.2909C40.2812 6.34723 40.0803 6.34723 39.8907 6.2909L37.2127 5.38959C36.8445 5.26566 36.599 4.92767 36.599 4.53335V0.5C34.3897 2.49414 34.2 5.90784 36.175 8.13858C36.4539 8.45403 36.7664 8.73569 37.1123 8.97228C37.3466 9.14128 37.4916 9.41167 37.4916 9.7046V16.2503H38.3843C38.8306 16.2503 39.21 16.5771 39.2658 17.0277L39.277 17.0953V9.94119H41.0623V21.0836C41.1181 21.1061 41.1627 21.1174 41.2073 21.1399Z" fill="#FA7D08"/>
<path d="M45.9942 35.5158C46.0946 35.1778 46.3736 34.9187 46.7306 34.8736L50 34.3891V30.5586L46.7195 30.0854C46.3736 30.0403 46.0835 29.7925 45.983 29.4432C45.771 28.6996 45.4698 27.9673 45.1015 27.2913C44.9453 26.9759 44.9676 26.5928 45.1685 26.3112L47.1547 23.6411L44.4655 20.9259L41.821 22.9313C41.5421 23.1453 41.1627 23.1679 40.8503 22.9989C40.1696 22.6271 39.4555 22.3229 38.719 22.1088C38.3843 22.0074 38.1277 21.7258 38.083 21.3653L37.6144 18.053H33.8206L33.3519 21.3653L32.4704 21.2413C31.6671 21.4779 30.886 21.7934 30.1495 22.2102L29.5805 21.7821C29.3015 22.0638 28.9556 22.2778 28.5874 22.413V24.3621C28.5874 25.8493 27.3823 27.066 25.9094 27.066H25.4408C25.0837 27.742 24.8048 28.4518 24.5927 29.1841L21.4461 29.646V31.3247L23.2314 32.0457V31.5726H25.0168V32.7668L27.7728 33.8822C27.7952 33.8934 27.8175 33.9047 27.8398 33.9047C27.7505 33.4315 27.6947 32.9583 27.6947 32.4739C27.6947 27.9899 31.2877 24.3621 35.7286 24.3621C40.1696 24.3621 43.7626 27.9899 43.7626 32.4739C43.7626 36.9579 40.1696 40.5856 35.7286 40.5856C34.9922 40.5856 34.2558 40.4842 33.5416 40.2702C33.8094 41.1827 33.9433 42.1291 33.9433 43.0868V46.8948H37.6255L38.0942 43.5825C38.1388 43.2332 38.3843 42.9403 38.7302 42.8389C39.4666 42.6248 40.1919 42.3206 40.8614 41.9489C41.1739 41.7911 41.5532 41.8137 41.8322 42.0164L44.4767 44.0219L47.1658 41.3067L45.1797 38.6366C44.9788 38.3436 44.9453 37.9718 45.1127 37.6564C45.4809 36.9804 45.771 36.2593 45.9942 35.5158ZM46.4294 31.5726H48.2147V33.3752H46.4294V31.5726ZM36.6101 21.6582H34.8248V19.8556H36.6101V21.6582ZM36.6101 45.0922H34.8248V43.2895H36.6101V45.0922ZM45.1908 40.7546L43.9188 42.039L42.6579 40.7546L43.9188 39.4815L45.1908 40.7546ZM43.9188 25.4662L42.6579 24.1931L43.9188 22.9087L45.1908 24.1931L43.9188 25.4662Z" fill="#FA7D08"/>
<path d="M32.1469 50.5V43.0868C32.158 39.7632 30.1495 36.7776 27.0922 35.5496L20.3415 32.8231C19.672 35.2003 17.2172 36.5861 14.8628 35.9101C13.3787 35.482 12.2294 34.3215 11.8054 32.8231L5.05472 35.5496C1.99737 36.7776 -0.011112 39.7632 4.62562e-05 43.0868V50.5H5.35599V40.5856H7.1413V50.5H24.9944V40.5856H26.7798V50.5H32.1469Z" fill="#FA7D08"/>
<path d="M28.5762 19.8556V17.1516C28.5762 16.6559 28.1745 16.2503 27.6836 16.2503H25.8983V20.7569H27.6836C28.1745 20.7569 28.5762 20.3513 28.5762 19.8556Z" fill="#FA7D08"/>
<path d="M16.079 6.33596C11.6492 6.33596 8.04512 9.97499 8.04512 14.4477V15.349H13.3118C14.3272 15.349 15.3091 14.9998 16.1013 14.3576L19.0917 11.9353C19.2814 11.7889 19.5269 11.71 19.7612 11.7438C19.9956 11.7776 20.2187 11.9015 20.3638 12.0931L21.9706 14.2562C22.4727 14.9322 23.2649 15.3378 24.1129 15.3378V14.4365C24.1129 9.97499 20.5088 6.33596 16.079 6.33596Z" fill="#FA7D08"/>
<path d="M35.7175 38.783C39.1654 38.783 41.9661 35.9552 41.9661 32.4739C41.9661 28.9926 39.1654 26.1647 35.7175 26.1647C32.2696 26.1647 29.4689 28.9926 29.4689 32.4739C29.4689 33.4315 29.692 34.3779 30.1161 35.2341C31.0422 35.9552 31.8344 36.8339 32.4481 37.8254C33.4301 38.445 34.557 38.783 35.7175 38.783Z" fill="#FA7D08"/>
<path d="M3.58183 17.1516V19.8556C3.58183 20.3513 3.98353 20.7569 4.47449 20.7569H6.2598V16.2503H4.47449C3.98353 16.2503 3.58183 16.6559 3.58183 17.1516Z" fill="#FA7D08"/>
<path d="M26.7909 24.3621V22.5595H25.8983C25.8425 22.5595 25.7867 22.5482 25.7309 22.5482C25.5635 23.4946 25.2511 24.4072 24.8159 25.2634H25.8983C26.3892 25.2634 26.7909 24.8578 26.7909 24.3621Z" fill="#FA7D08"/>
<path d="M28.5762 14.4477H26.7909V13.5464C26.7909 7.57526 21.9929 2.73073 16.079 2.73073C10.1652 2.73073 5.36715 7.57526 5.36715 13.5464V14.4477H3.58183V13.5464C3.58183 6.57256 9.1721 0.928121 16.079 0.928121C22.986 0.928121 28.5762 6.57256 28.5762 13.5464V14.4477Z" fill="#FA7D08"/>
</svg>
