<svg width="18" height="18" viewBox="0 0 18 18" fill="none" xmlns="http://www.w3.org/2000/svg">
<path fill-rule="evenodd" clip-rule="evenodd" d="M13.8492 11.9882C13.8502 12.2882 13.8512 12.5892 13.8442 12.8872C13.8412 13.0122 13.6952 13.0882 13.6502 13.1072C13.5932 13.1342 13.5312 13.1552 13.4682 13.1752C13.4312 13.1862 13.3942 13.1992 13.3582 13.2132C12.2192 13.6582 11.7102 14.6552 12.0312 15.8132C12.0922 16.0312 12.0372 16.1762 11.8502 16.2812C11.5872 16.4302 11.3282 16.5862 11.0692 16.7422C11.0012 16.7812 10.9372 16.8022 10.8742 16.8022C10.7832 16.8022 10.6962 16.7592 10.6112 16.6712C10.2232 16.2722 9.7742 16.0352 9.2782 15.9672C8.5982 15.8692 7.9882 16.0912 7.4182 16.6412C7.2882 16.7672 7.1222 16.8752 6.8802 16.7232C6.6352 16.5742 6.3842 16.4322 6.1322 16.2932C5.9502 16.1912 5.8962 16.0512 5.9572 15.8402C6.1482 15.1682 6.0712 14.5532 5.7252 14.0132C5.4352 13.5622 5.0082 13.2692 4.4182 13.1172C4.3322 13.0942 4.1322 13.0422 4.1362 12.7852C4.1402 12.5372 4.1402 12.2892 4.1382 12.0362V11.5852H6.6222L6.5912 11.7362C6.3632 12.8672 6.7432 13.7622 7.7222 14.3992C8.5522 14.9402 9.4302 14.9422 10.2612 14.4082C11.2502 13.7732 11.6352 12.8742 11.4072 11.7352L11.3772 11.5842H13.8492V11.9882ZM10.2672 13.0922C10.0292 13.4832 9.6052 13.7292 9.1352 13.7522C9.1002 13.7532 9.0662 13.7542 9.0312 13.7542C8.8792 13.7542 8.7252 13.7382 8.5802 13.7112C8.0922 13.6152 7.7652 13.3172 7.6342 12.8502C7.5322 12.4822 7.5382 12.1472 7.6512 11.8292C7.7152 11.6532 7.8282 11.5712 8.0082 11.5712H8.0292C8.2602 11.5802 8.4912 11.5782 8.7212 11.5762L9.2652 11.5742C9.5102 11.5702 9.7562 11.5702 10.0012 11.5812C10.1242 11.5862 10.2712 11.6792 10.3212 11.7852C10.5262 12.2082 10.5052 12.6972 10.2672 13.0922ZM1.83984 10.5246L2.07084 10.2696C2.09984 10.2366 2.12584 10.2066 2.15484 10.1806C2.28984 10.0596 2.35084 9.91263 2.35384 9.70263C2.35484 9.53563 2.35484 9.36663 2.35384 9.19963C2.35184 8.71563 2.35084 8.21563 2.39984 7.72463C2.57384 5.99463 3.38084 4.53763 4.79884 3.39463L4.95884 3.26663L5.05884 3.68563C5.09484 3.83663 5.12884 3.97863 5.16084 4.12163L5.86184 7.23463C5.94084 7.58463 6.19284 7.77463 6.49584 7.71063C6.63784 7.67963 6.74984 7.60663 6.81884 7.49963C6.90184 7.37163 6.92284 7.20163 6.87984 7.00963L6.76884 6.51163C6.43284 5.01363 6.09784 3.51563 5.75384 2.01863C5.70284 1.79463 5.77384 1.66363 5.99284 1.57963C7.98784 0.813633 10.0098 0.812633 12.0028 1.58063C12.2238 1.66563 12.2928 1.79263 12.2418 2.01863C11.9278 3.38763 11.6198 4.75863 11.3118 6.12863L11.1058 7.04763C11.0338 7.37163 11.1958 7.64463 11.4988 7.71063C11.7848 7.77063 12.0558 7.58463 12.1258 7.27363L12.9468 3.63363C12.9528 3.60163 12.9628 3.57063 12.9758 3.53163L13.0498 3.28363L13.1998 3.40163C14.2548 4.23663 14.9558 5.24463 15.3458 6.48263C15.5398 7.09563 15.6408 7.74663 15.6448 8.41663L15.6468 8.67163C15.6498 8.94463 15.6528 9.22763 15.6408 9.50763C15.6248 9.84463 15.6778 10.0946 15.9798 10.2926L16.3358 10.5246H1.83984ZM14.2012 14.0702C14.6112 14.0702 14.7742 13.9152 14.8162 13.4972C14.8562 13.0922 14.8882 12.6882 14.9212 12.2722L14.9772 11.5752H15.9902C16.4702 11.5732 16.9502 11.5732 17.4282 11.5752H17.4312C17.6922 11.5752 17.8642 11.4702 17.9542 11.2542C18.0462 11.0372 17.9982 10.8442 17.8092 10.6612C17.6722 10.5302 17.5372 10.3972 17.4042 10.2622C17.3392 10.1972 17.2672 10.1342 17.1942 10.0722C17.0112 9.91617 16.8242 9.75517 16.7332 9.53817C16.6452 9.32517 16.6622 9.08217 16.6792 8.84717C16.6862 8.75017 16.6932 8.65317 16.6922 8.55817C16.6622 6.11317 15.6782 4.09517 13.7682 2.56017C13.4252 2.28517 13.2462 2.01817 13.4122 1.53717C13.4952 1.29617 13.3832 1.07017 13.1202 0.948167C10.4972 -0.266833 7.8322 -0.314833 5.1922 0.808167C4.5152 1.09617 4.4842 1.15517 4.6532 1.86117C4.7082 2.08917 4.6562 2.23317 4.4642 2.37217C2.9542 3.47717 1.9562 4.97817 1.4972 6.83217C1.3032 7.61717 1.3012 8.43617 1.3002 9.22717V9.33717C1.3002 9.46417 1.2362 9.61617 1.1412 9.71517C0.865199 10.0022 0.579199 10.2802 0.293199 10.5582L0.191199 10.6582C0.00319937 10.8422 -0.0448006 11.0312 0.0411994 11.2562C0.143199 11.5182 0.393199 11.5742 0.586199 11.5742L3.1332 11.5752L3.1102 11.7212C3.0162 12.3222 3.0852 12.8852 3.1782 13.5072C3.2442 13.9412 3.4222 14.0922 3.8472 14.0682C3.8812 14.0662 3.9152 14.0652 3.9492 14.0652C4.3612 14.0652 4.6572 14.2312 4.8512 14.5702C5.1212 15.0432 5.1192 15.4442 4.8442 15.8332C4.6132 16.1592 4.6352 16.3712 4.9302 16.6442C5.5572 17.2242 6.3152 17.6622 7.1812 17.9472C7.5572 18.0702 7.7692 17.9842 7.9412 17.6332C8.1552 17.1962 8.5092 16.9732 8.9932 16.9712H8.9962C9.4882 16.9712 9.8452 17.1962 10.0612 17.6402C10.2262 17.9852 10.4372 18.0682 10.8252 17.9442C11.6012 17.6902 12.3232 17.2732 13.0312 16.6702C13.3622 16.3882 13.3912 16.1752 13.1472 15.8212C12.8882 15.4462 12.8752 15.0512 13.1082 14.6512C13.3312 14.2642 13.6642 14.0682 14.0962 14.0682C14.1332 14.0682 14.1672 14.0702 14.2012 14.0702Z" fill="#FA7D06"/>
</svg>
