<svg width="18" height="18" viewBox="0 0 18 18" fill="none" xmlns="http://www.w3.org/2000/svg">
<path fill-rule="evenodd" clip-rule="evenodd" d="M11.0982 16.6092C11.0371 16.7522 10.9228 16.9392 10.6192 16.9392C10.6132 16.9392 10.6072 16.9392 10.6002 16.9382C10.2254 16.9312 9.85172 16.9332 9.46895 16.9332L8.77957 16.9352V13.8657H7.69841V16.9202H1.08016V9.55841H7.68639V11.0642H8.75953V6.93684H7.70342V8.44659H1.08116V1.08282H7.68739V4.14231H8.76054V1.07882H16.9178V8.45859H11.5511V9.53141H16.9208V16.9212H14.9419V13.8557C14.9018 13.8607 14.8607 13.8657 14.8206 13.8707C14.5651 13.9007 14.3236 13.9297 14.0962 13.9897C12.6793 14.3646 11.6703 15.2465 11.0982 16.6092ZM13.5711 15.4204L13.8587 15.3464V18H18V0H0V18H11.8647C12.1232 16.6422 12.7966 15.6164 13.5711 15.4204Z" fill="#FA7D08"/>
</svg>
