<svg width="18" height="18" viewBox="0 0 18 18" fill="none" xmlns="http://www.w3.org/2000/svg">
<path fill-rule="evenodd" clip-rule="evenodd" d="M15.8518 16.2776V14.6336C15.8518 12.0766 15.8518 9.52055 15.8558 6.96455C15.8558 6.77455 15.7958 6.64855 15.6478 6.52955C14.3128 5.45255 12.9808 4.37155 11.6488 3.29055L10.5698 2.41455C10.3456 2.23249 10.1209 2.05079 9.89594 1.8688C9.74772 1.74891 9.59934 1.62889 9.45081 1.50855L8.99981 1.14355L8.92081 1.20155C8.89081 1.22255 8.86281 1.24255 8.83681 1.26355L7.83581 2.07555C5.98181 3.57955 4.12781 5.08255 2.27281 6.58355C2.17281 6.66355 2.13281 6.75255 2.13281 6.88955C2.13481 9.50056 2.13481 12.1126 2.13481 14.7236V16.2906C2.13481 16.7516 2.38081 16.9956 2.84681 16.9956C4.13281 16.9966 5.41981 16.9976 6.70481 16.9966H7.92981V9.07755H13.4568V16.9966H14.0728H15.1358C15.6038 16.9956 15.8518 16.7466 15.8518 16.2776ZM12.4365 16.9862H8.9375V10.0752H12.4365V16.9862ZM17.789 6.87C17.909 6.966 17.982 7.096 17.997 7.238C18.011 7.37 17.97 7.501 17.882 7.607C17.698 7.83 17.392 7.855 17.15 7.664L16.856 7.434V7.772C16.855 10.792 16.855 13.813 16.855 16.834C16.855 17.565 16.418 18 15.684 18H2.301C1.57 18 1.134 17.564 1.133 16.832V7.43L0.946 7.58C0.895 7.622 0.853 7.656 0.809 7.689C0.688 7.776 0.546 7.81 0.408 7.785C0.269 7.76 0.148 7.677 0.067 7.553C0.0533142 7.53207 0.0389802 7.51179 0.0239982 7.49059C0.0203701 7.48545 0.0167041 7.48026 0.013 7.475L0 7.457V7.113C0.025 7.084 0.051 7.053 0.076 7.023C0.138 6.947 0.197 6.876 0.267 6.82C2.618 4.934 4.97 3.051 7.325 1.17C7.665 0.899 8.008 0.632 8.352 0.366C8.41721 0.315001 8.48277 0.264177 8.54839 0.213309C8.63974 0.142489 8.73121 0.0715832 8.822 0H9.17C9.188 0.012 9.207 0.024 9.225 0.035C9.23117 0.038904 9.23733 0.0427763 9.24346 0.0466349C9.28603 0.0734153 9.32754 0.0995337 9.366 0.131C9.7905 0.470503 10.2148 0.810006 10.639 1.14951C11.0633 1.48901 11.4875 1.8285 11.912 2.168L15.538 5.07C16.288 5.669 17.038 6.269 17.789 6.87ZM5.6518 11.3202H4.4098V10.0772H5.6518V11.3202ZM6.6528 12.3222H3.4058V9.0752H6.6528V12.3222Z" fill="#FA7D06"/>
</svg>
