<svg width="18" height="18" viewBox="0 0 18 18" fill="none" xmlns="http://www.w3.org/2000/svg">
<g clip-path="url(#clip0)">
<path fill-rule="evenodd" clip-rule="evenodd" d="M16.1537 15.1581H16.9947V13.2051H16.1537V15.1581ZM4.81166 5.84166C4.81266 8.02266 4.81266 10.2057 4.80966 12.3857C4.80966 12.4567 4.79066 12.5067 4.78066 12.5167C4.16666 13.1377 3.54766 13.7557 2.90966 14.3937L2.84766 14.4567V5.80566H4.81066C4.81166 5.81766 4.81166 5.82966 4.81166 5.84166ZM10.3638 14.066V15.15H9.12081V14.07H7.77281V15.157H6.54281V14.068H5.18781V15.152H3.55081L3.87381 14.829C4.39481 14.305 4.91581 13.784 5.44181 13.264C5.47981 13.227 5.54781 13.195 5.59081 13.195C7.51381 13.189 9.43481 13.188 11.3598 13.19H12.1838L12.1958 15.152H11.7128V14.066H10.3638ZM11.4257 5.80273L5.80469 11.4277V5.80273H11.4257ZM12.1978 6.567V12.196H6.57381L12.1978 6.567ZM15.1518 3.543V17.006H13.1898C13.1888 16.988 13.1878 16.968 13.1878 16.95C13.1878 13.171 13.1878 9.392 13.1908 5.614C13.1908 5.552 13.2118 5.489 13.2308 5.47C13.7928 4.899 14.3588 4.333 14.9258 3.766L15.1518 3.543ZM11.2508 4.809H10.9788V3.711H9.62381V4.794H8.38581V3.708H7.03681V4.797H5.80681V3.711H4.45081V4.794H3.21381V3.709H1.86481V4.797H0.996814V2.846H14.4508L14.2708 3.026C13.7028 3.597 13.1318 4.168 12.5598 4.733C12.5208 4.772 12.4448 4.803 12.3888 4.804C12.0108 4.811 11.6358 4.811 11.2508 4.809ZM2.85547 1.8459H4.79947V0.995898H2.85547V1.8459ZM16.8658 12.207H16.1448V10.855C16.1448 8.108 16.1448 5.36 16.1488 2.612C16.1488 2.582 16.1748 2.521 16.2158 2.48C16.5288 2.161 16.8438 1.845 17.1608 1.529L17.6648 1.024C17.7408 0.948 17.8178 0.872 17.8848 0.789C18.0238 0.618 18.0388 0.411 17.9208 0.26C17.8348 0.149 17.6788 0.019 17.5248 0.015H17.5148C17.3528 0.015 17.1848 0.121 17.0908 0.212C16.5218 0.763 15.9648 1.327 15.5448 1.756C15.4748 1.827 15.4148 1.852 15.3098 1.852C12.5118 1.849 9.71481 1.849 6.91681 1.849H5.86781C5.84481 1.849 5.82081 1.848 5.79681 1.847V0.642C5.79581 0.162 5.63681 0 5.16481 0H2.46681C2.03481 0 1.85781 0.176 1.85781 0.607V1.85L1.51381 1.849C1.18381 1.849 0.862814 1.848 0.543814 1.85C0.205814 1.853 0.0108137 2.047 0.00981369 2.383C0.00781369 3.339 0.00781369 4.295 0.00981369 5.251C0.0108137 5.596 0.204814 5.789 0.554814 5.792C0.754814 5.793 0.955814 5.792 1.15781 5.793L1.85681 5.792V7.143C1.85781 9.89 1.85781 12.638 1.85281 15.386C1.85281 15.418 1.82581 15.477 1.78481 15.518C1.44581 15.866 1.10281 16.209 0.758814 16.551L0.362814 16.948C0.281814 17.027 0.201814 17.107 0.127814 17.193C-0.0201863 17.366 -0.0411863 17.568 0.0728137 17.72C0.157814 17.835 0.313814 17.971 0.470814 17.983C0.633814 17.984 0.809814 17.883 0.910814 17.786C1.45781 17.255 2.00181 16.705 2.46981 16.23C2.52881 16.169 2.58081 16.148 2.66881 16.148C5.82581 16.15 8.97981 16.15 12.1318 16.15C12.1568 16.15 12.1788 16.151 12.2018 16.152L12.2048 17.432C12.2078 17.806 12.3948 17.998 12.7628 17.999C13.2338 17.999 13.7058 18 14.1768 18C14.6478 18 15.1188 17.999 15.5888 17.999C15.9518 17.998 16.1428 17.806 16.1438 17.448C16.1448 17.137 16.1448 16.828 16.1448 16.518V16.15H16.4488C16.7908 16.15 17.1238 16.151 17.4578 16.149C17.7958 16.146 17.9908 15.952 17.9918 15.615C17.9938 14.66 17.9938 13.704 17.9918 12.748C17.9908 12.403 17.7968 12.21 17.4458 12.207C17.2518 12.204 17.0578 12.204 16.8658 12.207Z" fill="#BCBDBE"/>
</g>
<defs>
<clipPath id="clip0">
<rect width="18" height="18" fill="white"/>
</clipPath>
</defs>
</svg>
