<svg width="18" height="18" viewBox="0 0 18 18" fill="none" xmlns="http://www.w3.org/2000/svg">
<path fill-rule="evenodd" clip-rule="evenodd" d="M5.55093 17.0071H12.4639V10.6901H5.55093V17.0071ZM9.50391 3.34845V0.982445L11.7439 0.981445C11.8209 0.985445 11.8189 0.982445 11.8309 1.02245C12.0129 1.59945 12.1989 2.17345 12.3849 2.74845L12.5759 3.34845H9.50391ZM0.981469 4.35254H4.28147C4.27647 4.47254 4.27347 4.59254 4.27047 4.71254C4.26247 5.05154 4.25647 5.37154 4.19347 5.68354C4.03947 6.45354 3.27147 7.00054 2.49847 6.92554C1.63147 6.83154 0.994469 6.15154 0.982469 5.30854C0.979469 5.07554 0.980469 4.84154 0.981469 4.60454V4.35254ZM2.80956 0.988471C3.47456 0.981471 4.14056 0.982471 4.81456 0.982471H5.16056C5.15756 0.998471 5.15356 1.01347 5.14856 1.02747L4.42456 3.26547C4.39356 3.36047 4.38556 3.36647 4.32556 3.36647C3.75656 3.36247 3.18656 3.36147 2.61756 3.36147H2.09256H1.35156L1.36156 3.34447L1.47156 3.15647C1.88156 2.46047 2.29156 1.76347 2.70656 1.06947C2.73056 1.02947 2.78856 0.989471 2.80956 0.988471ZM8.42493 5.81611C8.17893 6.53311 7.42493 7.01811 6.72593 6.92011C5.87993 6.80211 5.28393 6.17811 5.24393 5.36711C5.23193 5.12111 5.23493 4.87611 5.23793 4.61711C5.23993 4.52911 5.24093 4.44011 5.24093 4.35111H8.51493C8.51293 4.48911 8.51693 4.62811 8.52093 4.76211C8.53193 5.12911 8.54193 5.47611 8.42493 5.81611ZM12.7859 4.71411C12.7779 5.05711 12.7699 5.38111 12.7059 5.69711C12.5519 6.45611 11.7959 7.00411 11.0179 6.92611C10.1589 6.83611 9.53393 6.18811 9.49893 5.34911C9.48893 5.10611 9.49193 4.86511 9.49393 4.61011C9.49493 4.52411 9.49593 4.43811 9.49593 4.35111H12.7969C12.7919 4.47211 12.7889 4.59311 12.7859 4.71411ZM16.6255 3.36253H15.8315C15.1395 3.36153 14.4415 3.36153 13.7465 3.36653H13.7415C13.6395 3.36653 13.6145 3.34653 13.5835 3.24753C13.4175 2.71853 13.2465 2.19153 13.0745 1.66453L12.8805 1.06353C12.8715 1.03753 12.8635 1.01053 12.8555 0.982533H13.2035C13.8825 0.982533 14.5455 0.981533 15.2075 0.985533C15.2295 0.985533 15.2705 1.00753 15.2795 1.02053C15.7425 1.79853 16.2005 2.57953 16.6595 3.36153C16.6475 3.36253 16.6365 3.36253 16.6255 3.36253ZM5.42993 3.34811L5.52493 3.05511C5.74693 2.36911 5.96593 1.69711 6.18793 1.02711C6.19293 1.01511 6.21893 0.990111 6.22093 0.987111C6.89493 0.982111 7.56793 0.986111 8.24193 0.989111L8.50893 0.991111V3.34811H5.42993ZM4.55993 9.71211V17.0101H1.79593V7.77811C2.97593 8.10711 3.96993 7.78411 4.75193 6.81711C5.31393 7.53811 6.02893 7.90411 6.87693 7.90411H6.87893C7.73893 7.90411 8.43693 7.54611 9.00693 6.81311C9.56993 7.53711 10.2849 7.90411 11.1339 7.90411H11.1349C11.9889 7.90411 12.7039 7.53811 13.2609 6.81611C14.0419 7.78011 15.0339 8.10211 16.2199 7.77911V17.0081H13.4659V9.71211H4.55993ZM13.7575 5.36247C13.7415 5.11647 13.7455 4.87247 13.7505 4.61447C13.7515 4.52847 13.7535 4.44247 13.7535 4.35547H17.0095C17.0115 4.46147 17.0145 4.56747 17.0175 4.67247C17.0275 4.96747 17.0375 5.24647 17.0005 5.51947C16.8895 6.33447 16.2115 6.93147 15.4075 6.93147C15.3855 6.93147 15.3645 6.93047 15.3425 6.93047C14.4795 6.89547 13.8135 6.23547 13.7575 5.36247ZM17.8929 3.51611C17.6789 3.15111 17.4629 2.78611 17.2469 2.42111C16.8379 1.72811 16.4289 1.03411 16.0239 0.339111C15.8869 0.100111 15.6939 -0.00388906 15.4239 0.00011094C15.0179 0.00711094 14.6129 0.00511094 14.2069 0.00411094L13.7039 0.00311094H11.3229C8.40993 0.00311094 5.49893 0.00411094 2.58693 0.00111094H2.58493C2.30893 0.00111094 2.12493 0.106111 1.98893 0.340111C1.69193 0.854111 1.38993 1.36611 1.08893 1.87711C0.771926 2.41411 0.455926 2.95011 0.143926 3.48911C0.0659264 3.62511 0.0169264 3.80611 0.0099264 3.98511C-0.0040736 4.34011 -7.3602e-05 4.70111 0.0029264 5.05011L0.0049264 5.28411C0.0099264 5.95111 0.241926 6.55211 0.698926 7.06911C0.749926 7.12811 0.786926 7.22111 0.786926 7.29111C0.791926 10.2101 0.791926 13.1291 0.791926 16.0491V17.3961C0.791926 17.8241 0.968926 17.9991 1.40093 17.9991L14.6249 18.0001C14.9839 18.0001 15.3429 18.0001 15.7009 18.0001C16.0189 18.0001 16.3379 18.0001 16.6549 18.0001C16.9849 17.9991 17.1839 17.8421 17.2179 17.5591C17.2249 17.4981 17.2239 17.4361 17.2229 17.3741L17.2219 15.9771C17.2219 13.0741 17.2219 10.1711 17.2269 7.26911C17.2269 7.21111 17.2599 7.13111 17.3039 7.08211C17.7129 6.62211 17.9299 6.17311 17.9639 5.70911C18.0019 5.20711 18.0009 4.69511 17.9989 4.20111V3.79311C17.9999 3.69711 17.9459 3.60611 17.8929 3.51611Z" fill="#FA7D06"/>
</svg>
