<svg width="14" height="18" viewBox="0 0 14 18" fill="none" xmlns="http://www.w3.org/2000/svg">
<path fill-rule="evenodd" clip-rule="evenodd" d="M0.965075 5.9002L0.964075 2.23733C0.965075 1.60135 1.31809 1.12936 1.88511 1.00637C1.97412 0.987365 2.06912 0.984365 2.16012 0.984365C5.39225 0.983365 8.62638 0.983365 11.8595 0.983365C12.5525 0.984365 13.0375 1.48535 13.0385 2.20133C13.0395 3.81873 13.0395 5.43514 13.0395 7.05254V7.05716V8.9991C13.0395 9.42279 13.0386 9.84646 13.0378 10.2699L13.0365 10.903C13.0335 12.484 13.0305 14.1189 13.0475 15.7269C13.0505 16.0899 12.9205 16.4219 12.6815 16.6628C12.4505 16.8958 12.1375 17.0238 11.7995 17.0238H11.7915C10.2024 17.0138 8.60238 17.0098 7.00231 17.0098C5.40125 17.0098 3.80119 17.0138 2.21213 17.0238H2.20413C1.86711 17.0238 1.5561 16.8968 1.32509 16.6668C1.08708 16.4289 0.956075 16.1009 0.957075 15.7449C0.967075 12.463 0.966075 9.1271 0.965075 5.9002ZM11.8502 0.00158441C9.15585 -0.00091551 6.46157 5.66793e-05 3.76731 0.00102887L2.15074 0.00158441C2.03774 0.00158441 1.90773 0.00358434 1.78073 0.0255836C0.717685 0.218577 0.00265695 1.09254 0.00165692 2.20151C-0.000343159 3.78345 -0.000343159 5.3654 0.00065688 6.94735V8.98128V11.0212C-0.000343159 12.6072 -0.000343159 14.1931 0.00165692 15.7791C0.00265695 17.065 0.912693 17.999 2.16775 17.999C2.97203 17.999 3.77656 17.9992 4.58122 17.9995H4.58234C5.38787 17.9997 6.19427 18 6.99994 18C7.80423 18 8.60877 17.9997 9.41343 17.9995H9.41453C10.2201 17.9992 11.0264 17.999 11.8322 17.999C13.0882 17.999 13.9993 17.066 13.9993 15.7801C14.0003 11.2542 14.0003 6.72935 13.9993 2.20351C13.9993 0.948552 13.0762 0.00158441 11.8502 0.00158441ZM11.2161 8.71719C11.0821 8.71669 10.9483 8.71669 10.8144 8.71669C10.6806 8.71669 10.5466 8.71669 10.4121 8.71619L10.0681 8.71719L9.69704 8.71619C9.44903 8.71619 9.20202 8.71619 8.95401 8.71719C8.653 8.71819 8.44199 8.91218 8.44099 9.18917C8.44099 9.32417 8.49199 9.44616 8.586 9.53316C8.678 9.61816 8.80901 9.66616 8.95301 9.66616C9.32903 9.66716 9.70504 9.66716 10.0811 9.66716C10.4591 9.66716 10.8371 9.66716 11.2141 9.66616C11.3641 9.66516 11.4982 9.61216 11.5912 9.51616C11.6772 9.42817 11.7222 9.30917 11.7192 9.18117C11.7132 8.90918 11.5062 8.71819 11.2161 8.71719ZM8.96421 14.4519C9.72024 14.4499 10.4733 14.4489 11.2253 14.4519C11.4754 14.4529 11.6544 14.5939 11.7054 14.8289C11.7544 15.0529 11.6484 15.2699 11.4483 15.3559C11.3813 15.3849 11.3003 15.3989 11.2043 15.3999C11.0275 15.4018 10.852 15.4017 10.6756 15.4016C10.5697 15.4016 10.4631 15.4015 10.3563 15.4019H10.0743H9.74024H9.40723C9.25822 15.4019 9.10922 15.4019 8.96021 15.4009C8.6502 15.3999 8.44619 15.2179 8.44119 14.9369C8.43819 14.8069 8.48219 14.6909 8.5682 14.6029C8.6642 14.5059 8.80421 14.4519 8.96421 14.4519ZM4.71384 14.1472L4.56484 13.9982L4.70584 13.8572C4.85185 13.7132 4.98986 13.5762 5.12286 13.4333C5.19986 13.3503 5.25787 13.2483 5.28087 13.1513C5.32887 12.9553 5.23387 12.7473 5.04886 12.6463C4.86085 12.5443 4.65984 12.5733 4.50884 12.7253C4.37828 12.855 4.25151 12.9884 4.11864 13.1283L4.05882 13.1913L3.91581 13.3423L3.85381 13.2723C3.78581 13.1953 3.72381 13.1253 3.6578 13.0553L3.6398 13.0363C3.5448 12.9343 3.4448 12.8283 3.33979 12.7303C3.20879 12.6073 3.03478 12.5643 2.87577 12.6103C2.71977 12.6563 2.60176 12.7833 2.55876 12.9503C2.51476 13.1233 2.56476 13.2843 2.70677 13.4283C2.85577 13.5802 3.00478 13.7332 3.15578 13.8892L3.26379 14.0002L3.14978 14.1152C2.99778 14.2692 2.85277 14.4162 2.71077 14.5642C2.49976 14.7842 2.48876 15.0742 2.68377 15.2692C2.77177 15.3562 2.88077 15.4022 2.99678 15.4022H2.99978C3.13278 15.4012 3.26679 15.3392 3.37579 15.2272C3.50297 15.0972 3.62756 14.9655 3.75758 14.8281L3.78781 14.7962L3.91881 14.6592L4.04882 14.7962C4.19282 14.9492 4.32783 15.0922 4.46984 15.2302C4.54984 15.3082 4.65184 15.3662 4.74885 15.3892C4.94985 15.4402 5.14486 15.3412 5.24287 15.1482C5.33787 14.9602 5.30287 14.7442 5.14886 14.5842C5.00786 14.4382 4.86385 14.2952 4.71384 14.1472ZM8.94481 12.5882C9.70484 12.5852 10.4639 12.5852 11.2229 12.5882C11.506 12.5892 11.72 12.7942 11.72 13.0642C11.721 13.3362 11.512 13.5351 11.2239 13.5371C11.0191 13.5386 10.8144 13.5384 10.6096 13.5382L10.4049 13.5381H10.0769H9.72884C9.67106 13.5381 9.61328 13.5383 9.55548 13.5386C9.49748 13.5388 9.43883 13.5391 9.38083 13.5391C9.23582 13.5391 9.09082 13.5381 8.94581 13.5371C8.6508 13.5351 8.44779 13.3502 8.44179 13.0762C8.43779 12.9472 8.48379 12.8272 8.5698 12.7372C8.6628 12.6422 8.79581 12.5882 8.94481 12.5882ZM5.04759 8.71731C4.96559 8.71681 4.88308 8.71681 4.79945 8.71681C4.71583 8.71681 4.63107 8.71681 4.54457 8.71631H4.38656L4.38756 8.53631L4.38758 8.53214C4.38857 8.35465 4.38953 8.184 4.38556 8.01333C4.37956 7.72434 4.19855 7.52435 3.93454 7.51635H3.91754C3.79654 7.51635 3.68553 7.55835 3.60253 7.63734C3.51253 7.72234 3.46053 7.84634 3.45753 7.98633C3.45255 8.16652 3.45352 8.34671 3.45451 8.53183L3.45453 8.53432L3.45553 8.71631H3.31052L3.30508 8.71628C3.1311 8.71529 2.96575 8.71435 2.8005 8.71831C2.6945 8.72031 2.61049 8.73631 2.54249 8.76731C2.35448 8.8513 2.24848 9.0673 2.29048 9.28029C2.33748 9.51228 2.51149 9.66028 2.7455 9.66528C2.85862 9.66782 2.97215 9.66754 3.08711 9.66725C3.15295 9.66708 3.21954 9.66692 3.28652 9.66728H3.45453V9.74627V10.0043V10.1123C3.45353 10.2053 3.45253 10.2993 3.45653 10.3923C3.46353 10.5502 3.52753 10.6842 3.63753 10.7722C3.71754 10.8352 3.81354 10.8672 3.91654 10.8672C3.94754 10.8672 3.97855 10.8642 4.00955 10.8592C4.23756 10.8152 4.38156 10.6212 4.38556 10.3533C4.38796 10.2126 4.3878 10.0726 4.38764 9.93059L4.38756 9.82327V9.66728H4.54957C4.72058 9.66728 4.88258 9.66728 5.04459 9.66628C5.3446 9.66428 5.55661 9.46928 5.55761 9.19329C5.55861 8.9153 5.3486 8.71931 5.04759 8.71731ZM10.7445 5.14253C10.7585 5.12853 10.7645 5.09053 10.7635 5.02953C10.7555 4.74354 10.7565 4.45255 10.7585 4.17156C10.7585 4.11506 10.7588 4.05881 10.759 4.00257C10.7593 3.94632 10.7595 3.89007 10.7595 3.83357V3.58858H3.24325V3.81357C3.24225 4.25556 3.24225 4.68654 3.24925 5.11753C3.26525 5.13353 3.30425 5.15453 3.31925 5.15553C3.47708 5.15989 3.63543 5.16002 3.79393 5.16015C3.85337 5.1602 3.91282 5.16025 3.97228 5.16053L5.32833 5.15953H6.47437C7.86143 5.15953 9.24748 5.16053 10.6345 5.16353H10.6375C10.6945 5.16353 10.7305 5.15653 10.7445 5.14253ZM6.99737 6.14327C5.69594 6.14327 4.39451 6.14327 3.09308 6.14227C2.56906 6.14227 2.28005 5.84929 2.27905 5.3153C2.27805 4.68332 2.27705 4.05034 2.27905 3.41837C2.28005 2.88938 2.56406 2.59839 3.07708 2.59839C4.05812 2.59739 5.03916 2.59739 6.0202 2.59739L10.9074 2.59839C11.4394 2.59839 11.7205 2.88838 11.7205 3.43737C11.7215 4.05834 11.7215 4.67832 11.7205 5.2993C11.7205 5.85128 11.4384 6.14227 10.9054 6.14227C9.60396 6.14327 8.30253 6.14327 7.0011 6.14327H6.99924H6.99737Z" fill="#BCBDBE"/>
</svg>
