<svg width="19" height="18" viewBox="0 0 19 18" fill="none" xmlns="http://www.w3.org/2000/svg">
<path fill-rule="evenodd" clip-rule="evenodd" d="M2.91403 5.19874H15.0837C15.074 5.13685 15.0632 5.07794 15.0503 5.01904C14.7904 3.857 14.1222 2.91359 13.0683 2.21476C10.8681 0.756216 8.47243 0.560545 5.94676 1.63374C4.51688 2.23972 3.54786 3.23604 3.06658 4.59576C3.00429 4.77338 2.96348 4.96398 2.92053 5.16455L2.92047 5.1648C2.91832 5.17678 2.91618 5.18776 2.91403 5.19874ZM13.2036 11.8036C12.8169 11.8056 12.4291 11.8066 12.0423 11.8056L9.53921 11.8066V16.4528H9.96356C10.0692 16.4532 10.1745 16.4533 10.2795 16.4534H10.2802C10.4378 16.4535 10.5949 16.4536 10.7521 16.4548C10.9874 16.4558 11.1227 16.5387 11.1958 16.6085C11.2892 16.6984 11.3376 16.8202 11.3333 16.9599C11.3268 17.1886 11.1711 17.4332 10.751 17.4342L7.2617 17.4352C6.82661 17.4342 6.66762 17.1856 6.66332 16.953C6.66117 16.8162 6.70952 16.6974 6.80298 16.6095C6.91256 16.5067 7.0694 16.4538 7.2703 16.4538L8.45847 16.4528V11.8046H8.45202L4.93693 11.8066C4.84239 11.8066 4.74785 11.8066 4.65654 11.7926C4.41052 11.7517 4.24723 11.574 4.23863 11.3404C4.22897 11.0948 4.38152 10.9071 4.6372 10.8522C4.71054 10.8362 4.78312 10.8359 4.84465 10.8355H4.84467L4.87784 10.8353H8.45954L8.43806 6.18708L6.46135 6.18808L2.50794 6.18708C2.31779 6.18708 2.10401 6.1761 1.96328 6.03933C1.82362 5.90455 1.81932 5.71188 1.82577 5.54216C1.87626 4.31722 2.40803 3.18713 3.40498 2.18282C4.53192 1.04872 5.97577 0.347903 7.69679 0.101318C9.66598 -0.182205 11.4708 0.130269 13.0586 1.02676C14.7227 1.96319 15.7454 3.26599 16.0999 4.89825C16.1477 5.1193 16.1598 5.34425 16.1715 5.56153L16.1719 5.56912C16.1848 5.79174 16.1397 5.9345 16.0366 6.03533C15.898 6.1721 15.6981 6.18708 15.5606 6.18708L13.8858 6.18808H13.2155H9.54351V10.8353H9.57789H13.0683H13.209C13.5334 10.8462 13.7612 11.0449 13.7623 11.3184C13.7633 11.4592 13.7043 11.586 13.5979 11.6748C13.4958 11.7577 13.3605 11.8026 13.2036 11.8036ZM8.38633 1.54403C8.56681 1.45718 8.76126 1.45618 8.92025 1.54403C9.08355 1.63388 9.18023 1.80359 9.18453 2.00925L9.18668 2.08911L9.13189 2.15001L9.13111 2.15111C9.06796 2.24063 9.00143 2.33494 8.88802 2.3936C7.91041 2.89675 6.92743 3.39292 5.94445 3.88809C5.85206 3.93501 5.7543 3.95797 5.65976 3.95797C5.60927 3.95797 5.56093 3.95198 5.51366 3.938C5.38367 3.90206 5.27409 3.81521 5.20534 3.69541C5.06246 3.44284 5.16129 3.17329 5.45135 3.02454C5.95914 2.76569 6.46848 2.50827 6.9774 2.25108L6.97751 2.25102L7.2465 2.11507L7.66118 1.90542C7.90182 1.78263 8.14246 1.66083 8.38633 1.54403ZM13.1645 15.3211H16.9342V14.0762H13.1645V15.3211ZM17.9988 9.65665C17.9977 9.5069 17.9408 9.37213 17.8387 9.27928C17.742 9.19143 17.6131 9.1475 17.467 9.14551C17.178 9.1475 16.9685 9.34417 16.946 9.63668C16.9438 9.67462 16.9438 9.71355 16.9449 9.79042L16.9438 13.0799L12.7165 13.0809C12.1847 13.0809 12.1041 13.4133 12.1041 13.611C12.1009 14.8988 12.1009 16.1867 12.1031 17.4745C12.1031 17.77 12.3276 17.9956 12.6241 17.9986H12.6327C12.7691 17.9986 12.8948 17.9527 12.9883 17.8668C13.0946 17.77 13.1548 17.6262 13.1548 17.4645L13.1569 16.3144H16.9438L16.9449 17.2698L16.9438 17.3267C16.9428 17.4156 16.9428 17.5044 16.96 17.5903C17.0083 17.8359 17.206 17.9916 17.4756 17.9976H17.4842C17.7485 17.9976 17.9687 17.8059 17.9966 17.5484C18.0009 17.5044 18.0009 17.4605 17.9999 17.3836L18.0009 10.658L18.001 10.4585V10.4581C18.0012 10.1916 18.0014 9.92414 17.9988 9.65665ZM4.83648 15.3195H1.0657V14.0726H4.83648V15.3195ZM1.05496 13.0813H5.28016C5.6884 13.0813 5.89681 13.271 5.89681 13.6443C5.89896 14.9092 5.89896 16.1731 5.89681 17.4389C5.89681 17.7634 5.68303 17.994 5.37578 17.999C5.22108 18.004 5.11043 17.9571 5.01589 17.8712C4.93854 17.8003 4.84507 17.6656 4.84507 17.428L4.844 17.2333C4.84293 16.9238 4.84185 16.6143 4.84615 16.3049C3.56774 16.3078 2.31081 16.3068 1.05496 16.3039C1.05818 16.6333 1.05711 16.9368 1.05496 17.2403L1.05388 17.435C1.05281 17.7644 0.846545 17.991 0.541445 18H0.524256C0.387821 18 0.2675 17.9561 0.174036 17.8712C0.0601606 17.7684 0 17.6166 0 17.433V9.70396C0 9.36952 0.201968 9.15089 0.514588 9.1449C0.677881 9.1459 0.787459 9.18683 0.884146 9.27468C0.961495 9.34556 1.05388 9.47834 1.05496 9.71095V11.9452V13.0813Z" fill="#FA7D06"/>
</svg>
