<svg width="18" height="18" viewBox="0 0 18 18" fill="none" xmlns="http://www.w3.org/2000/svg">
<path fill-rule="evenodd" clip-rule="evenodd" d="M13.0295 15.0088C13.2835 15.0048 13.5202 15.001 13.7599 15.0172C14.2679 15.0511 14.4469 15.2526 14.4439 15.7871C14.4429 16.0564 14.4429 16.3257 14.4429 16.5951L14.4439 16.8839C14.4454 16.8843 14.4472 16.8849 14.4488 16.8854C14.4513 16.8862 14.4537 16.887 14.4549 16.887L14.9349 16.889C15.5289 16.8911 16.1239 16.8932 16.7169 16.887C16.8749 16.8849 16.9559 16.7965 16.9579 16.6228L16.9669 16.0544L16.968 15.983C16.9747 15.5798 16.9816 15.1648 16.9769 14.7582C16.9769 14.6585 16.9249 14.53 16.8559 14.4591C14.7509 12.2717 12.4889 9.92495 10.2069 7.58542C9.93287 7.30583 9.83787 7.01391 9.88687 6.61096C9.96987 5.93563 10.0379 5.21712 9.88687 4.51505C9.38487 2.1817 7.00087 0.632636 4.67487 1.12295C2.18887 1.65232 0.652866 3.99082 1.10087 6.56368C1.46187 8.63595 3.34687 10.5746 5.87287 10.2292C6.08287 10.1994 6.29787 10.183 6.50487 10.1675C6.54487 10.1639 6.58462 10.1609 6.62437 10.1578C6.66412 10.1547 6.70387 10.1516 6.74387 10.148C6.98087 10.1274 7.17887 10.2076 7.34987 10.3937C7.479 10.5339 7.61227 10.6699 7.74517 10.8054C7.75841 10.819 7.77164 10.8325 7.78487 10.846L7.81083 10.8723C7.97771 11.0419 8.14921 11.2161 8.30987 11.3959C8.43787 11.5388 8.57087 11.5881 8.76487 11.5789C9.32587 11.5449 9.87287 11.5254 10.3929 11.5192H10.4069C10.7519 11.5192 10.9289 11.6693 10.9809 12.0044C11.0126 12.2104 11.0188 12.4225 11.0247 12.6276L11.0249 12.6325L11.0289 12.762C11.0328 12.9051 11.0319 13.0472 11.0309 13.1934V13.1958L11.0299 13.314C11.1597 13.3145 11.2867 13.3135 11.4114 13.3125C11.5085 13.3117 11.6043 13.3109 11.6989 13.3109C11.8569 13.3109 12.0129 13.3119 12.1699 13.3171C12.5439 13.3294 12.6949 13.4754 12.7259 13.8557C12.741 14.04 12.74 14.2262 12.739 14.4081L12.7389 14.4375C12.7379 14.5197 12.7369 14.603 12.7379 14.6852V14.9792V15.0121C12.802 15.0121 12.8656 15.0111 12.9285 15.0102C12.9588 15.0098 12.9889 15.0093 13.0189 15.009L13.0295 15.0088ZM14.9101 10.9549C15.8375 11.9093 16.7652 12.864 17.694 13.8164C17.913 14.0425 18.008 14.2779 18.001 14.5812C17.989 15.091 17.986 15.6111 17.984 16.1128V16.1158C17.983 16.3471 17.982 16.5794 17.98 16.8107C17.975 17.3288 17.41 17.9106 16.9 17.9229C16.3593 17.9362 15.8197 17.9545 15.279 17.9729L15.269 17.9733L14.544 17.9969C14.479 17.999 14.418 18 14.36 18C14.031 18 13.804 17.9609 13.658 17.817C13.487 17.6485 13.45 17.3637 13.444 16.9269C13.442 16.7305 13.442 16.5342 13.443 16.3276L13.444 16.1014H12.633C12.609 16.1012 12.5849 16.1011 12.5607 16.101C12.4645 16.1005 12.3666 16.1 12.27 16.0943C11.878 16.0696 11.72 15.9061 11.707 15.5083C11.7 15.2843 11.702 15.0561 11.704 14.8361C11.705 14.7364 11.706 14.6356 11.706 14.5359V14.3509H10.837C10.12 14.3499 10.003 14.2296 9.99899 13.4957C9.99832 13.3471 9.99854 13.1989 9.99876 13.0476C9.99887 12.9708 9.99899 12.8931 9.99899 12.8142V12.5952H9.87699C9.83859 12.5952 9.80039 12.5952 9.76231 12.5951C9.64864 12.5949 9.53609 12.5947 9.42299 12.5963L9.22499 12.5973C8.96099 12.5994 8.69799 12.6014 8.43399 12.6096C8.19099 12.6096 7.98399 12.5325 7.80899 12.3485C7.7122 12.2466 7.61414 12.146 7.51582 12.0451C7.49122 12.0198 7.4666 11.9946 7.44199 11.9692C7.24399 11.7678 7.03999 11.5601 6.84699 11.3474C6.74699 11.2374 6.65899 11.2096 6.50399 11.2405C3.93199 11.7297 1.49599 10.3914 0.448986 7.90797C-0.228014 6.3034 -0.136014 4.48914 0.701986 2.93083C1.53899 1.3756 2.97999 0.332271 4.65799 0.068098C7.66899 -0.403713 10.43 1.62333 10.946 4.68547C11.055 5.33511 11.052 5.994 10.936 6.64261C10.91 6.78549 10.936 6.8667 11.041 6.97463C11.7773 7.73073 12.5125 8.48741 13.2478 9.24423C13.4932 9.49675 13.7386 9.74929 13.984 10.0018C14.2927 10.3194 14.6014 10.6371 14.9101 10.9549ZM4.0708 4.84447C4.2488 4.84447 4.4148 4.77457 4.5368 4.64608C4.6588 4.51862 4.7238 4.34902 4.7218 4.16811C4.7168 3.80936 4.4258 3.51949 4.0718 3.51949H4.0658C3.7168 3.52258 3.4228 3.82787 3.4258 4.18455C3.4268 4.54329 3.7218 4.84447 4.0688 4.84447H4.0708ZM4.06305 2.48546H4.07705C4.52405 2.48854 4.94005 2.67048 5.24805 2.99427C5.55705 3.31909 5.72305 3.75081 5.71505 4.21132C5.70005 5.12616 4.96605 5.8642 4.07605 5.8642H4.05805C3.61305 5.85906 3.19805 5.6802 2.89005 5.36155C2.58105 5.04187 2.41405 4.61734 2.41905 4.16506C2.42905 3.22041 3.15005 2.48546 4.06305 2.48546Z" fill="#BCBDBE"/>
</svg>
