<svg width="18" height="18" viewBox="0 0 18 18" fill="none" xmlns="http://www.w3.org/2000/svg">
<path fill-rule="evenodd" clip-rule="evenodd" d="M17.594 3.20977C17.145 3.04477 16.698 2.87477 16.252 2.70477L9.374 0.0927736C9.196 0.0247736 8.993 -0.0512264 8.734 0.0467736C6.95579 0.725851 5.17612 1.4013 3.39624 2.07683L3.39619 2.07685L2.469 2.42877L0.418 3.20677C0.09 3.33077 0 3.46177 0 3.81377V17.9748H0.983V15.7998V15.7995C0.983 11.9006 0.983 8.0017 0.98 4.10277C0.98 4.05177 0.984 4.03777 1.021 4.02277C2.03974 3.63978 3.05728 3.25437 4.07502 2.8689L4.96 2.53377C6.272 2.03677 7.584 1.53977 8.897 1.04377C8.954 1.02377 9.045 1.02377 9.103 1.04477C10.456 1.55477 11.808 2.06677 13.161 2.57977L14.2569 2.99456L14.2576 2.9948C15.1527 3.33368 16.0476 3.67249 16.943 4.00977C17 4.03177 17.011 4.04477 17.011 4.04477C17.011 4.04477 17.02 4.05977 17.02 4.12177C17.015 7.99977 17.015 11.8778 17.015 15.7558V17.9808H17.998V15.8778C17.997 11.8498 17.997 7.82277 18 3.79477C18.001 3.50177 17.868 3.31077 17.594 3.20977ZM14.0734 6.4286H14.0674V7.4346H14.0734V7.6026H14.0674V8.6086V8.7766H3.92738H3.92138V8.6086H3.92738V7.6026V7.4346V6.4286V6.2616H14.0674H14.0734V6.4286ZM15.0624 8.7916V5.8496C15.0614 5.4516 14.8754 5.2666 14.4774 5.2666H3.51437C3.11737 5.2666 2.93237 5.4536 2.93237 5.8526V8.7866L2.35938 8.7936V9.7776H2.93738V17.9866H3.92037V9.7836H14.0844V17.9736H15.0664V9.7686H15.6404V8.7916H15.0624ZM9.19434 10.9579V11.5219H8.21134V10.9549H7.44934V13.4709H9.96334V10.9579H9.19434ZM11.8328 14.4766V15.0406H10.8498V14.4806H10.0898V16.9946H12.6068V14.4766H11.8328ZM7.13844 14.4797V15.0377H6.15444V14.4727H5.39844V16.9907H7.90944V14.4797H7.13844ZM10.9623 13.4829H13.0153C13.4123 13.4839 13.5973 13.6699 13.5983 14.0679V17.3879C13.5983 17.8009 13.4173 17.9859 13.0093 17.9869L9.67334 17.9859C9.28534 17.9859 9.09634 17.7989 9.09634 17.4129L9.09534 14.4739H8.90434V17.4009C8.90334 17.7999 8.71834 17.9859 8.32234 17.9869H4.98534C4.58734 17.9859 4.40234 17.7999 4.40234 17.3999V14.0629C4.40234 13.6679 4.59034 13.4839 4.99034 13.4829L6.45534 13.4699V10.5539C6.45534 10.1449 6.63934 9.96194 7.05034 9.96194L10.3693 9.96094C10.7763 9.96194 10.9573 10.1469 10.9583 10.5599L10.9623 13.4829Z" fill="white"/>
</svg>
