<svg width="18" height="18" viewBox="0 0 18 18" fill="none" xmlns="http://www.w3.org/2000/svg">
<path fill-rule="evenodd" clip-rule="evenodd" d="M10.952 11.4515L7.035 11.4525C6.585 11.4525 6.44 11.5995 6.44 12.0545V17.0145H0.976V14.9265L0.976056 13.2651C0.976194 10.4959 0.976333 7.72655 0.973 4.95654C0.973 4.84854 0.997 4.80454 1.086 4.74854C3.013 3.51754 4.937 2.28254 6.86 1.04354C6.942 0.988541 6.985 0.987541 7.072 1.03154C10.351 2.71154 13.632 4.38654 16.915 6.05854C17.005 6.10454 17.027 6.14154 17.027 6.25054C17.024 8.99454 17.024 11.7385 17.024 14.4815V16.9515C17.024 16.9725 17.023 16.9925 17.022 17.0135H11.561V12.0585C11.561 11.5985 11.413 11.4515 10.952 11.4515ZM7.41406 17.0096H10.5871V12.4346H7.41406V17.0096ZM17.601 5.35254C17.355 5.23755 17.113 5.11255 16.871 4.98756L16.871 4.98754C16.683 4.89054 16.495 4.79354 16.306 4.70154C16.23 4.66354 16.213 4.63654 16.214 4.55354C16.22 4.13954 16.219 3.72554 16.218 3.31254V2.58654H15.25V4.15954C15.231 4.15054 15.213 4.14154 15.196 4.13254L13.777 3.41154L13.3885 3.21408C11.3439 2.17488 9.29868 1.13536 7.257 0.0905412C7.003 -0.0404588 6.791 -0.0294588 6.549 0.124541C4.206 1.62754 2.244 2.87654 0.373 4.05654C0.108 4.22454 0 4.42154 0 4.73354C0.005 8.20954 0.005 11.6855 0.005 15.1605V17.3565C0.005 17.8485 0.153 17.9995 0.639 17.9995H13.608H17.389C17.843 17.9995 17.996 17.8445 17.996 17.3865V12.2825L17.9959 11.2374C17.9958 9.49449 17.9957 7.75117 17.999 6.00854C18 5.68454 17.878 5.48254 17.601 5.35254ZM15.2498 8.56774C15.2448 8.59474 15.2428 8.62374 15.2408 8.65374H10.4018V5.90574L10.4138 5.91174L11.6008 6.51574L11.7614 6.59759L11.7616 6.59769C12.8581 7.15645 13.9556 7.71573 15.0568 8.26774C15.2348 8.35774 15.2778 8.42374 15.2498 8.56774ZM15.6268 9.62374C16.0128 9.62374 16.2108 9.42974 16.2158 9.04774C16.2178 8.91074 16.2178 8.77474 16.2168 8.63774C16.2158 8.46674 16.2158 8.29574 16.2198 8.12574C16.2258 7.85874 16.1088 7.67074 15.8658 7.55074C15.5403 7.39186 15.2185 7.22777 14.8965 7.0636L14.7438 6.98574L10.1678 4.65974C9.9908 4.56974 9.8078 4.56774 9.6648 4.65274C9.5208 4.73874 9.4338 4.90174 9.4268 5.10074C9.4258 5.11774 9.4258 5.13574 9.4268 5.17574C9.4258 6.46774 9.4258 7.75874 9.4258 9.04974C9.4258 9.46274 9.5848 9.62374 9.9938 9.62374H13.7378H15.6268ZM7.6126 8.65264V7.63664C7.6126 6.76564 7.6126 5.89464 7.6116 5.02364C7.6116 4.96464 7.6156 4.90164 7.6206 4.83964C7.6306 4.69864 7.6406 4.55464 7.5916 4.47064C7.5506 4.40364 7.4336 4.35564 7.3206 4.30964C7.2496 4.28164 7.1786 4.25164 7.1166 4.21664C7.0586 4.18364 7.0286 4.18364 6.9686 4.22264C5.5876 5.11164 4.2036 5.99664 2.8176 6.87964C2.7646 6.91264 2.7516 6.93764 2.7526 7.00464C2.7546 7.35064 2.7546 7.69864 2.7546 8.04564V8.60564C2.7546 8.62064 2.7556 8.63664 2.7576 8.65264H7.6126ZM7.3186 3.24664C7.6136 3.41764 7.9266 3.57264 8.2296 3.72264C8.4666 3.84164 8.5766 4.01864 8.5766 4.27064C8.5746 5.30964 8.5746 6.34764 8.5746 7.38664L8.5736 9.08564C8.5736 9.43764 8.3876 9.62364 8.0326 9.62364C7.82722 9.62364 7.62135 9.62389 7.41535 9.62414C7.2091 9.62439 7.00272 9.62464 6.7966 9.62464C6.5256 9.62464 6.2546 9.62464 5.9836 9.62364H2.3466C1.9476 9.62364 1.7846 9.45964 1.7836 9.05864L1.7826 8.08864C1.7836 7.63664 1.7836 7.18364 1.7806 6.73064C1.7806 6.49864 1.8706 6.33864 2.0746 6.20864C3.5516 5.26864 5.0866 4.28264 6.6356 3.27964C6.8776 3.12364 7.0896 3.11464 7.3186 3.24664Z" fill="#FA7D06"/>
</svg>
