<svg width="18" height="18" viewBox="0 0 18 18" fill="none" xmlns="http://www.w3.org/2000/svg">
<path fill-rule="evenodd" clip-rule="evenodd" d="M5.153 15.251C5.48 15.254 5.677 15.451 5.679 15.778C5.6805 15.9955 5.68031 16.2124 5.68012 16.4295L5.68 16.647V17.001H8.204V7.452H0.996V16.998H3.519V16.771V16.7708C3.519 16.4428 3.519 16.1189 3.52 15.795C3.521 15.456 3.72 15.253 4.05 15.251C4.418 15.249 4.786 15.248 5.153 15.251ZM6.445 6.443H2.762V3.346H6.445V6.443ZM7.44 6.452H8.629C9.008 6.454 9.2 6.643 9.2 7.013V17.441C9.2 17.804 9.006 17.996 8.641 17.996H0.557C0.193 17.996 0 17.804 0 17.441V7.013C0 6.642 0.192 6.453 0.571 6.452H1.76L1.759 2.939C1.759 2.529 1.943 2.346 2.354 2.346H4.106L4.107 1.861C4.109 1.449 4.11 1.039 4.103 0.629C4.1 0.455 4.126 0.206 4.378 0.035L4.429 0H4.772L4.823 0.035C5.075 0.207 5.1 0.456 5.097 0.629C5.091 1.04786 5.092 1.46572 5.093 1.88457L5.093 1.885L5.094 2.346L6.865 2.347C7.251 2.348 7.44 2.535 7.44 2.921V6.452ZM15.7737 14.0754H15.7757C16.1017 14.0754 16.2377 14.2544 16.2957 14.4044C16.3517 14.5534 16.3347 14.7114 16.2467 14.8384C16.1507 14.9784 15.9787 15.0634 15.7867 15.0644C15.6422 15.0644 15.4977 15.0647 15.3532 15.0649C15.2087 15.0652 15.0642 15.0654 14.9197 15.0654C14.8117 15.0654 14.7039 15.0652 14.5962 15.0649C14.4885 15.0647 14.3807 15.0644 14.2727 15.0644H13.0837C12.7682 15.0639 12.7022 15.0639 12.6362 15.0639C12.5702 15.0639 12.5042 15.0639 12.1887 15.0634C11.9927 15.0624 11.8247 14.9814 11.7267 14.8414C11.6387 14.7164 11.6207 14.5594 11.6747 14.4094C11.7307 14.2574 11.8657 14.0754 12.1937 14.0754H12.1957C12.418 14.0766 12.4891 14.0773 12.5267 14.0777H12.5267H12.5267H12.5267H12.5268H12.5268L12.5533 14.0779C12.5767 14.0781 12.6001 14.078 12.6922 14.0778H12.6926L12.9127 14.0774L13.4847 14.0764L13.9927 14.0774C14.2883 14.0769 14.5826 14.0767 14.8767 14.0764H14.8775H14.8783H14.8791H14.8798H14.8806H14.8814H14.8821H14.8829H14.8836L14.8863 14.0764C15.182 14.0761 15.4775 14.0759 15.7737 14.0754ZM16.9988 4.5109V16.9979H15.0668V16.3929C15.0648 16.0319 14.8728 15.8389 14.5108 15.8369C14.1548 15.8349 13.8008 15.8349 13.4448 15.8379C13.1068 15.8399 12.9108 16.0339 12.9068 16.3709C12.9058 16.5609 12.9058 16.7499 12.9068 16.9419V17.0009H10.9728V4.5109H16.9988ZM17.9648 3.7899C17.8388 3.6059 17.6538 3.5159 17.3988 3.5159H17.3928C16.6498 3.5219 15.9078 3.5209 15.1668 3.5199L14.3878 3.5189L10.5378 3.5199C10.1628 3.5199 9.9778 3.7049 9.9728 4.0839V17.3739C9.9728 17.8219 10.1458 17.9969 10.5928 17.9969L12.0198 17.9959C13.8058 17.9949 15.5898 17.9959 17.3748 17.9999C17.5478 17.9999 17.7968 17.9719 17.9648 17.7269L17.9998 17.6759V3.8409L17.9648 3.7899ZM2.311 9.7863H2.306C1.946 9.7863 1.822 9.5613 1.78 9.4273C1.735 9.2823 1.759 9.1303 1.846 9.0123C1.945 8.8773 2.111 8.8003 2.302 8.7993C2.904 8.7983 3.507 8.7983 4.111 8.7983H6.843C7.048 8.7983 7.205 8.8523 7.311 8.9603C7.398 9.0483 7.442 9.1653 7.44 9.3003C7.435 9.5353 7.279 9.7863 6.852 9.7863L3.962 9.7853C3.72644 9.78573 3.49089 9.78561 3.25525 9.78548H3.2552H3.25515H3.25509H3.25504H3.25499H3.25494H3.25488H3.25483C2.94042 9.78532 2.62587 9.78516 2.311 9.7863ZM6.8914 11.1433H6.8884C6.3214 11.1453 5.7524 11.1453 5.1864 11.1453L2.2934 11.1433H2.2904C2.0294 11.1433 1.8454 11.2703 1.7964 11.4833C1.7644 11.6223 1.7814 11.8313 1.8944 11.9573C2.0044 12.0803 2.1944 12.1263 2.3344 12.1273C2.7234 12.1313 3.1104 12.1323 3.4984 12.1323H4.0444H5.1024C5.34198 12.1319 5.5814 12.1318 5.82079 12.1317H5.82082H5.82084H5.82086H5.82089H5.82091H5.82094H5.82096C6.18004 12.1316 6.53904 12.1315 6.8984 12.1303C7.0944 12.1293 7.2624 12.0483 7.3604 11.9063C7.4474 11.7813 7.4654 11.6233 7.4104 11.4753C7.3544 11.3243 7.2184 11.1433 6.8914 11.1433ZM7.41767 13.8482C7.46267 13.9932 7.43867 14.1442 7.35167 14.2632C7.25267 14.3982 7.08667 14.4762 6.89667 14.4772C6.67067 14.4777 6.44467 14.4777 6.21892 14.4777C5.99317 14.4777 5.76767 14.4777 5.54267 14.4782L2.29967 14.4792H2.29667C1.92267 14.4792 1.82467 14.2482 1.79967 14.1492C1.76367 14.0122 1.77467 13.8032 1.88467 13.6732C1.99267 13.5442 2.18967 13.4972 2.32567 13.4952C2.91067 13.4892 3.49767 13.4882 4.08567 13.4912H5.25267L5.6608 13.4913C6.06914 13.4915 6.47791 13.4917 6.88667 13.4902H6.88967C7.23367 13.4902 7.36667 13.6842 7.41767 13.8482ZM4.92901 4.40071L4.5994 4.40035L4.26979 4.40071L3.9919 4.4011C3.8139 4.4011 3.6669 4.4571 3.5659 4.5611C3.4779 4.6521 3.4339 4.7731 3.4379 4.9081C3.4459 5.1981 3.6629 5.3861 3.9899 5.3871L3.7749 5.3881L5.2059 5.3871C5.5419 5.3861 5.7689 5.1891 5.7689 4.8951C5.7689 4.7451 5.7089 4.6131 5.5999 4.5241C5.5009 4.4441 5.3659 4.4011 5.2069 4.4011L4.92901 4.40071ZM12.1747 6.2668H12.1717C11.7977 6.2668 11.6987 6.0368 11.6737 5.9378C11.6387 5.7988 11.6517 5.5898 11.7627 5.4608C11.8697 5.3328 12.0657 5.2858 12.2007 5.2838C12.4333 5.28139 12.5049 5.27995 12.5446 5.27915L12.5701 5.27867C12.6018 5.27818 12.6334 5.27824 12.7923 5.27853H12.7924H12.7925H12.7926L12.9387 5.2788H13.4927V5.4788L13.4937 5.2788H15.7647C16.0627 5.2798 16.2717 5.4428 16.3097 5.7038C16.3297 5.8448 16.2917 5.9788 16.2017 6.0838C16.1007 6.2008 15.9477 6.2658 15.7717 6.2668H14.2017H12.1747ZM12.1966 8.0256H12.9146H13.8996L14.3639 8.02547H14.3647C14.8287 8.02529 15.2929 8.0251 15.7576 8.0266H15.7676C15.8656 8.0266 16.1196 8.0186 16.2586 7.7726C16.3476 7.6166 16.3496 7.4436 16.2656 7.2986C16.1706 7.1366 15.9826 7.0396 15.7616 7.0396C14.2416 7.0376 13.7206 7.0376 12.2016 7.0396C12.0226 7.0396 11.8746 7.0936 11.7746 7.1976C11.6866 7.2876 11.6416 7.4076 11.6456 7.5436C11.6536 7.8316 11.8746 8.0256 12.1966 8.0256ZM15.0485 8.79849H15.0492H15.05C15.298 8.79874 15.5457 8.79899 15.793 8.79899C15.946 8.79899 16.084 8.85299 16.179 8.94999C16.269 9.04099 16.317 9.16499 16.316 9.29899C16.313 9.57199 16.105 9.77199 15.812 9.78399C15.792 9.78499 15.772 9.78599 15.752 9.78599C15.745 9.78599 15.7383 9.78574 15.7316 9.78549L15.7315 9.78549C15.7247 9.78524 15.718 9.78499 15.711 9.78499H12.939L12.7202 9.78541H12.7199C12.6235 9.7856 12.5979 9.78566 12.5724 9.78549L12.5416 9.78523H12.5415C12.5011 9.78485 12.4261 9.78414 12.205 9.78299L12.2036 9.78298C12.0916 9.78198 11.9246 9.78049 11.828 9.65999C11.756 9.56999 11.637 9.39099 11.654 9.20699C11.679 8.95399 11.878 8.79799 12.175 8.79799H12.178C12.4177 8.79839 12.4971 8.79863 12.5444 8.79878L12.5452 8.79878L12.5759 8.79887C12.6248 8.79899 12.6738 8.79899 12.972 8.79899L14.301 8.79799C14.5495 8.79799 14.7981 8.79824 15.0464 8.79849L15.0485 8.79849ZM12.2147 11.5392C12.4372 11.5426 12.3372 11.5448 12.2808 11.546C12.2379 11.5469 12.2202 11.5472 12.3897 11.5472C12.5697 11.5472 12.7497 11.5472 12.9297 11.5462H15.6857C15.7034 11.5458 15.7215 11.5458 15.7399 11.5457H15.7399C15.7673 11.5456 15.7952 11.5454 15.8227 11.5442C16.1147 11.5322 16.3227 11.3342 16.3297 11.0622C16.3327 10.9282 16.2847 10.8042 16.1957 10.7132C16.0997 10.6142 15.9627 10.5602 15.8097 10.5602C15.2267 10.5582 14.6457 10.5582 14.0647 10.5582H12.7967C12.5291 10.5582 12.512 10.5582 12.4948 10.5584L12.4912 10.5584C12.4742 10.5585 12.4423 10.5588 12.1937 10.5592C11.9717 10.5592 11.7787 10.6692 11.6907 10.8452C11.6157 10.9952 11.6327 11.1682 11.7367 11.3082C11.8477 11.4562 12.0607 11.5362 12.2147 11.5392ZM12.4932 13.3041C12.4764 13.3032 12.4488 13.3017 12.1947 13.2993C12.0487 13.2983 11.8557 13.2383 11.7537 13.1083C11.6547 12.9833 11.6157 12.7323 11.7107 12.5823C11.8027 12.4393 11.9977 12.3293 12.1647 12.3253C12.4471 12.319 12.3953 12.3166 12.3953 12.316C12.3953 12.3155 12.4231 12.3159 12.6297 12.3163L14.1007 12.3183C14.2114 12.3183 14.3223 12.3184 14.4332 12.3184C14.8769 12.3186 15.3214 12.3187 15.7647 12.3163H15.7677C16.1307 12.3163 16.2547 12.5403 16.2967 12.6743C16.3417 12.8193 16.3177 12.9693 16.2307 13.0893C16.1317 13.2243 15.9657 13.3023 15.7757 13.3033L13.3607 13.3043C13.2667 13.3043 13.1727 13.3046 13.0787 13.3048C12.9847 13.3051 12.8907 13.3053 12.7967 13.3053C12.5168 13.3053 12.5116 13.3051 12.4932 13.3041Z" fill="white"/>
</svg>
