<svg width="18" height="18" viewBox="0 0 18 18" fill="none" xmlns="http://www.w3.org/2000/svg">
<path fill-rule="evenodd" clip-rule="evenodd" d="M7.38513 16.2411H4.70312V2.45508H7.38513V16.2411ZM14.052 9.6019C14.0525 7.19529 14.0529 4.78839 14.0542 2.38149C14.0542 2.35549 14.0522 2.34549 14.0513 2.34249C14.0513 2.34336 14.0484 2.34253 14.0421 2.34067C14.0337 2.33823 14.0193 2.33402 13.9972 2.32949C12.8313 2.07549 11.6652 1.81849 10.4993 1.56149L9.31225 1.30049C9.06625 1.24649 8.82025 1.19349 8.56925 1.13949L8.40625 1.10449V16.9465L14.0513 16.3025V13.2105C14.0516 12.0077 14.0518 10.8049 14.052 9.6019ZM16.676 16.2517C16.94 16.2497 17.206 16.2507 17.472 16.2527C17.772 16.2547 17.995 16.4577 18 16.7367C18.002 16.8677 17.956 16.9897 17.867 17.0807C17.769 17.1817 17.626 17.2377 17.466 17.2377C17.292 17.2387 17.118 17.2397 16.944 17.2417C16.506 17.2457 16.052 17.2477 15.606 17.2347C14.8159 17.207 14.0277 17.2994 13.2598 17.3893L13.231 17.3927L11.762 17.5607C10.992 17.6487 10.223 17.7367 9.454 17.8267C9.143 17.8627 8.833 17.9027 8.523 17.9427L8.083 17.9987L7.79 17.9997L7.741 17.9897C7.398 17.8417 7.396 17.5497 7.395 17.3147C7.395 17.2897 7.395 17.2647 7.394 17.2387H5.701C5.3635 17.2387 5.02605 17.2386 4.68862 17.2385C3.33941 17.2382 1.9907 17.2379 0.642 17.2427H0.635C0.438 17.2427 0.163 17.2047 0.012 16.8867L0 16.8327L0.011 16.6067C0.157 16.2897 0.429 16.2477 0.626 16.2477H0.642C1.374 16.2547 2.108 16.2537 2.84 16.2527L3.708 16.2517L3.707 1.45169L7.398 1.45269V0.605687C7.399 0.361687 7.458 0.194687 7.582 0.0966873C7.707 -0.00331274 7.89 -0.0253127 8.138 0.0286873C9.08409 0.238929 10.0314 0.44671 10.9785 0.654443C11.2387 0.711511 11.4989 0.768576 11.759 0.825687L15.042 1.54369V16.2517H16.676ZM9.4081 8.86979C9.6681 8.86079 9.9201 8.86079 10.1601 8.86979C10.4321 8.87979 10.6421 9.08779 10.6491 9.35279C10.6561 9.62279 10.4461 9.83979 10.1611 9.85779C10.1131 9.86179 10.0641 9.86279 10.0151 9.86279C9.97714 9.86279 9.93917 9.86179 9.90121 9.86079L9.9011 9.86079L9.7901 9.85979L9.6751 9.86079C9.5841 9.86279 9.4931 9.86379 9.4031 9.85879C9.1191 9.83979 8.9101 9.62179 8.9181 9.35079C8.9251 9.08079 9.1311 8.87879 9.4081 8.86979Z" fill="#FA7D06"/>
</svg>
