<svg width="18" height="18" viewBox="0 0 18 18" fill="none" xmlns="http://www.w3.org/2000/svg">
<g clip-path="url(#clip0)">
<path fill-rule="evenodd" clip-rule="evenodd" d="M5.63134 11.1131C5.72973 11.1131 5.82805 11.113 5.92625 11.113H6.71325C7.21925 11.113 7.40725 11.283 7.40825 11.741L7.40725 12.892V12.8931C7.40625 13.7897 7.40525 14.6834 7.41125 15.58C7.41625 16.207 7.72225 16.654 8.29725 16.874C8.55025 16.97 8.80525 17.017 9.05125 17.017C9.35925 17.017 9.65125 16.942 9.90225 16.79C10.3472 16.519 10.6032 16.041 10.6032 15.478C10.6022 14.2201 10.6032 12.9632 10.6042 11.7053V11.702C10.6042 11.3 10.8092 11.113 11.2522 11.113H11.9522C12.4212 11.116 12.8882 11.116 13.3552 11.11C14.2312 11.099 14.8183 10.611 14.8872 9.836C14.9043 9.6575 14.9007 9.48351 14.8969 9.30033C14.8967 9.29058 14.8965 9.2808 14.8962 9.271C14.8942 9.187 14.8923 9.101 14.8923 9.013V8.863H3.11325V9.618C3.11625 10.562 3.71225 11.107 4.74425 11.112C5.0398 11.1135 5.33592 11.1133 5.63134 11.1131ZM8.94325 17.999C7.59925 17.976 6.31925 16.793 6.30925 15.566C6.30325 14.896 6.30425 14.228 6.30625 13.559L6.30725 12.118H6.14225C5.99825 12.118 5.85725 12.117 5.71825 12.116C5.58125 12.114 5.44525 12.113 5.31025 12.113C5.15325 12.113 4.99625 12.115 4.84025 12.121C3.50725 12.169 2.18125 11.141 2.03725 9.914C1.98151 9.42824 2.00008 8.92067 2.018 8.43076L2.01825 8.424L2.02425 8.26C2.03125 8.042 2.22325 7.896 2.59525 7.827L2.72725 7.803L2.72625 0.6C2.72625 0.185 2.93125 0 3.38825 0L14.5763 0.001C15.0983 0.001 15.2832 0.167 15.2832 0.638L15.2852 2.064V2.06536C15.2852 3.4889 15.2852 4.91245 15.2823 6.337C15.2823 6.55 15.1763 6.734 14.9983 6.829C14.8352 6.915 14.6423 6.913 14.4663 6.822C14.2713 6.722 14.1802 6.564 14.1812 6.324C14.1837 5.44869 14.1835 4.57274 14.1833 3.69718C14.1833 3.47843 14.1833 3.25969 14.1833 3.041V1.017H12.4192L12.4202 1.936L12.4192 3.052C12.4192 3.387 12.2012 3.615 11.8792 3.619C11.7232 3.615 11.5942 3.575 11.4972 3.487C11.3822 3.384 11.3193 3.23 11.3193 3.051V1.016H9.55525L9.55625 1.87C9.55825 2.073 9.55925 2.277 9.55325 2.48C9.54525 2.75 9.30625 2.964 9.01025 2.966H9.00625C8.70325 2.966 8.46325 2.75 8.45825 2.474C8.45226 2.1757 8.45325 1.8764 8.45424 1.57214L8.45425 1.57L8.45525 1.022H6.69325L6.69225 4.345C6.69125 4.697 6.47725 4.926 6.14525 4.927H6.14125C5.99325 4.927 5.86525 4.882 5.77125 4.796C5.65525 4.691 5.59125 4.527 5.59125 4.333V1.021H3.84225V7.844L15.2852 7.843C15.5562 7.843 15.7402 7.891 15.8462 7.989C15.9512 8.086 16.0013 8.252 15.9983 8.495C15.9972 8.633 15.9983 8.771 15.9993 8.909V8.92684C16.0013 9.2913 16.0034 9.66783 15.9502 10.025C15.7832 11.155 14.5592 12.114 13.2802 12.117H11.7043L11.7032 15.523C11.7032 16.148 11.3942 16.783 10.8562 17.263C10.3322 17.732 9.65425 18 8.98625 18C8.97225 18 8.95825 18 8.94325 17.999ZM9.01103 15.0342H9.01603C9.31603 15.0372 9.55703 15.2622 9.55603 15.5362C9.55603 15.6712 9.49703 15.7982 9.39203 15.8932C9.28803 15.9872 9.15203 16.0382 9.00503 16.0382H8.99803C8.69903 16.0342 8.45603 15.8082 8.45703 15.5362C8.45703 15.4012 8.51603 15.2742 8.62003 15.1802C8.72403 15.0862 8.86303 15.0342 9.01103 15.0342Z" fill="#BCBDBE"/>
</g>
<defs>
<clipPath id="clip0">
<rect width="14" height="18" fill="white" transform="translate(2)"/>
</clipPath>
</defs>
</svg>
