<svg width="18" height="15" viewBox="0 0 18 15" fill="none" xmlns="http://www.w3.org/2000/svg">
<path fill-rule="evenodd" clip-rule="evenodd" d="M16.135 13.9753H1.75V11.4903L5.835 11.4893C6.246 11.4883 6.415 11.3123 6.416 10.8793V10.5843C6.417 10.3183 6.418 10.0523 6.415 9.76827C7.413 9.56827 8.41 9.36427 9.406 9.16027L11.036 8.82927C11.348 8.76527 11.484 8.59927 11.488 8.27427C11.491 7.97227 11.492 7.66927 11.489 7.35527L14.942 6.65527V10.7523L8.739 10.7533C8.179 10.7533 8.116 11.1013 8.114 11.2523C8.114 11.4223 8.183 11.5303 8.241 11.5913C8.348 11.7033 8.51 11.7573 8.734 11.7573H16.135V13.9753ZM3.10056 3.19531H3.35256L3.59656 10.4783H2.85656L3.10056 3.19531ZM8.52026 0.995H8.76726L8.87926 2.773C8.90152 3.15477 8.92401 4.20961 8.94725 5.2999L8.94725 5.30001C8.97308 6.51152 8.99984 7.76678 9.02826 8.191C9.02826 8.19828 9.02857 8.20493 9.02885 8.21078V8.2108L9.02885 8.21084C9.02907 8.21541 9.02926 8.21949 9.02926 8.223C9.0267 8.22236 9.02454 8.22254 9.02201 8.22275C9.02059 8.22287 9.01906 8.223 9.01726 8.223C8.78326 8.256 8.55226 8.306 8.31026 8.359L8.28226 8.365L8.52026 0.995ZM17.4813 13.994L17.1133 13.993V11.339C17.1133 10.95 16.9313 10.759 16.5583 10.753H16.4913C16.3043 10.75 16.1153 10.748 15.9123 10.753C15.9156 10.4838 15.9155 10.2139 15.9153 9.94396L15.9153 9.782L15.9133 8.509L15.9132 8.21772C15.9131 7.53761 15.913 6.85692 15.9183 6.177C15.9193 6.021 15.9023 5.799 15.7403 5.659C15.6193 5.557 15.4563 5.529 15.2423 5.572L11.0123 6.439C10.6543 6.513 10.5273 6.675 10.5263 7.061L10.5253 7.911L9.97926 8.022L9.97526 7.962L9.96905 7.87262C9.95416 7.6587 9.93955 7.44885 9.92726 7.239L9.70826 0.499C9.69626 0.287 9.59626 0.134 9.44426 0.054C9.46108 0.0467916 9.47393 0.0348923 9.48693 0.022854L9.48694 0.0228496C9.49557 0.0148488 9.50428 0.00678688 9.51426 0H7.75726C7.80226 0.014 7.84726 0.023 7.89226 0.024C7.70626 0.094 7.59526 0.262 7.58126 0.509L7.51926 1.621C7.48126 2.29987 7.44325 3.79212 7.40609 5.25112C7.37188 6.59461 7.33838 7.90991 7.30626 8.536C7.30426 8.578 7.30126 8.592 7.27426 8.579C6.96926 8.634 6.66526 8.697 6.36226 8.76L5.88326 8.858C5.60526 8.913 5.44826 9.113 5.45426 9.405C5.45666 9.50978 5.4565 9.61456 5.45634 9.71934V9.7194L5.45626 9.798L5.45526 10.476H4.56326C4.55626 10.396 4.55026 10.319 4.54626 10.241L4.29026 2.693C4.28326 2.582 4.25126 2.494 4.20726 2.417C4.21163 2.41451 4.21444 2.41162 4.21739 2.40859C4.21917 2.40676 4.221 2.40488 4.22326 2.403H2.26126C2.21026 2.482 2.16926 2.572 2.16226 2.692L1.90926 10.167C1.90426 10.274 1.89526 10.38 1.88526 10.489H1.36426C0.954261 10.49 0.779261 10.672 0.779261 11.098L0.778261 13.993L0.715371 13.9929C0.653496 13.9927 0.592879 13.9925 0.532261 13.994C0.150261 14.001 0.00726112 14.249 0.000261117 14.478C-0.00373888 14.619 0.0382611 14.742 0.123261 14.834C0.189261 14.906 0.314261 14.993 0.532261 14.996C0.667261 14.999 0.802261 15 0.937261 15H1.11826L16.8943 14.999H17.0563L17.0571 14.999C17.2078 15 17.3565 15.001 17.5073 14.995C17.6723 14.987 17.8133 14.919 17.9023 14.804C17.9853 14.697 18.0163 14.557 17.9913 14.41C17.9483 14.148 17.7613 13.997 17.4813 13.994ZM12.6726 10.156C12.8546 10.156 13.0096 9.954 13.0416 9.81C13.0652 9.69973 13.0607 9.59237 13.0568 9.49747L13.0566 9.493L13.0536 9.394L13.0566 9.295L13.0568 9.28964V9.28964C13.0608 9.19402 13.0651 9.08794 13.0416 8.978C13.0106 8.835 12.8646 8.627 12.6806 8.625H12.6766C12.5166 8.625 12.3006 8.792 12.2846 8.986C12.2636 9.25 12.2626 9.521 12.2826 9.792C12.2976 9.984 12.5126 10.156 12.6726 10.156ZM13.9483 10.1556C13.7673 10.1496 13.6223 9.94464 13.5923 9.80564C13.5693 9.69364 13.5733 9.58464 13.5773 9.48864L13.5803 9.38864L13.5783 9.28764C13.5733 9.19264 13.5693 9.08464 13.5933 8.97364C13.6193 8.85464 13.6993 8.77964 13.7583 8.72564L13.9053 8.55664L14.1073 8.67164C14.1192 8.6826 14.1335 8.69272 14.1489 8.70354L14.1533 8.70664L14.1543 8.70738C14.2273 8.76239 14.3373 8.8453 14.3483 8.99164C14.3683 9.25464 14.3683 9.52564 14.3483 9.79564C14.3353 9.97164 14.1343 10.1566 13.9593 10.1566C13.9579 10.1566 13.9563 10.1564 13.9546 10.1562C13.9526 10.1559 13.9504 10.1556 13.9483 10.1556Z" fill="#FA7D06"/>
</svg>
