<svg width="23" height="15" viewBox="0 0 23 15" fill="none" xmlns="http://www.w3.org/2000/svg">
<path fill-rule="evenodd" clip-rule="evenodd" d="M22.4226 3.4424L11.7462 14.1756C11.637 14.2667 11.5015 14.3164 11.3617 14.3164C11.222 14.3164 11.0864 14.2667 10.9773 14.1756L0.300877 3.4424C0.212791 3.34964 0.16358 3.22412 0.164066 3.09346C0.164553 2.9628 0.214697 2.83769 0.303472 2.74565L2.81526 0.142922C2.90406 0.0509032 3.02421 -0.000504496 3.14929 3.73278e-06C3.27437 0.000511961 3.39413 0.0528944 3.48224 0.145632L11.3617 8.06665L19.2412 0.145878C19.3293 0.0531409 19.4491 0.000758203 19.5742 0.000249974C19.6992 -0.000258254 19.8194 0.0511495 19.9082 0.143168L22.42 2.74589C22.5087 2.83793 22.5588 2.96298 22.5593 3.09359C22.5598 3.22419 22.5106 3.34965 22.4226 3.4424Z" fill="white"/>
</svg>
