<svg width="20" height="21" viewBox="0 0 20 21" fill="none" xmlns="http://www.w3.org/2000/svg">
<path fill-rule="evenodd" clip-rule="evenodd" d="M19.4737 11.7159L10.6992 20.5872C10.5802 20.7131 10.4375 20.8143 10.2793 20.8851C10.1212 20.9558 9.95062 20.9947 9.77743 20.9995C9.60424 21.0043 9.4318 20.9749 9.26996 20.9131C9.10812 20.8512 8.96005 20.7581 8.83421 20.639L7.07717 18.9769C6.95129 18.8578 6.85008 18.7152 6.77935 18.557C6.70861 18.3988 6.66973 18.2283 6.66492 18.0551C6.66011 17.8819 6.68947 17.7095 6.75132 17.5476C6.81317 17.3858 6.9063 17.2377 7.02538 17.1119L11.388 12.9202L2.23152 12.925C1.89599 12.9263 1.57368 12.7943 1.33543 12.558C1.09717 12.3218 0.962475 12.0006 0.960938 11.6651L0.983687 9.35236C0.981885 9.01674 1.11345 8.69415 1.34945 8.45552C1.58545 8.21689 1.90656 8.08176 2.24217 8.07984L11.3851 8.075L7.02538 3.88811C6.9063 3.76227 6.81317 3.6142 6.75132 3.45236C6.68947 3.29052 6.66011 3.11809 6.66492 2.9449C6.66973 2.77171 6.70861 2.60116 6.77935 2.44301C6.85008 2.28485 6.95129 2.14217 7.07717 2.02314L8.83421 0.360969C8.96005 0.241882 9.10812 0.148755 9.26996 0.0869058C9.4318 0.0250569 9.60424 -0.00430121 9.77743 0.000508341C9.95062 0.00531789 10.1212 0.0442009 10.2793 0.114936C10.4375 0.185672 10.5802 0.286873 10.6992 0.41276L19.4737 9.28411C19.8159 9.60744 19.8576 9.74394 19.8576 10.5C19.8576 11.2561 19.8126 11.3926 19.4737 11.7159Z" fill="white"/>
</svg>
