<svg width="86" height="71" viewBox="0 0 86 71" fill="none" xmlns="http://www.w3.org/2000/svg">
<path fill-rule="evenodd" clip-rule="evenodd" d="M0 12.95L44.3061 5.40967L54.0823 62.8643L9.77571 70.4066L0 12.95Z" fill="#EAEAEA"/>
<path fill-rule="evenodd" clip-rule="evenodd" d="M17.6254 17.9576L29.3085 15.9697C29.626 15.921 29.9499 15.9991 30.2104 16.1871C30.4709 16.375 30.6471 16.6578 30.701 16.9745C30.7549 17.2911 30.6822 17.6163 30.4986 17.8798C30.315 18.1434 30.0352 18.3242 29.7195 18.3834L18.0358 20.3713C17.7186 20.4192 17.3953 20.3407 17.1354 20.1527C16.8754 19.9647 16.6997 19.6822 16.6459 19.3659C16.5921 19.0497 16.6646 18.7249 16.8478 18.4616C17.031 18.1982 17.3102 18.0173 17.6254 17.9576ZM9.29482 27.885L40.4469 22.5859C40.7667 22.5314 41.0951 22.606 41.3599 22.7933C41.6247 22.9806 41.8044 23.2654 41.8595 23.5851V23.5905C41.9138 23.9106 41.8389 24.2392 41.651 24.504C41.4632 24.7688 41.1779 24.9481 40.8578 25.0026L9.70673 30.3056C9.38667 30.3599 9.05811 30.285 8.79332 30.0971C8.52852 29.9093 8.34916 29.624 8.29468 29.3039V29.2985C8.24028 28.9787 8.31506 28.6503 8.50258 28.3855C8.69011 28.1208 8.97505 27.9413 9.29482 27.8865V27.885ZM10.2061 33.2408L41.3582 27.9418C41.6782 27.8874 42.0068 27.9624 42.2716 28.1502C42.5364 28.338 42.7157 28.6233 42.7702 28.9434V28.9488C42.8246 29.2689 42.7496 29.5975 42.5618 29.8622C42.3739 30.127 42.0886 30.3064 41.7686 30.3609L10.618 35.6614C10.2979 35.7158 9.96935 35.6408 9.70456 35.453C9.43976 35.2651 9.2604 34.9798 9.20592 34.6598V34.6543C9.15152 34.3345 9.2263 34.0061 9.41382 33.7414C9.60135 33.4766 9.88629 33.2971 10.2061 33.2423V33.2408ZM11.6147 41.518L42.7663 36.219C42.9249 36.1917 43.0874 36.196 43.2444 36.2316C43.4014 36.2672 43.5499 36.3334 43.6813 36.4264C43.8126 36.5195 43.9244 36.6375 44.0101 36.7738C44.0958 36.9101 44.1538 37.0619 44.1808 37.2206V37.2261C44.2352 37.5461 44.1602 37.8747 43.9724 38.1395C43.7845 38.4043 43.4992 38.5836 43.1792 38.6381L12.0281 43.9391C11.708 43.9935 11.3794 43.9185 11.1146 43.7307C10.8498 43.5428 10.6705 43.2575 10.616 42.9375V42.9321C10.5614 42.6124 10.6359 42.2841 10.8232 42.0192C11.0104 41.7544 11.2951 41.5747 11.6147 41.5195V41.518ZM12.5259 46.8739L43.6775 41.5748C43.9976 41.5205 44.3261 41.5954 44.5909 41.7833C44.8557 41.9711 45.0351 42.2564 45.0896 42.5765V42.5819C45.1439 42.902 45.069 43.2305 44.8811 43.4953C44.6933 43.7601 44.408 43.9395 44.0879 43.9939L12.9373 49.2949C12.6173 49.3493 12.2887 49.2743 12.0239 49.0865C11.7591 48.8987 11.5797 48.6134 11.5253 48.2933V48.2879C11.4707 47.9679 11.5455 47.6393 11.7331 47.3744C11.9208 47.1096 12.2059 46.93 12.5259 46.8753V46.8739ZM13.4371 52.2312L29.9827 49.4159C30.1412 49.389 30.3034 49.3934 30.4601 49.4291C30.6168 49.4648 30.765 49.5311 30.8961 49.624C31.0272 49.717 31.1388 49.8349 31.2243 49.971C31.3099 50.107 31.3678 50.2586 31.3948 50.4171V50.423C31.4491 50.7431 31.3742 51.0716 31.1863 51.3364C30.9985 51.6012 30.7132 51.7806 30.3931 51.8351L13.8476 54.6503C13.5275 54.7046 13.199 54.6297 12.9342 54.4418C12.6694 54.254 12.49 53.9687 12.4355 53.6486V53.6432C12.3812 53.3232 12.4561 52.9946 12.644 52.7298C12.8318 52.465 13.1171 52.2856 13.4371 52.2312Z" fill="#C9C9C9"/>
<path fill-rule="evenodd" clip-rule="evenodd" d="M42.262 62.3885C40.7664 62.643 39.2289 62.4482 37.8439 61.8289C36.459 61.2095 35.2888 60.1934 34.4813 58.909C33.6739 57.6246 33.2654 56.1296 33.3077 54.6131C33.3499 53.0965 33.8408 51.6266 34.7185 50.3891C35.5961 49.1516 36.821 48.2021 38.2382 47.6607C39.6555 47.1194 41.2014 47.0104 42.6806 47.3477C44.1598 47.685 45.5057 48.4533 46.5482 49.5555C47.5907 50.6577 48.283 52.0442 48.5375 53.5399C48.7064 54.5329 48.6781 55.5496 48.4542 56.5317C48.2303 57.5138 47.8151 58.4422 47.2324 59.2639C46.6496 60.0856 45.9108 60.7844 45.0579 61.3206C44.2051 61.8567 43.2551 62.2196 42.262 62.3885ZM39.9007 48.51C38.6517 48.7225 37.4938 49.3005 36.5734 50.1711C35.653 51.0416 35.0114 52.1656 34.7298 53.4007C34.4481 54.6359 34.5391 55.9269 34.9912 57.1104C35.4433 58.2939 36.2362 59.3167 37.2696 60.0496C38.303 60.7824 39.5305 61.1924 40.7969 61.2276C42.0633 61.2627 43.3117 60.9216 44.3842 60.2473C45.4568 59.573 46.3052 58.5957 46.8223 57.4392C47.3394 56.2826 47.502 54.9987 47.2894 53.7498C47.0039 52.0756 46.0652 50.5834 44.6797 49.6012C43.2942 48.619 41.5754 48.2272 39.9012 48.512L39.9007 48.51ZM41.975 60.4159C40.8707 60.6037 39.7355 60.4598 38.7129 60.0024C37.6903 59.545 36.8264 58.7947 36.2302 57.8463C35.6341 56.8979 35.3325 55.794 35.3638 54.6743C35.395 53.5545 35.7575 52.4691 36.4055 51.5554C37.0536 50.6417 37.958 49.9406 39.0044 49.5409C40.0509 49.1412 41.1924 49.0607 42.2845 49.3097C43.3767 49.5587 44.3705 50.126 45.1403 50.9398C45.9101 51.7536 46.4213 52.7773 46.6093 53.8817C46.7344 54.6152 46.7137 55.3663 46.5484 56.0919C46.3831 56.8175 46.0764 57.5034 45.6459 58.1104C45.2154 58.7174 44.6694 59.2336 44.0393 59.6296C43.4092 60.0255 42.7073 60.2934 41.9736 60.4179L41.975 60.4159ZM40.2405 50.2214C39.3286 50.3765 38.4832 50.7985 37.8112 51.4341C37.1392 52.0697 36.6708 52.8903 36.4652 53.7921C36.2595 54.6939 36.3259 55.6365 36.656 56.5006C36.986 57.3646 37.5648 58.1114 38.3193 58.6465C39.0738 59.1816 39.97 59.481 40.8946 59.5068C41.8192 59.5325 42.7307 59.2835 43.5138 58.7913C44.2969 58.299 44.9164 57.5856 45.294 56.7412C45.6717 55.8968 45.7904 54.9595 45.6353 54.0476C45.5321 53.4422 45.3107 52.863 44.9836 52.3431C44.6566 51.8233 44.2303 51.3729 43.7292 51.0178C43.2281 50.6627 42.662 50.4098 42.0631 50.2735C41.4643 50.1371 40.8444 50.1201 40.239 50.2234L40.2405 50.2214Z" fill="#FFD58C"/>
<path fill-rule="evenodd" clip-rule="evenodd" d="M43.6172 52.866C43.7999 52.9976 43.923 53.1962 43.9596 53.4184C43.9962 53.6406 43.9432 53.8682 43.8123 54.0514L41.4149 57.3951C41.2833 57.5785 41.0843 57.7021 40.8616 57.7387C40.6388 57.7753 40.4107 57.722 40.2273 57.5904C40.0439 57.4588 39.9203 57.2598 39.8837 57.0371C39.8471 56.8144 39.9004 56.5862 40.032 56.4028L42.4294 53.0611C42.4945 52.9703 42.5769 52.8931 42.6718 52.8341C42.7668 52.7751 42.8725 52.7354 42.9828 52.7173C43.0931 52.6992 43.206 52.703 43.3148 52.7285C43.4237 52.754 43.5264 52.8008 43.6172 52.866ZM38.127 55.0575C38.0628 55.149 38.0172 55.2522 37.993 55.3613C37.9687 55.4704 37.9662 55.5833 37.9855 55.6933C38.0049 55.8034 38.0457 55.9086 38.1058 56.0029C38.1658 56.0972 38.2439 56.1787 38.3354 56.2428L40.2735 57.5902C40.4584 57.7156 40.6853 57.7633 40.9051 57.7229C41.1249 57.6825 41.3199 57.5572 41.4482 57.3742C41.5764 57.1912 41.6275 56.965 41.5904 56.7447C41.5533 56.5243 41.431 56.3274 41.2499 56.1964L39.3124 54.849C39.2208 54.7849 39.1176 54.7394 39.0085 54.7151C38.8994 54.6909 38.7866 54.6884 38.6765 54.7077C38.5664 54.7271 38.4613 54.7679 38.367 54.8279C38.2727 54.888 38.1912 54.9659 38.127 55.0575Z" fill="#F39E09"/>
<path fill-rule="evenodd" clip-rule="evenodd" d="M41.9923 0.0986328L85.0572 12.9553L68.3852 68.8003L25.3203 55.9436L41.9923 0.0986328Z" fill="#EAEAEA"/>
<path fill-rule="evenodd" clip-rule="evenodd" d="M55.5786 12.3917L66.9343 15.7813C67.2399 15.8788 67.495 16.0923 67.6449 16.3759C67.7947 16.6595 67.8272 16.9906 67.7355 17.298C67.6437 17.6054 67.435 17.8645 67.1542 18.0195C66.8734 18.1746 66.543 18.2133 66.234 18.1273L54.8783 14.7372C54.7203 14.6947 54.5725 14.6209 54.4435 14.5203C54.3145 14.4197 54.207 14.2942 54.1274 14.1513C54.0477 14.0085 53.9974 13.8511 53.9796 13.6885C53.9617 13.5259 53.9767 13.3614 54.0235 13.2046C54.0703 13.0479 54.148 12.9021 54.2521 12.7759C54.3562 12.6497 54.4845 12.5457 54.6294 12.4699C54.7744 12.3941 54.9331 12.3481 55.0961 12.3347C55.2591 12.3213 55.4232 12.3406 55.5786 12.3917ZM43.7132 17.6062L73.9921 26.6446C74.1462 26.6905 74.2897 26.7664 74.4144 26.8678C74.5391 26.9692 74.6427 27.0942 74.7191 27.2357C74.7955 27.3771 74.8433 27.5323 74.8597 27.6922C74.8762 27.8521 74.861 28.0137 74.8149 28.1677V28.1732C74.722 28.4842 74.5093 28.7457 74.2237 28.9C73.9381 29.0543 73.6029 29.0888 73.2918 28.996L43.0124 19.9577C42.7013 19.8648 42.4399 19.6521 42.2856 19.3665C42.1313 19.0808 42.0967 18.7456 42.1895 18.4345V18.4291C42.2355 18.275 42.3115 18.1315 42.4129 18.0067C42.5144 17.882 42.6395 17.7785 42.7809 17.7021C42.9224 17.6256 43.0776 17.5779 43.2375 17.5614C43.3975 17.545 43.5591 17.5602 43.7132 17.6062ZM42.1589 22.8119L72.4378 31.8502C72.5919 31.8962 72.7354 31.9721 72.8601 32.0735C72.9848 32.1749 73.0884 32.2999 73.1648 32.4414C73.2412 32.5828 73.289 32.7379 73.3054 32.8979C73.3219 33.0578 73.3067 33.2194 73.2606 33.3734V33.3789C73.1681 33.6901 72.9558 33.9518 72.6703 34.1065C72.3849 34.2611 72.0497 34.2961 71.7384 34.2037L41.4571 25.1653C41.146 25.0724 40.8846 24.8598 40.7303 24.5741C40.576 24.2885 40.5414 23.9533 40.6343 23.6422V23.6367C40.68 23.4824 40.7558 23.3385 40.8573 23.2135C40.9587 23.0885 41.0839 22.9847 41.2255 22.9081C41.3671 22.8314 41.5225 22.7835 41.6826 22.767C41.8428 22.7505 42.0047 22.7658 42.1589 22.8119ZM39.7571 30.8575L70.036 39.8958C70.19 39.9418 70.3335 40.0176 70.4583 40.1191C70.583 40.2205 70.6865 40.3455 70.763 40.487C70.8394 40.6284 70.8872 40.7835 70.9036 40.9435C70.9201 41.1034 70.9048 41.265 70.8588 41.419V41.4245C70.7659 41.7355 70.5532 41.9969 70.2676 42.1512C69.982 42.3056 69.6467 42.3401 69.3356 42.2473L39.0563 33.209C38.902 33.1631 38.7583 33.0873 38.6333 32.9859C38.5084 32.8844 38.4047 32.7593 38.3281 32.6178C38.2515 32.4762 38.2036 32.3209 38.1871 32.1609C38.1706 32.0008 38.1859 31.839 38.2319 31.6848V31.6794C38.278 31.5252 38.3541 31.3816 38.4557 31.2569C38.5573 31.1321 38.6825 31.0286 38.8242 30.9523C38.9658 30.876 39.1211 30.8283 39.2812 30.8121C39.4413 30.7958 39.603 30.8112 39.7571 30.8575ZM38.2028 36.0632L68.4817 45.1015C68.6357 45.1475 68.7792 45.2233 68.904 45.3248C69.0287 45.4262 69.1323 45.5512 69.2087 45.6926C69.2851 45.8341 69.3329 45.9892 69.3493 46.1491C69.3658 46.3091 69.3505 46.4707 69.3045 46.6247V46.6301C69.2586 46.7842 69.1827 46.9277 69.0813 47.0524C68.9799 47.1772 68.8548 47.2807 68.7134 47.3571C68.5719 47.4335 68.4168 47.4813 68.2569 47.4978C68.097 47.5142 67.9354 47.499 67.7813 47.453L37.5024 38.4146C37.1914 38.3217 36.93 38.1091 36.7757 37.8234C36.6213 37.5378 36.5868 37.2026 36.6796 36.8915V36.886C36.7725 36.575 36.9852 36.3135 37.2708 36.1592C37.5565 36.0049 37.8917 35.9704 38.2028 36.0632ZM36.6485 41.2689L52.7298 46.07C52.8839 46.116 53.0274 46.1919 53.1521 46.2933C53.2768 46.3947 53.3804 46.5197 53.4568 46.6612C53.5332 46.8026 53.581 46.9577 53.5974 47.1177C53.6139 47.2776 53.5987 47.4392 53.5526 47.5932V47.5987C53.5067 47.7527 53.4308 47.8962 53.3294 48.021C53.228 48.1457 53.103 48.2492 52.9615 48.3256C52.8201 48.4021 52.665 48.4499 52.505 48.4663C52.3451 48.4827 52.1835 48.4675 52.0295 48.4215L35.9482 43.6203C35.6371 43.5274 35.3757 43.3147 35.2214 43.0291C35.0671 42.7435 35.0325 42.4082 35.1253 42.0971V42.0917C35.2182 41.7806 35.4309 41.5192 35.7165 41.3649C36.0022 41.2106 36.3374 41.1761 36.6485 41.2689Z" fill="#C9C9C9"/>
<path fill-rule="evenodd" clip-rule="evenodd" d="M57.9968 63.1378C56.5429 62.704 55.2504 61.8488 54.2827 60.6803C53.3149 59.5119 52.7154 58.0827 52.5599 56.5735C52.4044 55.0643 52.7 53.5429 53.4092 52.2017C54.1184 50.8605 55.2094 49.7597 56.5443 49.0386C57.8791 48.3175 59.3978 48.0084 60.9083 48.1504C62.4189 48.2924 63.8533 48.8792 65.0304 49.8365C66.2074 50.7938 67.0741 52.0787 67.5209 53.5286C67.9676 54.9785 67.9744 56.5283 67.5403 57.982C66.9583 59.9312 65.626 61.5694 63.8362 62.5363C62.0465 63.5031 59.946 63.7195 57.9968 63.1378ZM62.0235 49.65C60.8096 49.2876 59.5155 49.2933 58.3048 49.6664C57.0941 50.0394 56.0212 50.7632 55.2219 51.746C54.4225 52.7288 53.9325 53.9266 53.8139 55.1879C53.6953 56.4492 53.9534 57.7173 54.5555 58.832C55.1576 59.9466 56.0767 60.8577 57.1966 61.4499C58.3165 62.0422 59.5868 62.2891 60.847 62.1593C62.1072 62.0296 63.3007 61.5291 64.2764 60.7211C65.2522 59.9131 65.9664 58.8339 66.3288 57.62C66.8148 55.9922 66.6342 54.238 65.8268 52.7433C65.0194 51.2487 63.6513 50.136 62.0235 49.65ZM58.6107 61.2432C57.5371 60.9228 56.5827 60.2912 55.8681 59.4284C55.1535 58.5655 54.7109 57.5101 54.5961 56.3957C54.4813 55.2812 54.6996 54.1577 55.2233 53.1673C55.7471 52.1769 56.5527 51.3641 57.5384 50.8316C58.5242 50.2991 59.6456 50.0709 60.7611 50.1757C61.8765 50.2806 62.9358 50.7139 63.8049 51.4208C64.6741 52.1277 65.3141 53.0765 65.6441 54.1471C65.974 55.2178 65.9791 56.3623 65.6586 57.4358C65.2287 58.8752 64.2447 60.0849 62.923 60.799C61.6014 61.513 60.0502 61.6728 58.6107 61.2432ZM61.5691 51.3347C60.6828 51.07 59.7379 51.0741 58.8539 51.3464C57.9699 51.6188 57.1865 52.1472 56.6028 52.8648C56.0191 53.5824 55.6613 54.4569 55.5747 55.3779C55.4881 56.2988 55.6765 57.2247 56.1161 58.0386C56.5558 58.8524 57.2269 59.5176 58.0446 59.9501C58.8623 60.3825 59.7899 60.5627 60.71 60.4679C61.6301 60.3732 62.5015 60.0077 63.2139 59.4177C63.9263 58.8277 64.4478 58.0397 64.7123 57.1533C65.067 55.9649 64.9351 54.6843 64.3456 53.5931C63.7562 52.5019 62.7575 51.6896 61.5691 51.3347Z" fill="#FFD58C"/>
<path fill-rule="evenodd" clip-rule="evenodd" d="M63.4288 55.1997C63.4814 55.2983 63.514 55.4063 63.5249 55.5176C63.5357 55.6288 63.5245 55.7411 63.4919 55.848C63.4594 55.9549 63.4061 56.0543 63.3351 56.1406C63.2641 56.2269 63.1768 56.2984 63.0782 56.351L59.449 58.2861C59.2502 58.388 59.0193 58.4078 58.8061 58.341C58.5929 58.2742 58.4145 58.1262 58.3095 57.929C58.2044 57.7318 58.1812 57.5012 58.2447 57.287C58.3082 57.0728 58.4533 56.8922 58.6489 56.7841L62.278 54.849C62.3766 54.7965 62.4846 54.7638 62.5958 54.753C62.707 54.7422 62.8192 54.7534 62.9261 54.786C63.0329 54.8185 63.1323 54.8718 63.2186 54.9428C63.3049 55.0138 63.3763 55.1011 63.4288 55.1997ZM57.5361 54.734C57.4381 54.7876 57.3516 54.86 57.2816 54.947C57.2115 55.0341 57.1593 55.1341 57.128 55.2413C57.0966 55.3486 57.0867 55.4609 57.0987 55.572C57.1108 55.6831 57.1446 55.7907 57.1983 55.8887L58.3397 57.9547C58.451 58.147 58.6331 58.2881 58.847 58.348C59.061 58.4078 59.2899 58.3816 59.4848 58.2749C59.6797 58.1683 59.8252 57.9896 59.8901 57.7771C59.955 57.5646 59.9343 57.3351 59.8323 57.1377L58.6909 55.0718C58.6372 54.9737 58.5648 54.8872 58.4778 54.8172C58.3907 54.7472 58.2907 54.695 58.1835 54.6636C58.0763 54.6322 57.9639 54.6223 57.8528 54.6344C57.7417 54.6464 57.6341 54.6803 57.5361 54.734Z" fill="#F39E09"/>
<path d="M64.0853 2.10059H19.1406V60.3805H64.0853V2.10059Z" fill="#F2F2F2"/>
<path fill-rule="evenodd" clip-rule="evenodd" d="M35.6765 9.98779H47.5202C47.8449 9.98779 48.1564 10.1168 48.386 10.3464C48.6156 10.576 48.7446 10.8874 48.7446 11.2122V11.2176C48.7446 11.5423 48.6156 11.8537 48.386 12.0834C48.1564 12.313 47.8449 12.442 47.5202 12.442H35.6765C35.3518 12.442 35.0404 12.313 34.8108 12.0834C34.5812 11.8537 34.4522 11.5423 34.4522 11.2176V11.2117C34.4523 10.887 34.5814 10.5757 34.811 10.3462C35.0406 10.1167 35.3519 9.98779 35.6765 9.98779ZM25.7986 18.3841H57.3982C57.7229 18.3841 58.0343 18.513 58.2639 18.7427C58.4935 18.9723 58.6225 19.2837 58.6225 19.6084V19.6139C58.6225 19.9386 58.4935 20.25 58.2639 20.4796C58.0343 20.7092 57.7229 20.8382 57.3982 20.8382H25.7986C25.4739 20.8382 25.1624 20.7092 24.9328 20.4796C24.7032 20.25 24.5742 19.9386 24.5742 19.6139V19.6079C24.5743 19.2833 24.7034 18.972 24.933 18.7425C25.1626 18.513 25.474 18.3841 25.7986 18.3841ZM25.7986 23.8169H57.3982C57.7229 23.8169 58.0343 23.9459 58.2639 24.1755C58.4935 24.4052 58.6225 24.7166 58.6225 25.0413V25.0467C58.6225 25.3715 58.4935 25.6829 58.2639 25.9125C58.0343 26.1421 57.7229 26.2711 57.3982 26.2711H25.7986C25.4739 26.2711 25.1624 26.1421 24.9328 25.9125C24.7032 25.6829 24.5742 25.3715 24.5742 25.0467V25.0408C24.5743 24.7162 24.7034 24.4049 24.933 24.1754C25.1626 23.9459 25.474 23.8169 25.7986 23.8169ZM25.7986 32.2132H57.3982C57.7229 32.2132 58.0343 32.3422 58.2639 32.5718C58.4935 32.8014 58.6225 33.1128 58.6225 33.4376V33.443C58.6225 33.7677 58.4935 34.0791 58.2639 34.3088C58.0343 34.5384 57.7229 34.6674 57.3982 34.6674H25.7986C25.4739 34.6674 25.1624 34.5384 24.9328 34.3088C24.7032 34.0791 24.5742 33.7677 24.5742 33.443V33.4371C24.5743 33.1124 24.7034 32.8011 24.933 32.5716C25.1626 32.3421 25.474 32.2132 25.7986 32.2132ZM25.7986 37.6461H57.3982C57.7229 37.6461 58.0343 37.7751 58.2639 38.0047C58.4935 38.2343 58.6225 38.5457 58.6225 38.8704V38.8759C58.6225 39.2006 58.4935 39.512 58.2639 39.7416C58.0343 39.9712 57.7229 40.1002 57.3982 40.1002H25.7986C25.4739 40.1002 25.1624 39.9712 24.9328 39.7416C24.7032 39.512 24.5742 39.2006 24.5742 38.8759V38.8699C24.5743 38.5453 24.7034 38.234 24.933 38.0045C25.1626 37.775 25.474 37.6461 25.7986 37.6461ZM25.7986 43.0789H42.5812C42.906 43.0789 43.2174 43.2079 43.447 43.4375C43.6766 43.6672 43.8056 43.9786 43.8056 44.3033V44.3087C43.8056 44.6335 43.6766 44.9449 43.447 45.1745C43.2174 45.4041 42.906 45.5331 42.5812 45.5331H25.7986C25.4739 45.5331 25.1624 45.4041 24.9328 45.1745C24.7032 44.9449 24.5742 44.6335 24.5742 44.3087V44.3028C24.5743 43.9782 24.7034 43.6669 24.933 43.4374C25.1626 43.2079 25.474 43.0789 25.7986 43.0789Z" fill="#C9C9C9"/>
<path fill-rule="evenodd" clip-rule="evenodd" d="M52.5106 57.9262C50.9934 57.9262 49.5104 57.4763 48.2489 56.6334C46.9875 55.7905 46.0043 54.5925 45.4237 53.1909C44.8432 51.7893 44.6913 50.2469 44.9872 48.759C45.2832 47.271 46.0138 45.9042 47.0866 44.8314C48.1593 43.7587 49.5261 43.0281 51.0141 42.7321C52.5021 42.4361 54.0444 42.588 55.446 43.1686C56.8477 43.7492 58.0457 44.7324 58.8885 45.9938C59.7314 47.2553 60.1813 48.7383 60.1813 50.2554C60.1813 52.2898 59.3731 54.2409 57.9346 55.6795C56.4961 57.118 54.545 57.9262 52.5106 57.9262ZM52.5106 43.8501C51.2437 43.85 50.0052 44.2256 48.9518 44.9293C47.8984 45.6331 47.0773 46.6335 46.5924 47.8039C46.1076 48.9743 45.9806 50.2622 46.2277 51.5048C46.4748 52.7473 47.0848 53.8887 47.9806 54.7845C48.8764 55.6804 50.0177 56.2905 51.2603 56.5377C52.5028 56.7849 53.7907 56.6581 54.9612 56.1733C56.1316 55.6885 57.1321 54.8675 57.8359 53.8141C58.5398 52.7608 58.9154 51.5223 58.9154 50.2554C58.9154 48.5567 58.2407 46.9276 57.0395 45.7263C55.8384 44.5251 54.2093 43.8502 52.5106 43.8501ZM52.5565 55.9353C51.4362 55.9353 50.341 55.603 49.4095 54.9806C48.4779 54.3582 47.7519 53.4735 47.3232 52.4385C46.8944 51.4034 46.7823 50.2645 47.0008 49.1657C47.2194 48.0669 47.7589 47.0575 48.5511 46.2653C49.3433 45.4731 50.3526 44.9336 51.4514 44.7151C52.5502 44.4965 53.6892 44.6087 54.7242 45.0374C55.7593 45.4662 56.6439 46.1922 57.2664 47.1237C57.8888 48.0552 58.221 49.1504 58.221 50.2708C58.221 51.7731 57.6242 53.2139 56.5619 54.2762C55.4996 55.3385 54.0588 55.9353 52.5565 55.9353ZM52.5565 45.5945C51.6315 45.5945 50.7273 45.8688 49.9583 46.3827C49.1892 46.8966 48.5898 47.627 48.2358 48.4815C47.8818 49.3361 47.7892 50.2764 47.9696 51.1836C48.1501 52.0908 48.5955 52.9241 49.2496 53.5782C49.9036 54.2322 50.7369 54.6776 51.6441 54.8581C52.5513 55.0386 53.4916 54.9459 54.3462 54.592C55.2008 54.238 55.9312 53.6386 56.4451 52.8695C56.9589 52.1004 57.2332 51.1962 57.2332 50.2712C57.2333 49.6571 57.1124 49.0489 56.8774 48.4815C56.6424 47.914 56.2979 47.3985 55.8636 46.9642C55.4293 46.5299 54.9137 46.1854 54.3463 45.9504C53.7788 45.7154 53.1707 45.5945 52.5565 45.5945Z" fill="#FA980B"/>
<path fill-rule="evenodd" clip-rule="evenodd" d="M55.4425 48.7665C55.601 48.927 55.6894 49.1439 55.6881 49.3695C55.6868 49.5951 55.596 49.811 55.4355 49.9696L52.5117 52.8624C52.4325 52.9424 52.3383 53.006 52.2344 53.0494C52.1306 53.0927 52.0191 53.1151 51.9066 53.1151C51.794 53.1151 51.6826 53.0927 51.5787 53.0494C51.4749 53.006 51.3806 52.9425 51.3015 52.8625C51.2223 52.7824 51.1599 52.6875 51.1176 52.5832C51.0754 52.4788 51.0544 52.3671 51.0556 52.2546C51.0569 52.1421 51.0804 52.0309 51.1249 51.9275C51.1695 51.8241 51.234 51.7306 51.315 51.6524L54.2388 48.7596C54.3994 48.601 54.6164 48.5126 54.8421 48.5139C55.0678 48.5152 55.2837 48.6061 55.4425 48.7665ZM49.6639 50.0057C49.5853 50.0852 49.5231 50.1794 49.4809 50.2829C49.4387 50.3864 49.4173 50.4972 49.418 50.6089C49.4186 50.7207 49.4413 50.8313 49.4847 50.9343C49.528 51.0373 49.5913 51.1308 49.6708 51.2093L51.355 52.8624C51.4341 52.9424 51.5283 53.006 51.6322 53.0494C51.7361 53.0927 51.8475 53.1151 51.96 53.1151C52.0726 53.1151 52.184 53.0927 52.2879 53.0494C52.3918 53.006 52.486 52.9425 52.5652 52.8625C52.6443 52.7824 52.7068 52.6875 52.749 52.5832C52.7912 52.4788 52.8123 52.3671 52.811 52.2546C52.8098 52.1421 52.7862 52.0309 52.7417 51.9275C52.6972 51.8241 52.6326 51.7306 52.5517 51.6524L50.867 49.9993C50.7066 49.8406 50.4897 49.7522 50.2641 49.7534C50.0385 49.7546 49.8226 49.8454 49.6639 50.0057Z" fill="#FA980B"/>
<path d="M43.6125 53.5125H25.0296C24.7781 53.5125 24.5742 53.7163 24.5742 53.9678C24.5742 54.2193 24.7781 54.4232 25.0296 54.4232H43.6125C43.864 54.4232 44.0679 54.2193 44.0679 53.9678C44.0679 53.7163 43.864 53.5125 43.6125 53.5125Z" fill="#D9D9D9"/>
<path fill-rule="evenodd" clip-rule="evenodd" d="M39.8743 52.6881C39.4715 52.7164 39.0676 52.6491 38.6957 52.4917C38.3238 52.3343 37.9944 52.0912 37.7343 51.7823C37.4567 51.4677 37.4804 52.7005 36.9109 52.8526C36.3513 53.0008 36.0466 52.3997 35.7997 52.5232C35.5527 52.6466 35.3487 54.7457 34.8529 54.7457C34.5521 54.7457 34.6187 54.3086 34.4182 53.8918C34.3911 53.8355 33.8255 57.6681 32.5908 57.6681C31.768 57.6681 30.5742 55.8985 30.5742 53.6759C30.5742 49.9717 33.9144 50.4834 33.9144 50.4834C33.9144 50.4834 33.908 48.531 33.949 47.5017C33.99 46.4724 33.7846 45.0322 34.7723 45.0322C35.7601 45.0322 36.1306 49.1894 36.0481 49.4773C36.0257 49.5426 35.9813 49.598 35.9225 49.634C35.8636 49.67 35.7941 49.6844 35.7258 49.6746C35.6575 49.6649 35.5947 49.6316 35.5483 49.5805C35.502 49.5294 35.4749 49.4637 35.4717 49.3948C35.4678 48.5952 35.3287 47.802 35.0603 47.0488C34.6489 45.7731 34.4839 46.7609 34.4429 47.5017C34.4212 47.8968 34.434 49.3454 34.4824 50.6301C34.9363 51.6312 34.6108 52.8906 34.6899 52.8116C34.9778 52.5232 35.0193 51.5354 35.5952 51.4534C36.1711 51.3714 35.9705 52.1997 36.7065 51.9883C37.2497 51.8322 36.8299 50.4656 37.4063 50.4656C37.9827 50.4656 37.8903 51.0316 38.2296 51.3709C38.888 52.0293 39.575 51.9542 40.0408 52.0708C40.1226 52.0928 40.1924 52.1465 40.2347 52.22C40.2769 52.2935 40.2883 52.3808 40.2662 52.4627C40.2441 52.5445 40.1905 52.6143 40.117 52.6566C40.0435 52.6988 39.9562 52.7102 39.8743 52.6881ZM33.7055 51.2835C33.2526 51.1185 31.6425 51.3709 31.3546 53.6344C31.1101 55.5537 32.0954 56.5568 32.5893 56.5568C33.0832 56.5568 33.8651 53.5213 33.9475 52.7805C33.8172 52.4798 33.6165 52.2149 33.3623 52.008C33.145 51.8668 33.2709 51.3373 33.5598 51.5186C33.7051 51.6238 33.8283 51.7565 33.9224 51.9093C33.907 51.5556 33.8754 51.3452 33.706 51.2835H33.7055Z" fill="#545454"/>
</svg>
