<svg width="164" height="88" viewBox="0 0 164 88" fill="none" xmlns="http://www.w3.org/2000/svg">
<path fill-rule="evenodd" clip-rule="evenodd" d="M67.8955 34.1274C68.1128 33.9603 68.3189 33.7789 68.5124 33.5843C68.9365 33.2061 68.6184 33.4 69.0714 33.1964L69.1871 34.2535L67.9822 35.1166L67.8955 34.1468V34.1274ZM58.1606 85.2942C58.951 84.7124 60.9558 84.9451 62.1799 84.6736C64.1076 84.2372 63.9437 83.7038 64.9076 82.7922C66.5355 83.5887 68.0469 84.6069 69.3991 85.8179L69.0521 86.7877L67.4907 87.0011L67.4714 86.9138C66.816 86.0216 67.028 86.138 65.5437 86.6229C63.9052 87.1563 58.3726 86.9817 58.1992 85.2942H58.1606ZM70.8834 85.4785C70.7967 85.2748 70.7581 85.4785 70.7774 85.0324C70.8057 84.877 70.8476 84.7245 70.9027 84.5766C70.9798 84.3826 71.2015 83.9753 71.3075 83.7523C71.4023 83.4643 71.5649 83.2037 71.7814 82.9926C71.9979 82.7815 72.2619 82.6262 72.5509 82.54L73.5148 83.3352C70.7774 85.0227 71.9244 85.6337 70.922 85.4785H70.8834ZM73.6304 82.3654C74.4979 83.0734 75.9244 82.3654 76.522 83.1801C75.8569 84.2372 72.7822 82.9958 71.8955 86.2543C73.9389 87.0496 76.9075 86.7005 79.2593 86.7198C79.0883 85.3816 78.5733 84.1114 77.7653 83.0346C76.9846 82.1521 74.9702 81.8999 73.6304 82.4042V82.3654ZM65.3702 81.9969L66.9413 83.0637C66.7003 82.3266 66.3726 81.8611 65.3702 81.9969ZM64.0304 74.4906C64.4449 78.9226 64.1461 77.8171 65.5341 81.1629L64.5027 81.609C60.5317 78.9614 62.5172 68.5942 60.8787 67.1492C60.3967 67.5274 60.4546 66.771 60.4256 68.1966C60.4256 68.1966 60.5606 69.1082 60.5799 69.2731L61.2546 75.7223C61.8136 80.2416 61.8811 80.0864 64.0979 82.3654C63.5003 83.8007 62.0449 83.9947 60.628 84.1111C58.7871 84.2662 56.9461 83.8298 57.5437 86.2156C48.7052 86.0216 38.4209 86.2156 29.3029 86.2156C27.4715 86.2156 26.3149 85.9052 25.7944 86.6326C26.4306 87.3114 29.8137 86.9817 30.9125 86.9817H57.2642C60.5606 86.9817 62.9895 88.6498 66.4497 87.1563L66.9702 88L69.4858 87.5927L70.334 86.138C71.4907 86.778 71.9919 87.5539 73.7461 87.5442C79.0665 87.5442 106.266 87.8545 107.115 87.3017C106.874 86.5841 107.038 86.7296 105.968 86.7198H80.1942L79.8376 85.75C78.681 81.4247 77.3027 82.1812 76.9461 81.3374C76.8979 79.1263 77.3413 68.4197 76.7533 67.4402C75.8762 67.6729 76.2039 67.9833 76.2039 70.4078V81.3568H74.4111C74.5075 78.9614 74.4111 76.4109 74.4111 74.0057C74.4111 72.4444 74.7292 67.7893 73.987 67.2947C73.4473 67.7117 73.6015 67.7214 73.6208 68.7203V81.3277C72.9846 81.7448 72.5894 81.609 71.9533 81.9193C71.3172 82.2297 71.4039 82.5012 70.8931 82.8018C70.7099 79.6791 70.816 74.3258 70.787 70.8054V68.7688C70.787 67.799 70.9605 67.5565 70.3533 67.2074C69.5822 67.9542 70.016 70.4465 70.0256 71.6103C70.0256 73.0941 70.0256 74.5779 70.0738 76.0617C70.1983 79.011 70.1339 81.9653 69.881 84.9063C69.1758 84.5512 68.5263 84.0938 67.9533 83.5486C69.2642 82.4527 69.5726 82.4333 69.6497 81.4635C68.1654 81.5702 68.869 82.1133 67.722 82.5691C65.4859 80.5034 65.2353 78.5444 64.9365 75.6544L64.31 68.9821C64.0979 66.6643 64.1943 67.382 63.7027 67.0425C63.2594 67.6244 63.3943 68.0123 63.5003 68.9821L64.0304 74.4906ZM67.8858 22.3928L65.2642 22.3249C65.4762 23.2947 66.122 23.382 68.416 23.1201C68.7244 22.5479 69.6979 21.0641 69.1389 20.2592C68.4063 20.5114 68.3292 21.6169 67.8858 22.3928ZM67.375 25.0403C67.375 24.4778 67.5196 24.5069 67.8377 24.1869C68.5027 23.5468 69.3027 22.7031 70.1605 23.2753C69.9292 23.9542 70.2762 23.4983 69.563 23.896C68.3196 24.6039 68.2039 25.147 67.375 25.0403ZM61.0329 20.5404C61.9967 20.5404 61.2064 20.5404 61.8618 19.7937C62.2377 19.3864 62.5461 19.5706 62.5558 19.0469C62.2184 18.7657 63.0859 18.6687 61.9196 18.7851C61.6637 18.8484 61.4322 18.9868 61.2546 19.1827C61.069 19.3495 60.9459 19.5752 60.9055 19.8222C60.8652 20.0692 60.9102 20.3227 61.0329 20.5404ZM67.3943 16.7194C68.416 16.7194 67.6256 16.8164 68.1461 16.2054C68.6666 15.5944 68.4931 16.2636 68.7726 15.3811C67.8088 14.7895 67.0859 15.6623 67.3943 16.7194ZM74.5654 30.7816C75.4425 31.0046 75.5292 31.1889 75.7316 32.1781C75.2786 32.7212 75.0473 32.7212 74.7678 33.4L74.6714 33.274L73.6111 32.1781C73.9388 31.3635 73.9581 31.2083 74.575 30.7816H74.5654ZM68.2907 31.7514L68.5991 31.5574L68.7437 31.9841C68.5606 32.3914 68.8015 32.149 68.3678 32.6242C67.934 33.0994 68.175 32.8085 67.7413 33.0218L68.2907 31.7514ZM76.175 30.7816C76.3258 30.5295 76.5613 30.3401 76.8388 30.2476C77.1164 30.1551 77.4177 30.1656 77.6882 30.2773C77.7748 30.4937 77.8161 30.7257 77.8095 30.9589C77.8029 31.1921 77.7487 31.4214 77.6501 31.6325C77.5515 31.8437 77.4107 32.0321 77.2365 32.186C77.0623 32.34 76.8584 32.4561 76.6376 32.5272L76.1461 30.7622L76.175 30.7816ZM64.9654 30.7816C65.2405 30.4373 65.5654 30.1365 65.9292 29.8894C66.2859 30.1221 66.4304 30.1512 66.8931 30.4615L67.2304 35.1651C66.3325 33.7833 65.5737 32.3149 64.9654 30.7816ZM68.2521 30.4809C68.2282 30.6471 68.1617 30.8042 68.0593 30.9367C67.828 31.2374 67.9726 31.0337 67.6738 31.2471C67.6738 30.4712 67.5774 30.5585 68.2521 30.4809ZM69.0136 29.2008C68.9747 30.7967 69.343 32.376 70.0835 33.788C70.0835 32.8182 70.0835 31.9356 70.0835 31.0046C70.0835 29.8118 70.2955 29.259 69.0136 29.2008ZM66.469 29.2008C67.0088 29.7148 67.0377 29.9378 68.0208 29.676L68.3581 28.8129L67.5389 28.1825C67.3094 28.2602 67.0988 28.386 66.921 28.5515C66.7433 28.7169 66.6024 28.9184 66.5075 29.1426L66.469 29.2008ZM70.0835 26.786V28.551C69.7669 28.5095 69.4655 28.3896 69.2063 28.2019C68.949 28.0786 68.7194 27.9037 68.5316 27.6879L70.0545 26.786H70.0835ZM60.4449 24.9434L59.7606 27.5424L62.0835 27.6491C62.0835 28.9002 61.2931 29.8215 61.0329 30.9658L66.0256 34.9129C65.775 33.6231 61.3413 25.7289 60.4642 24.9627L60.4449 24.9434ZM37.8811 26.5047L38.3534 26.0683C38.3534 26.9411 38.3534 26.3011 38.1317 26.5241C37.486 32.4399 44.8787 25.5543 43.7221 23.1395C43.6271 22.9773 43.4969 22.8388 43.3413 22.7343C43.1857 22.6298 43.0086 22.5619 42.8233 22.5358C42.6381 22.5097 42.4493 22.526 42.2711 22.5835C42.093 22.6411 41.93 22.7383 41.7944 22.868C42.2667 23.7602 42.1221 22.868 43.0956 23.5565C43.1823 25.0209 40.8113 27.9982 39.6546 28.2116C36.8498 28.745 40.9751 20.1428 44.6185 21.035C46.0642 25.1276 36.339 35.2427 37.8715 26.5047H37.8811ZM76.7726 28.7935C76.5123 28.2795 76.7726 28.1825 77.1099 27.4745C77.2642 27.0372 77.5223 26.6444 77.8617 26.3302L76.7726 28.7935ZM62.8931 26.5435L62.3533 26.0877L64.4931 29.9669C64.9365 29.7342 64.4931 30.0639 64.975 29.6081C65.457 29.1523 65.3895 28.6383 66.3726 28.2019C66.016 27.8334 66.3726 28.1243 65.9485 27.8819L65.5437 27.7558C64.6518 27.4144 63.7797 27.0226 62.9317 26.5823L62.8931 26.5435ZM70.8449 33.8752C70.8449 31.7708 70.8449 29.6275 70.8449 27.523C70.7194 26.6304 70.9069 25.7217 71.375 24.9531C71.722 24.2742 71.828 23.3529 72.1846 22.6546L73.0328 24.0802C71.828 25.564 71.7412 24.9337 71.2593 25.9713L73.187 28.1243C72.7726 29.1717 71.5196 33.0897 70.7678 33.8752H70.8449ZM73.0425 20.8314L72.175 20.6083C72.175 21.646 72.175 21.2096 72.3967 21.4424C72.8304 22.2182 73.9099 23.605 73.9967 24.5554C73.366 24.8728 72.818 25.3345 72.3967 25.9035L74.1509 27.6879C73.9967 28.7062 72.4931 31.6544 72.7629 32.1296C73.1292 31.5283 73.3123 30.6167 73.8617 30.2385C74.9413 29.5014 74.8738 30.5779 76.0786 29.8506C75.9629 29.4044 75.9147 29.8506 75.6063 29.1426C75.9437 28.2989 77.3027 25.6804 77.3123 24.9918C76.5412 24.9918 76.4738 25.0403 75.9147 24.7397C75.7509 23.8766 78.1702 22.7322 77.3798 21.229L73.0425 20.8314ZM39.2305 20.9672L40.1944 22.0727C40.9591 21.4601 41.775 20.915 42.6329 20.4435C44.3582 19.6676 44.7341 20.1913 45.6112 21.0544C46.2956 21.743 46.9992 22.3249 47.7413 22.994L56.2233 31.0531C56.9654 31.8774 57.4666 32.7794 58.5076 32.9927C59.1148 32.3042 58.3437 31.6641 57.8136 30.8495L47.3365 14.4501C46.8835 15.0708 46.5751 15.9339 46.0642 16.6515C44.9462 18.2032 41.5245 20.7053 39.2305 20.9769V20.9672ZM59.1341 19.2506C59.7991 18.8142 61.4088 18.3972 62.363 17.8638C62.363 17.8638 64.7244 15.866 63.9052 18.9791C63.4521 20.7247 58.4112 22.994 59.0859 19.2506H59.1341ZM64.5027 16.186C64.9365 16.5255 64.5509 16.0987 64.8594 16.6515C64.8594 16.7291 64.9847 16.9619 65.0329 17.0685C66.0545 19.3282 68.6569 18.7657 70.1509 16.3994L70.8063 15.4296C70.9798 18.339 71.963 20.7635 71.0473 23.7505C70.3726 25.9229 68.3967 27.8722 65.4955 26.9024C63.3461 26.1847 61.4666 24.3712 60.0015 23.3238C58.2088 22.0339 57.7172 22.8098 56.3967 22.257C56.3004 22.257 54.5751 20.5695 54.5172 19.8616L58.2088 19.2991C58.3534 20.715 58.2955 21.5393 59.616 21.9079C61.2738 22.3831 64.1076 20.9381 64.6184 19.3088C65.2738 17.2237 64.0304 17.1364 64.5027 16.1666V16.186ZM69.9099 14.1785C70.2569 16.6903 66.8738 19.173 65.7365 16.797C65.0907 15.4587 66.4497 14.7216 67.0955 14.1785C68.3292 13.1117 68.7148 13.2863 69.9099 14.1785ZM39.0667 18.145C40.7245 18.6784 43.1631 16.6321 43.8088 15.8466C44.9462 14.4792 43.8088 15.4878 43.539 14.4016C45.2739 13.3348 46.1799 15.963 41.9968 18.2808C41.1872 18.7269 39.5197 19.4446 38.5848 18.7463C37.6498 18.048 38.7486 16.4576 39.1727 15.7399C36.2812 17.4856 36.7245 22.7419 42.4402 18.7269C43.8185 17.7571 45.6112 16.4964 46.2956 14.7216C46.7968 13.4318 46.5365 12.5202 45.1486 12.4717C44.1847 12.4717 42.9799 13.3833 42.392 13.8294C40.8402 15.032 38.7004 16.9522 39.0571 18.1159L39.0667 18.145ZM68.9461 12.7626C70.3148 13.2281 70.0449 13.3736 70.8063 14.3143C70.8951 13.4163 70.7385 12.5109 70.3533 11.6958C69.7788 11.883 69.2833 12.2586 68.9461 12.7626ZM53.3317 9.85321C51.8088 6.17765 50.4401 4.86841 51.9919 3.55918C52.763 4.31563 54.0739 8.07846 54.71 9.48468C55.269 10.7163 57.3317 14.5568 56.5028 15.7399C55.3847 15.7399 53.7943 10.9685 53.3317 9.85321ZM61.3413 13.2087C61.6208 11.8898 57.2546 4.07318 56.3486 1.16376L54.8835 1.57108L59.3076 10.92C59.8859 12.1322 60.1558 13.393 61.3413 13.2087ZM65.11 11.3758C64.5606 11.2788 64.7726 11.3758 64.4449 11.0073L62.2859 6.29403C61.5437 4.48049 60.6281 2.54089 59.9437 0.863125C61.1293 0.863125 61.1967 2.07538 61.6497 3.07428C62.3726 4.64536 65.3702 10.5127 65.11 11.3564V11.3758ZM61.5534 13.9846C62.7003 12.4426 62.122 12.1516 61.3124 10.5127C60.5991 9.06767 57.1485 1.4838 57.1678 0.94071L59.0955 0.814635C59.6738 2.75424 61.0232 5.16905 61.8329 7.16685C62.7967 9.60106 63.7606 12.8305 65.7557 12.0159C66.6425 9.74653 62.5268 4.47079 61.6594 1.06678C64.8112 1.81353 65.1871 2.90941 66.7389 5.08177C67.3365 5.9352 68.0304 6.86621 68.6666 7.82632C68.9365 8.24333 69.2256 8.71854 69.534 9.18404C69.6812 9.43194 69.863 9.6573 70.0738 9.85321L70.5075 10.2508C70.5075 10.2508 70.5943 10.3187 70.6232 10.3575L64.9461 15.0126C64.5702 15.3326 64.3774 15.4102 63.9823 15.7108C62.4651 17.1526 60.5681 18.1254 58.5172 18.5136C55.1148 19.3282 56.9847 18.3778 52.9654 19.7646C53.0029 18.5689 52.6657 17.3916 52.0016 16.3994C50.7486 13.6257 49.7847 8.98038 50.604 5.73154C51.0666 6.18735 52.8016 10.5806 53.2064 11.5504C53.6787 12.6656 55.1341 17.2334 56.8016 16.3994C58.9317 15.4296 55.2401 8.8737 54.1124 6.15825C53.6883 5.18845 53.0233 3.87921 52.6859 2.78334L54.1895 1.9978C55.1159 4.25541 56.1583 6.46308 57.3124 8.61186C59.2401 12.2971 59.163 14.2561 61.4955 13.9846H61.5534ZM60.5028 0H57.9775C57.2642 0.261847 55.9341 0.368525 54.951 0.707957C48.7727 2.89002 48.898 8.83491 50.5847 14.4113C50.8563 15.4133 51.2209 16.3874 51.6739 17.3207C52.2907 18.562 52.1365 19.3961 52.4064 20.6568L53.6401 20.3756L56.3004 23.2365C55.6739 23.7699 55.4232 24.2063 54.5751 24.536C54.1702 23.1977 49.2932 16.1181 48.1944 14.227C47.4811 13.0827 46.8353 11.6861 45.0426 11.657C41.8715 11.6086 35.2113 16.8455 36.8402 19.978C37.1583 20.5889 37.9101 20.9478 38.3245 21.326C38.739 21.7042 39.2113 22.2958 39.7125 22.7322C38.5413 24.0071 37.6163 25.4904 36.9848 27.106C36.1944 29.899 37.7558 30.4712 39.4619 31.5186L46.2088 35.6403C46.9221 36.067 47.9148 37.0562 48.657 36.6101C48.4739 35.7276 47.2787 35.3881 46.5173 34.9129C44.1558 33.4485 41.698 32.1878 39.4426 30.5391C42.0161 28.9098 45.1679 26.8054 45.5341 22.1406C46.3245 22.48 45.8908 22.1406 46.498 22.8389C48.1462 24.7785 51.3173 27.3388 53.245 29.2008C53.8233 29.773 54.0931 30.1706 54.71 30.7525C55.7623 31.6171 56.7483 32.5605 57.6594 33.5746C57.351 34.3311 56.0498 35.4657 56.0016 36.2513C55.8666 38.1909 58.5943 33.1382 59.857 33.0315C60.0883 34.2923 57.2546 36.9107 58.6522 36.678C59.0473 36.5907 59.3269 36.0573 59.6738 35.5724C60.2522 34.7772 60.2329 34.3117 61.1967 34.1662C60.869 35.7955 59.8473 35.5821 59.9341 36.775C61.2256 36.775 60.8112 35.6985 61.9389 35.2136C62.3244 35.9603 62.0353 35.3493 62.016 35.9312C61.9248 36.2561 61.9628 36.6039 62.122 36.901C62.6714 36.6974 62.5268 36.998 62.8353 36.261C63.2015 35.3687 62.3148 34.4183 61.8714 33.8365C61.4281 33.2546 61.7172 33.7298 61.1582 33.3612L60.5895 32.7018C60.1558 32.149 59.6256 32.1975 59.1823 31.4798C58.469 30.4324 55.9437 26.0586 55.2787 25.5543C55.7264 24.7667 56.3583 24.1009 57.1196 23.6147C58.1702 22.7904 58.8931 23.6147 59.8377 23.9445C59.6564 25.0032 59.4216 26.052 59.1341 27.0866C58.7775 28.648 59.6353 28.2213 61.2064 28.3086L60.1461 31.0919C61.3134 32.1672 62.5463 33.168 63.8377 34.0886C64.8015 34.7966 66.6521 36.581 67.7895 36.8525L69.3124 34.9129C70.1606 35.4657 69.7847 35.7955 70.4304 36.5034C71.3943 36.0961 71.7991 33.7783 72.416 32.8763L73.8328 33.1382C73.9099 34.5056 73.1871 35.3105 73.8328 35.9215C74.4979 35.7179 74.5557 35.1069 74.9316 34.4571C75.1959 33.8484 75.6446 33.3393 76.2135 33.0024C76.8304 34.0595 75.934 35.039 77.1196 35.3687C77.7653 33.8849 76.7244 34.2341 78.1798 32.1199C79.5677 32.2072 79.1918 32.663 78.7003 33.594C78.4593 34.0498 77.1292 35.9021 78.1991 35.6403C78.8641 35.4851 79.0569 34.3601 79.375 33.8752C79.9147 33.0606 79.269 33.5164 80.146 33.2837C80.5123 34.2535 80.3195 36.0185 80.6665 36.5325C81.3894 36.3676 81.2448 36.2125 81.2448 35.1748C81.2448 33.0606 80.9557 33.5552 79.9918 32.2072C79.4714 31.4798 79.8858 31.5283 78.6039 31.3731C78.8352 30.093 78.3822 29.8506 77.5436 29.0941L79.2497 24.8464L78.3822 24.4875C77.987 24.3227 77.5533 24.1869 77.3123 24.0705C77.5131 23.7744 77.6965 23.4668 77.8617 23.1492C77.9388 23.0134 77.9774 22.8874 78.0641 22.7419L78.2183 22.4897L78.3918 22.2473C78.681 24.3227 80.9171 26.883 81.9388 28.3959C83.2111 30.3355 84.8786 32.1587 85.9292 34.1274C85.4954 34.845 84.4737 35.9215 84.4545 36.775C85.3701 36.9107 85.7171 35.9991 86.7966 34.1856C86.3436 32.76 82.0834 27.2224 81.0135 25.6901C77.2256 20.3659 80.9364 20.5986 72.3389 19.8713C71.952 18.4544 71.7066 17.0022 71.6063 15.5363C71.4425 13.5966 72.2907 13.1796 71.0184 11.3079C71.2208 10.6484 71.2883 10.9588 71.587 10.3381L69.2642 7.3899C63.4907 -1.40622 64.5798 1.69716 60.5028 0Z" fill="white"/>
<path d="M8.22165 47.4326H2.79517V51.1276H9.16623V53.4163H0V39.6257H9.17587V41.9241H2.79517V45.2118H8.22165V47.4326Z" fill="white"/>
<path d="M21.9855 53.4163H19.1614L13.6578 44.3389V53.4163H10.8337V39.6257H13.6578L19.1711 48.7127V39.6257H21.9855V53.4163Z" fill="white"/>
<path d="M32.7131 47.4326H27.2866V51.1276H33.6577V53.4163H24.4722V39.6257H33.6384V41.9241H27.2866V45.2118H32.7131V47.4326Z" fill="white"/>
<path d="M40.4068 48.3637H38.1514V53.4164H35.3369V39.6258H40.4261C41.7605 39.5373 43.0836 39.9216 44.1658 40.712C44.6081 41.0861 44.9576 41.5586 45.1868 42.0923C45.416 42.6259 45.5186 43.2059 45.4863 43.7863C45.5162 44.6145 45.3052 45.4336 44.8791 46.1429C44.4244 46.814 43.7844 47.3366 43.0381 47.6461L46.0068 53.2806V53.4164H42.9706L40.4068 48.3637ZM38.1514 46.0653H40.4839C41.0818 46.1002 41.6706 45.9062 42.1321 45.5222C42.33 45.328 42.484 45.0933 42.5838 44.8339C42.6836 44.5746 42.7268 44.2966 42.7104 44.019C42.7263 43.7395 42.6858 43.4597 42.5914 43.1964C42.497 42.933 42.3506 42.6916 42.161 42.4867C41.9324 42.2829 41.665 42.128 41.375 42.0313C41.0851 41.9346 40.7786 41.8982 40.4743 41.9242H38.1996L38.1514 46.0653Z" fill="white"/>
<path d="M58.4962 51.6706C57.9157 52.3309 57.1703 52.8231 56.3372 53.0962C55.3464 53.4447 54.3024 53.6154 53.2529 53.6005C52.1622 53.6229 51.0849 53.3553 50.13 52.8246C49.2298 52.293 48.5081 51.5027 48.0577 50.5553C47.5526 49.459 47.2989 48.2625 47.3155 47.0543V46.0845C47.2879 44.8562 47.5212 43.6362 47.9999 42.5059C48.4177 41.5483 49.1175 40.7427 50.0047 40.1978C51.0697 39.6119 52.2759 39.336 53.488 39.4011C54.7002 39.4662 55.8703 39.8697 56.8673 40.5663C57.8315 41.4433 58.4162 42.6651 58.4962 43.9703H55.7492C55.6809 43.3363 55.3945 42.7463 54.9396 42.3023C54.4331 41.9116 53.8031 41.7186 53.1661 41.7592C52.7395 41.7368 52.3144 41.8248 51.9313 42.015C51.5482 42.2052 51.22 42.4911 50.9782 42.8454C50.4088 43.8244 50.1436 44.9525 50.2167 46.0845V46.967C50.1377 48.1194 50.4246 49.2673 51.036 50.245C51.3146 50.6139 51.6794 50.9079 52.0981 51.1007C52.5168 51.2936 52.9764 51.3794 53.436 51.3505C54.2516 51.4288 55.065 51.1816 55.701 50.662V48.2569H53.1276V46.1815H58.5251L58.4962 51.6706Z" fill="white"/>
<path d="M65.542 45.8324L68.4335 39.6257H71.5275L67.0263 48.4121V53.4163H64.1347V48.4121L59.6335 39.6257H62.6504L65.542 45.8324Z" fill="white"/>
<path d="M76.4142 48.6067H71.1227V46.4047H76.4142V48.6067Z" fill="white"/>
<path d="M85.9097 49.7995C85.9216 49.5618 85.8761 49.3247 85.777 49.1085C85.678 48.8923 85.5284 48.7035 85.3411 48.5582C84.7138 48.1509 84.0278 47.8434 83.3073 47.6466C82.5066 47.3914 81.7295 47.0669 80.9845 46.6768C80.3162 46.3884 79.7426 45.9158 79.3299 45.3135C78.9172 44.7112 78.6822 44.0037 78.652 43.2728C78.6387 42.5559 78.8587 41.8543 79.2784 41.275C79.7367 40.659 80.358 40.1852 81.0712 39.9075C81.9067 39.5675 82.8014 39.3993 83.7025 39.4129C84.6043 39.4 85.4983 39.5819 86.3242 39.9463C87.0483 40.2717 87.6663 40.7961 88.1073 41.4592C88.5349 42.1191 88.7564 42.8925 88.7435 43.6801H85.9194C85.9343 43.4052 85.8884 43.1304 85.7851 42.8755C85.6817 42.6206 85.5235 42.3919 85.3218 42.206C84.8493 41.8302 84.2553 41.6437 83.6543 41.6823C83.085 41.6491 82.5203 41.8022 82.0447 42.1187C81.8634 42.2519 81.717 42.4274 81.618 42.6301C81.5189 42.8328 81.4702 43.0567 81.476 43.2824C81.481 43.5129 81.5459 43.7381 81.6642 43.9355C81.7826 44.1329 81.9503 44.2956 82.1507 44.4074C82.7673 44.7818 83.4322 45.069 84.1266 45.2608C85.42 45.5784 86.6215 46.1962 87.635 47.0647C87.9971 47.4109 88.2829 47.8298 88.4739 48.2942C88.6648 48.7587 88.7567 49.2583 88.7435 49.7607C88.7637 50.3033 88.6513 50.8427 88.416 51.3314C88.1808 51.82 87.8298 52.2431 87.3941 52.5635C86.3236 53.2761 85.0508 53.6167 83.77 53.5333C82.7761 53.5473 81.7905 53.349 80.8784 52.9514C80.1012 52.6122 79.4336 52.0613 78.9507 51.3609C78.4866 50.6652 78.2476 49.842 78.2664 49.0043H81.1001C81.1001 50.5269 82.0061 51.293 83.8085 51.293C84.3632 51.3277 84.9141 51.1814 85.3796 50.876C85.5452 50.7506 85.6794 50.5879 85.7715 50.401C85.8635 50.2141 85.9109 50.0081 85.9097 49.7995Z" fill="white"/>
<path d="M95.4194 45.833L98.3109 39.6262H101.395L96.9037 48.4126V53.4168H94.0122V48.4126L89.511 39.6262H92.5278L95.4194 45.833Z" fill="white"/>
<path d="M109.56 49.7994C109.572 49.5617 109.526 49.3246 109.427 49.1084C109.328 48.8922 109.178 48.7034 108.991 48.5581C108.364 48.1508 107.678 47.8433 106.957 47.6464C106.157 47.3913 105.379 47.0668 104.634 46.6766C103.966 46.3883 103.393 45.9157 102.98 45.3134C102.567 44.7111 102.332 44.0036 102.302 43.2726C102.293 42.5565 102.513 41.8564 102.928 41.2748C103.389 40.6567 104.014 40.1825 104.731 39.9074C105.563 39.5686 106.455 39.4005 107.352 39.4128C108.254 39.3999 109.148 39.5818 109.974 39.9462C110.718 40.2691 111.354 40.8011 111.805 41.4785C112.233 42.1383 112.455 42.9118 112.442 43.6993H109.617C109.632 43.4245 109.586 43.1497 109.483 42.8948C109.38 42.6399 109.222 42.4112 109.02 42.2252C108.55 41.851 107.96 41.6645 107.362 41.7016C106.792 41.6655 106.227 41.8188 105.752 42.138C105.569 42.2696 105.42 42.4445 105.319 42.6474C105.218 42.8503 105.169 43.0749 105.174 43.3017C105.179 43.5322 105.244 43.7574 105.362 43.9548C105.481 44.1522 105.648 44.3149 105.849 44.4267C106.45 44.7971 107.099 45.0841 107.777 45.2801C109.071 45.6013 110.275 46.2186 111.295 47.084C111.654 47.4321 111.937 47.8516 112.126 48.3157C112.315 48.7799 112.406 49.2785 112.393 49.78C112.414 50.3226 112.301 50.862 112.066 51.3506C111.831 51.8393 111.48 52.2624 111.044 52.5827C109.974 53.2954 108.701 53.636 107.42 53.5526C106.426 53.5666 105.44 53.3682 104.528 52.9707C103.735 52.6365 103.051 52.0855 102.552 51.3802C102.109 50.7007 101.874 49.9046 101.878 49.0915H104.711C104.711 50.6141 105.617 51.3802 107.42 51.3802C107.975 51.4148 108.526 51.2686 108.991 50.9632C109.176 50.8336 109.325 50.6588 109.425 50.4552C109.524 50.2517 109.571 50.026 109.56 49.7994Z" fill="white"/>
<path d="M124.635 41.9247H120.48V53.4168H117.589V41.9247H113.444V39.6262H124.606L124.635 41.9247Z" fill="white"/>
<path d="M134.515 47.4326H129.089V51.1276H135.46V53.4163H126.265V39.6257H135.44V41.9241H129.089V45.2118H134.515V47.4326Z" fill="white"/>
<path d="M140.819 39.6257L144.346 49.6244L147.845 39.6257H151.556V53.4163H148.722V49.6438L149.002 43.1364L145.301 53.4163H143.373L139.681 43.1461L139.961 49.6438V53.4163H137.137V39.6257H140.819Z" fill="white"/>
<path d="M161.145 49.7994C161.157 49.5617 161.111 49.3246 161.012 49.1084C160.913 48.8923 160.763 48.7034 160.576 48.5581C159.949 48.1508 159.263 47.8433 158.542 47.6465C157.742 47.3913 156.964 47.0669 156.219 46.6767C155.546 46.3952 154.968 45.9244 154.555 45.3206C154.141 44.7168 153.909 44.0057 153.887 43.2727C153.874 42.5558 154.094 41.8542 154.513 41.2749C154.972 40.6589 155.593 40.1851 156.306 39.9074C157.14 39.5608 158.035 39.386 158.937 39.3935C159.839 39.3805 160.733 39.5624 161.559 39.9268C162.283 40.2522 162.901 40.7766 163.342 41.4397C163.77 42.0996 163.991 42.873 163.978 43.6606H161.154C161.169 43.3857 161.123 43.1109 161.02 42.856C160.917 42.6011 160.758 42.3725 160.557 42.1865C160.084 41.8116 159.49 41.6251 158.889 41.6628C158.32 41.6296 157.755 41.7827 157.28 42.0992C157.098 42.2325 156.952 42.4079 156.853 42.6106C156.754 42.8133 156.705 43.0372 156.711 43.263C156.716 43.4935 156.781 43.7186 156.899 43.916C157.018 44.1134 157.185 44.2761 157.386 44.3879C157.987 44.7583 158.636 45.0453 159.313 45.2414C160.634 45.5603 161.86 46.1921 162.889 47.084C163.251 47.4302 163.537 47.8491 163.728 48.3135C163.919 48.778 164.011 49.2776 163.998 49.78C164.018 50.3227 163.906 50.862 163.67 51.3507C163.435 51.8394 163.084 52.2624 162.648 52.5828C161.578 53.2954 160.305 53.636 159.024 53.5526C158.03 53.5666 157.045 53.3683 156.133 52.9707C155.338 52.6392 154.653 52.0877 154.157 51.3802C153.693 50.6845 153.454 49.8613 153.472 49.0236H156.306C156.306 50.5462 157.203 51.3123 159.015 51.3123C159.569 51.347 160.12 51.2007 160.586 50.8953C160.759 50.771 160.901 50.6066 160.998 50.4159C161.095 50.2252 161.146 50.0138 161.145 49.7994Z" fill="white"/>
<path d="M9.34941 62.1156H7.12292L6.74702 63.3958H5.38798L7.69159 57.189H8.86749L11.1807 63.3958H9.8217L9.34941 62.1156ZM7.42171 61.0779H8.96388L8.19279 58.7601L7.42171 61.0779Z" fill="white"/>
<path d="M12.9755 61.2039V63.3957H11.7032V57.1889H14.1128C14.5347 57.1776 14.9535 57.2639 15.3369 57.4411C15.674 57.6024 15.9572 57.8588 16.1523 58.179C16.3473 58.4992 16.4458 58.8695 16.4357 59.2449C16.4543 59.5243 16.4073 59.8043 16.2985 60.062C16.1897 60.3198 16.022 60.5482 15.8092 60.7287C15.3178 61.1038 14.7092 61.2895 14.0936 61.2524L12.9755 61.2039ZM12.9755 60.1662H14.1128C14.3895 60.1858 14.6637 60.103 14.8839 59.9335C14.9728 59.8454 15.0419 59.7393 15.0868 59.6223C15.1317 59.5052 15.1512 59.3799 15.1442 59.2546C15.1558 58.9813 15.0626 58.714 14.8839 58.5078C14.7871 58.4107 14.6709 58.3354 14.5429 58.2869C14.4149 58.2384 14.2782 58.2178 14.1417 58.2266H12.9755V60.1662Z" fill="white"/>
<path d="M19.277 59.3226L20.4336 57.189H21.889L20.0963 60.2633L21.9372 63.3958H20.4625L19.277 61.2234L18.0914 63.3958H16.6071L18.4481 60.2633L16.6553 57.189H18.1204L19.277 59.3226Z" fill="white"/>
<path d="M26.2939 57.189H27.5759V63.3958H26.2939V59.2741L23.8265 63.3958H22.5542V57.189H23.8265V61.3204L26.2939 57.189Z" fill="white"/>
<path d="M33.1951 58.2267H31.2674V63.3958H29.9951V58.2267H28.1349V57.189H33.1565L33.1951 58.2267Z" fill="white"/>
<path d="M37.6385 60.7287H35.1903V62.3968H38.0818V63.4248H33.9373V57.218H38.0722V58.2557H35.1806V59.7298H37.6288L37.6385 60.7287Z" fill="white"/>
<path d="M40.8207 60.8549H40.0882V63.3958H38.8159V57.189H40.0882V59.6717H40.6665L42.1701 57.189H43.7219L41.7942 60.0984L43.8954 63.3667H42.4111L40.8207 60.8549Z" fill="white"/>
<path d="M49.0504 58.2267H47.1227V63.3958H45.8504V58.2267H43.9902V57.189H49.0118L49.0504 58.2267Z" fill="white"/>
<path d="M52.0949 60.1178L53.213 57.2084H54.5913L52.4322 62.3289L52.2587 62.6587C52.1188 62.9242 51.9068 63.1445 51.6475 63.2938C51.3882 63.4431 51.0922 63.5155 50.7937 63.5024H50.3503V62.4744C50.4592 62.4867 50.5691 62.4867 50.678 62.4744C50.8288 62.4839 50.9792 62.4503 51.1118 62.3774C51.2373 62.2982 51.3324 62.1786 51.3816 62.038L51.5455 61.6307L49.3768 57.2084H50.7455L52.0949 60.1178Z" fill="white"/>
<path d="M56.5287 61.2039V63.3957H55.2564V57.1889H57.666C58.0878 57.1776 58.5066 57.2639 58.8901 57.4411C59.2236 57.6005 59.5047 57.8529 59.6997 58.1684C59.8885 58.495 59.9852 58.8672 59.9792 59.2449C59.9922 59.5157 59.9433 59.7858 59.8364 60.0346C59.7295 60.2834 59.5673 60.5043 59.3624 60.6802C58.8702 61.0537 58.2622 61.2393 57.6467 61.2039H56.5287ZM56.5287 60.1662H57.666C57.9425 60.1849 58.2165 60.1022 58.4371 59.9335C58.5259 59.8454 58.5951 59.7393 58.64 59.6223C58.6849 59.5052 58.7044 59.3799 58.6973 59.2546C58.7038 59.1183 58.6833 58.9821 58.637 58.8539C58.5907 58.7257 58.5194 58.6081 58.4274 58.5078C58.3317 58.4119 58.2171 58.3373 58.0909 58.2889C57.9647 58.2404 57.8298 58.2192 57.6949 58.2266H56.5287V60.1662Z" fill="white"/>
<path d="M63.6143 62.1156H61.3878L60.9637 63.3958H59.6047L61.9083 57.189H63.0841L65.3974 63.3958H64.0384L63.6143 62.1156ZM61.6866 61.0779H63.2287L62.4577 58.7601L61.6866 61.0779Z" fill="white"/>
<path d="M73.8214 64.9184H72.6455V63.3958H68.9251V64.9184H67.7203L67.6528 62.3678H68.1251C68.4054 62.1063 68.606 61.77 68.7034 61.398C68.8559 60.9067 68.9497 60.3988 68.9829 59.8851L69.1564 57.1503H73.2528V62.329H73.9757L73.8214 64.9184ZM69.5805 62.3678H71.9323V58.2268H70.3612L70.2552 59.856C70.2314 60.7353 70.0001 61.5962 69.5805 62.3678Z" fill="white"/>
<path d="M78.2822 57.189H79.5642V63.3958H78.2822V59.2741L75.8148 63.3958H74.5425V57.189H75.8148V61.3204L78.2822 57.189Z" fill="white"/>
<path d="M83.7118 58.8959C83.7138 58.7878 83.6894 58.6808 83.6407 58.5844C83.5919 58.488 83.5204 58.4051 83.4323 58.3431C83.2196 58.1983 82.9659 58.1268 82.7094 58.1395C82.4652 58.1296 82.2246 58.2012 82.0251 58.3431C81.9428 58.4027 81.8762 58.4815 81.8309 58.5727C81.7855 58.6639 81.7629 58.7649 81.7648 58.8668H80.4925C80.4856 58.5406 80.5836 58.2208 80.7721 57.9552C80.9749 57.6762 81.2523 57.4609 81.5721 57.3345C81.9305 57.1766 82.3182 57.0973 82.7094 57.1018C83.3009 57.0686 83.8869 57.2322 84.3768 57.5673C84.5759 57.7175 84.7353 57.9145 84.8411 58.1411C84.947 58.3676 84.9961 58.6168 84.9841 58.8668C84.9869 59.146 84.8989 59.4185 84.7335 59.6427C84.5521 59.8891 84.3094 60.0831 84.0299 60.2052C84.3395 60.2961 84.6149 60.4785 84.8202 60.7289C85.0078 60.9907 85.1028 61.3082 85.0901 61.6308C85.1009 61.8888 85.0474 62.1455 84.9347 62.3775C84.8219 62.6095 84.6534 62.8095 84.4443 62.9594C83.9389 63.3105 83.3325 63.4843 82.719 63.454C82.3027 63.461 81.8893 63.3818 81.5046 63.2212C81.1797 63.0899 80.8964 62.872 80.6853 62.5909C80.4924 62.3055 80.3946 61.966 80.4058 61.6211H81.6877C81.6885 61.7311 81.715 61.8394 81.7653 61.9372C81.8155 62.0349 81.888 62.1194 81.9769 62.1836C82.1934 62.3374 82.4541 62.4158 82.719 62.4066C83.0043 62.4231 83.2865 62.3409 83.519 62.1739C83.6094 62.1066 83.6827 62.0189 83.7329 61.9178C83.7832 61.8167 83.809 61.705 83.8082 61.592C83.8216 61.4633 83.8051 61.3331 83.7599 61.212C83.7148 61.0908 83.6422 60.9818 83.5479 60.8937C83.3269 60.7348 83.0573 60.6593 82.7865 60.6804H82.0251V59.759H82.8058C83.4034 59.759 83.7118 59.439 83.7118 58.8959Z" fill="white"/>
<path d="M89.5033 62.1156H87.2768L86.8527 63.3958H85.4936L87.7972 57.189H88.9732L91.2768 63.3958H89.9274L89.5033 62.1156ZM87.5756 61.0779H89.1177L88.3852 58.7892L87.5756 61.0779Z" fill="white"/>
<path d="M95.5562 57.1891H96.8285V63.3959H95.5562V59.2742L93.0888 63.3959H91.8165V57.1891H93.0888V61.3205L95.5562 57.1891ZM95.8068 55.5599C95.8129 55.7328 95.7796 55.9049 95.7094 56.0629C95.6393 56.2209 95.5341 56.3607 95.402 56.4715C95.0924 56.6978 94.7196 56.8197 94.337 56.8197C93.9543 56.8197 93.5815 56.6978 93.2719 56.4715C93.1392 56.3611 93.0337 56.2215 92.9635 56.0633C92.8933 55.9052 92.8603 55.7329 92.8671 55.5599H93.7345C93.7308 55.6371 93.7434 55.7143 93.7717 55.7862C93.8 55.8581 93.8431 55.9231 93.8984 55.9769C94.0235 56.0713 94.1757 56.1224 94.3321 56.1224C94.4885 56.1224 94.6407 56.0713 94.7659 55.9769C94.8211 55.9231 94.8643 55.8581 94.8925 55.7862C94.9208 55.7143 94.9335 55.6371 94.9297 55.5599H95.8068Z" fill="white"/>
<path d="M102.959 63.3958H101.686V60.7288H99.2093V63.3861H97.937V57.1793H99.2093V59.6911H101.686V57.189H102.959V63.3958Z" fill="white"/>
<path d="M109.927 57.189H111.2V63.3958H109.927V59.2741L107.46 63.3958H106.188V57.189H107.46V61.3204L109.927 57.189Z" fill="white"/>
<path d="M117.318 63.3958H116.055V60.7288H113.569V63.3861H112.306V57.1793H113.569V59.6911H116.055V57.189H117.318V63.3958Z" fill="white"/>
<path d="M123.71 60.8646H122.978V63.3958H121.706V60.8646H120.954L119.614 63.3958H118.024L119.951 60.0597L118.12 57.1503H119.701L121.079 59.6524H121.706V57.1891H122.978V59.6912H123.595L124.935 57.1891H126.515L124.713 60.0985L126.641 63.4346H125.05L123.71 60.8646Z" fill="white"/>
<path d="M130.872 60.7287H128.433V62.3968H131.325V63.4248H127.19V57.218H131.325V58.2557H128.433V59.7298H130.872V60.7287Z" fill="white"/>
<path d="M137.067 63.3958H135.795V60.7288H133.318V63.3861H132.046V57.1793H133.318V59.6911H135.795V57.189H137.067V63.3958Z" fill="white"/>
<path d="M141.889 60.7287H139.45V62.3968H142.342V63.4248H138.207V57.218H142.332V58.2557H139.44V59.7298H141.879L141.889 60.7287Z" fill="white"/>
<path d="M144.327 61.2041V63.3958H143.065V57.1891H145.465C145.886 57.1767 146.305 57.263 146.689 57.4412C147.024 57.5973 147.306 57.8506 147.498 58.1686C147.695 58.4923 147.795 58.8658 147.787 59.2451C147.798 59.5165 147.748 59.7869 147.639 60.0357C147.531 60.2844 147.367 60.5049 147.161 60.6804C146.669 61.0555 146.061 61.2412 145.445 61.2041H144.327ZM144.327 60.1664H145.465C145.741 60.186 146.015 60.1032 146.236 59.9336C146.324 59.8456 146.394 59.7395 146.438 59.6225C146.483 59.5054 146.503 59.38 146.496 59.2548C146.507 58.9815 146.414 58.7142 146.236 58.508C146.139 58.4109 146.023 58.3355 145.895 58.287C145.767 58.2386 145.63 58.218 145.493 58.2268H144.327V60.1664Z" fill="white"/>
<path d="M152.354 57.189H153.627V63.3958H152.354V59.2741L149.887 63.3958H148.615V57.189H149.887V61.3204L152.354 57.189Z" fill="white"/>
<path d="M157.59 63.3957V61.1555H156.549L155.44 63.3957H154.062L155.383 60.7288C155.129 60.5764 154.913 60.3673 154.753 60.1178C154.592 59.8683 154.491 59.585 154.456 59.2897C154.422 58.9945 154.455 58.6952 154.554 58.4151C154.653 58.1349 154.814 57.8813 155.026 57.6739C155.499 57.3159 156.083 57.1373 156.674 57.1696H158.862V63.3764L157.59 63.3957ZM155.662 59.1965C155.648 59.3332 155.663 59.4714 155.707 59.6018C155.75 59.7322 155.82 59.8519 155.913 59.9529C156.128 60.1244 156.4 60.2075 156.674 60.1857H157.551V58.2461H156.674C156.038 58.2267 155.701 58.5467 155.701 59.1965H155.662Z" fill="white"/>
</svg>
